%TF.GenerationSoftware,KiCad,Pcbnew,9.0.1*%
%TF.CreationDate,2025-10-26T11:51:32+05:30*%
%TF.ProjectId,SoundTab,536f756e-6454-4616-922e-6b696361645f,rev?*%
%TF.SameCoordinates,Original*%
%TF.FileFunction,Copper,L2,Bot*%
%TF.FilePolarity,Positive*%
%FSLAX46Y46*%
G04 Gerber Fmt 4.6, Leading zero omitted, Abs format (unit mm)*
G04 Created by KiCad (PCBNEW 9.0.1) date 2025-10-26 11:51:32*
%MOMM*%
%LPD*%
G01*
G04 APERTURE LIST*
G04 Aperture macros list*
%AMRoundRect*
0 Rectangle with rounded corners*
0 $1 Rounding radius*
0 $2 $3 $4 $5 $6 $7 $8 $9 X,Y pos of 4 corners*
0 Add a 4 corners polygon primitive as box body*
4,1,4,$2,$3,$4,$5,$6,$7,$8,$9,$2,$3,0*
0 Add four circle primitives for the rounded corners*
1,1,$1+$1,$2,$3*
1,1,$1+$1,$4,$5*
1,1,$1+$1,$6,$7*
1,1,$1+$1,$8,$9*
0 Add four rect primitives between the rounded corners*
20,1,$1+$1,$2,$3,$4,$5,0*
20,1,$1+$1,$4,$5,$6,$7,0*
20,1,$1+$1,$6,$7,$8,$9,0*
20,1,$1+$1,$8,$9,$2,$3,0*%
G04 Aperture macros list end*
%TA.AperFunction,ComponentPad*%
%ADD10C,1.500000*%
%TD*%
%TA.AperFunction,ComponentPad*%
%ADD11C,1.600000*%
%TD*%
%TA.AperFunction,ComponentPad*%
%ADD12RoundRect,0.250000X-0.550000X0.550000X-0.550000X-0.550000X0.550000X-0.550000X0.550000X0.550000X0*%
%TD*%
%TA.AperFunction,ComponentPad*%
%ADD13R,1.308000X1.308000*%
%TD*%
%TA.AperFunction,ComponentPad*%
%ADD14C,1.308000*%
%TD*%
%TA.AperFunction,ComponentPad*%
%ADD15C,1.905000*%
%TD*%
%TA.AperFunction,HeatsinkPad*%
%ADD16C,0.600000*%
%TD*%
%TA.AperFunction,ViaPad*%
%ADD17C,0.600000*%
%TD*%
%TA.AperFunction,Conductor*%
%ADD18C,0.200000*%
%TD*%
%TA.AperFunction,Conductor*%
%ADD19C,0.500000*%
%TD*%
%TA.AperFunction,Conductor*%
%ADD20C,0.300000*%
%TD*%
G04 APERTURE END LIST*
D10*
%TO.P,U8,1,VCC*%
%TO.N,/VCC_3v3*%
X113320000Y-97190000D03*
%TO.P,U8,2,GND*%
%TO.N,GND*%
X113320000Y-99730000D03*
%TO.P,U8,3,SCL*%
%TO.N,Net-(U8-SCL)*%
X113320000Y-102270000D03*
%TO.P,U8,4,SDA*%
%TO.N,Net-(U8-SDA)*%
X113320000Y-104810000D03*
%TD*%
D11*
%TO.P,U3,1,Positive*%
%TO.N,Net-(SW6-A)*%
X77102500Y-123880000D03*
D12*
%TO.P,U3,2,Negative*%
%TO.N,GND*%
X77102500Y-131500000D03*
%TD*%
D13*
%TO.P,U1,1,VCC*%
%TO.N,/VCC_3v3*%
X111619500Y-81390000D03*
D14*
%TO.P,U1,2,RX*%
%TO.N,/DF_RX*%
X111619500Y-78850000D03*
%TO.P,U1,3,TX*%
%TO.N,/DF_TX*%
X111619500Y-76310000D03*
%TO.P,U1,4,DAC_R*%
%TO.N,/DAC_R*%
X111619500Y-73770000D03*
%TO.P,U1,5,DAC_L*%
%TO.N,/DAC_L*%
X111619500Y-71230000D03*
%TO.P,U1,6,SPK1*%
%TO.N,unconnected-(U1-SPK1-Pad6)*%
X111619500Y-68690000D03*
%TO.P,U1,7,GND*%
%TO.N,GND*%
X111619500Y-66150000D03*
%TO.P,U1,8,SPK2*%
%TO.N,unconnected-(U1-SPK2-Pad8)*%
X111619500Y-63610000D03*
%TO.P,U1,9,IO1*%
%TO.N,unconnected-(U1-IO1-Pad9)*%
X93585500Y-63610000D03*
%TO.P,U1,10,GND*%
%TO.N,GND*%
X93585500Y-66150000D03*
%TO.P,U1,11,IO2*%
%TO.N,unconnected-(U1-IO2-Pad11)*%
X93585500Y-68690000D03*
%TO.P,U1,12,ADKEY1*%
%TO.N,unconnected-(U1-ADKEY1-Pad12)*%
X93585500Y-71230000D03*
%TO.P,U1,13,ADKEY2*%
%TO.N,unconnected-(U1-ADKEY2-Pad13)*%
X93585500Y-73770000D03*
%TO.P,U1,14,USB+*%
%TO.N,unconnected-(U1-USB+-Pad14)*%
X93585500Y-76310000D03*
%TO.P,U1,15,USB-*%
%TO.N,unconnected-(U1-USB--Pad15)*%
X93585500Y-78850000D03*
%TO.P,U1,16,BUSY*%
%TO.N,/BUSY*%
X93585500Y-81390000D03*
%TD*%
D15*
%TO.P,U4,1,Sleeve*%
%TO.N,/MIC*%
X85412500Y-79620000D03*
%TO.P,U4,2,Ring_2*%
%TO.N,GND*%
X82872500Y-79620000D03*
%TO.P,U4,3,Ring_1*%
%TO.N,/DAC_R*%
X80332500Y-79620000D03*
%TO.P,U4,4,Tip*%
%TO.N,/DAC_L*%
X77792500Y-79620000D03*
%TD*%
D16*
%TO.P,U2,39,GND*%
%TO.N,GND*%
X147602500Y-89262500D03*
X147602500Y-90787500D03*
X148365000Y-88500000D03*
X148365000Y-90025000D03*
X148365000Y-91550000D03*
X149127500Y-89262500D03*
X149127500Y-90787500D03*
X149890000Y-88500000D03*
X149890000Y-90025000D03*
X149890000Y-91550000D03*
X150652500Y-89262500D03*
X150652500Y-90787500D03*
%TD*%
D17*
%TO.N,GND*%
X195500000Y-90000000D03*
X136000000Y-100000000D03*
X80000000Y-97500000D03*
X194000000Y-74000000D03*
X86000000Y-116500000D03*
X191500000Y-70900000D03*
X142000000Y-100500000D03*
X195653500Y-94824000D03*
X197500000Y-74000000D03*
%TO.N,/VCC_3v3*%
X161000000Y-93000000D03*
X175000000Y-93000000D03*
X190500000Y-72000000D03*
X197002500Y-73000000D03*
X194000000Y-97500000D03*
X196500000Y-83500000D03*
X179500000Y-94000000D03*
X190500000Y-67500000D03*
X183000000Y-96500000D03*
X146000000Y-84000000D03*
%TO.N,/AUTO_EN*%
X175000000Y-92199997D03*
X155000000Y-89000000D03*
X147000000Y-86500000D03*
X161565687Y-92434313D03*
X157307498Y-87500000D03*
X184000000Y-92500000D03*
%TO.N,Net-(U5-~{RTS})*%
X180500000Y-82000000D03*
X186000000Y-73500000D03*
%TO.N,Net-(F1-Pad1)*%
X211500000Y-73000000D03*
X208000000Y-68500000D03*
X206500000Y-66000000D03*
X204500000Y-66000000D03*
%TO.N,/I2C_SCL*%
X123500000Y-106500000D03*
X153500000Y-89000000D03*
%TO.N,/I2C_SDA*%
X152000000Y-94500000D03*
X121500000Y-105500000D03*
%TO.N,/BUSY*%
X148500000Y-98000000D03*
%TO.N,/DAC_R*%
X90500000Y-75000000D03*
%TO.N,/DF_TX*%
X149500000Y-96500000D03*
%TO.N,/DF_RX*%
X117000000Y-83000000D03*
X151000000Y-95500000D03*
%TO.N,/DAC_L*%
X91000000Y-72500000D03*
%TO.N,/D+*%
X192065687Y-68565687D03*
X206000000Y-64000000D03*
%TO.N,/D-*%
X191500000Y-68000000D03*
X205000000Y-63500000D03*
%TD*%
D18*
%TO.N,GND*%
X136000000Y-100000000D02*
X136500000Y-100500000D01*
X136500000Y-100500000D02*
X142000000Y-100500000D01*
X93585500Y-66150000D02*
X111619500Y-66150000D01*
X80000000Y-97500000D02*
X84000000Y-97500000D01*
X195500000Y-94670500D02*
X195653500Y-94824000D01*
X197500000Y-74000000D02*
X194000000Y-74000000D01*
X191500000Y-71500000D02*
X194000000Y-74000000D01*
X191500000Y-70900000D02*
X191500000Y-71500000D01*
X82872500Y-79620000D02*
X82872500Y-76863000D01*
X84000000Y-97500000D02*
X85500000Y-99000000D01*
X85500000Y-99000000D02*
X85500000Y-116000000D01*
X85500000Y-116000000D02*
X86000000Y-116500000D01*
X82872500Y-76863000D02*
X93585500Y-66150000D01*
X195500000Y-90000000D02*
X195500000Y-94670500D01*
D19*
%TO.N,/VCC_3v3*%
X194000000Y-97500000D02*
X184000000Y-97500000D01*
X152000000Y-84000000D02*
X146000000Y-84000000D01*
X178500000Y-93000000D02*
X179500000Y-94000000D01*
X161000000Y-93000000D02*
X152000000Y-84000000D01*
X198251000Y-73688925D02*
X197562075Y-73000000D01*
D18*
X190500000Y-67500000D02*
X190500000Y-72000000D01*
D19*
X197562075Y-73000000D02*
X197002500Y-73000000D01*
X196500000Y-83500000D02*
X198251000Y-81749000D01*
X184000000Y-97500000D02*
X183000000Y-96500000D01*
X198251000Y-81749000D02*
X198251000Y-73688925D01*
X175000000Y-93000000D02*
X178500000Y-93000000D01*
D20*
%TO.N,/AUTO_EN*%
X157307498Y-87500000D02*
X157307498Y-88176124D01*
X147000000Y-86500000D02*
X152500000Y-86500000D01*
X183699997Y-92199997D02*
X184000000Y-92500000D01*
X175000000Y-92199997D02*
X183699997Y-92199997D01*
X157307498Y-88176124D02*
X161565687Y-92434313D01*
X152500000Y-86500000D02*
X155000000Y-89000000D01*
D18*
%TO.N,Net-(U5-~{RTS})*%
X186000000Y-76500000D02*
X181000000Y-81500000D01*
X186000000Y-73500000D02*
X186000000Y-76500000D01*
X181000000Y-81500000D02*
X180500000Y-82000000D01*
%TO.N,Net-(F1-Pad1)*%
X204500000Y-66000000D02*
X206500000Y-66000000D01*
X211500000Y-72000000D02*
X211500000Y-73000000D01*
X208000000Y-68500000D02*
X211500000Y-72000000D01*
D20*
%TO.N,/I2C_SCL*%
X141629174Y-106500000D02*
X123500000Y-106500000D01*
X153500000Y-89000000D02*
X153500000Y-94629174D01*
X153500000Y-94629174D02*
X141629174Y-106500000D01*
%TO.N,/I2C_SDA*%
X152000000Y-94500000D02*
X152000000Y-95420654D01*
X152000000Y-95420654D02*
X141920654Y-105500000D01*
X141920654Y-105500000D02*
X121500000Y-105500000D01*
%TO.N,/BUSY*%
X116500000Y-85500000D02*
X97695500Y-85500000D01*
X129000000Y-98000000D02*
X116500000Y-85500000D01*
X148500000Y-98000000D02*
X129000000Y-98000000D01*
X97695500Y-85500000D02*
X93585500Y-81390000D01*
%TO.N,/DAC_R*%
X110389500Y-75000000D02*
X111619500Y-73770000D01*
X90500000Y-75000000D02*
X110389500Y-75000000D01*
%TO.N,/DF_TX*%
X115500000Y-80190500D02*
X111619500Y-76310000D01*
X129000000Y-96500000D02*
X115500000Y-83000000D01*
X115500000Y-83000000D02*
X115500000Y-80190500D01*
X149500000Y-96500000D02*
X129000000Y-96500000D01*
%TO.N,/DF_RX*%
X151000000Y-95500000D02*
X129500000Y-95500000D01*
X129500000Y-95500000D02*
X117000000Y-83000000D01*
%TO.N,/DAC_L*%
X91000000Y-72500000D02*
X110349500Y-72500000D01*
X110349500Y-72500000D02*
X111619500Y-71230000D01*
D18*
%TO.N,/D+*%
X192065687Y-68565687D02*
X196530374Y-64101000D01*
X205899000Y-64101000D02*
X206000000Y-64000000D01*
X196530374Y-64101000D02*
X205899000Y-64101000D01*
%TO.N,/D-*%
X191500000Y-68000000D02*
X196000000Y-63500000D01*
X196000000Y-63500000D02*
X205000000Y-63500000D01*
%TD*%
%TA.AperFunction,Conductor*%
%TO.N,GND*%
G36*
X125769677Y-60020185D02*
G01*
X125815432Y-60072989D01*
X125825376Y-60142147D01*
X125807500Y-60181290D01*
X125807500Y-60195000D01*
X125807500Y-81135000D01*
X173807500Y-81135000D01*
X173807500Y-67421153D01*
X189699500Y-67421153D01*
X189699500Y-67578846D01*
X189730261Y-67733489D01*
X189730264Y-67733501D01*
X189790602Y-67879172D01*
X189790609Y-67879185D01*
X189878602Y-68010874D01*
X189899480Y-68077551D01*
X189899500Y-68079765D01*
X189899500Y-71420234D01*
X189879815Y-71487273D01*
X189878602Y-71489125D01*
X189790609Y-71620814D01*
X189790602Y-71620827D01*
X189730264Y-71766498D01*
X189730261Y-71766510D01*
X189699500Y-71921153D01*
X189699500Y-72078846D01*
X189730261Y-72233489D01*
X189730264Y-72233501D01*
X189790602Y-72379172D01*
X189790609Y-72379185D01*
X189878210Y-72510288D01*
X189878213Y-72510292D01*
X189989707Y-72621786D01*
X189989711Y-72621789D01*
X190120814Y-72709390D01*
X190120827Y-72709397D01*
X190258683Y-72766498D01*
X190266503Y-72769737D01*
X190421153Y-72800499D01*
X190421156Y-72800500D01*
X190421158Y-72800500D01*
X190578844Y-72800500D01*
X190578845Y-72800499D01*
X190733497Y-72769737D01*
X190879179Y-72709394D01*
X191010289Y-72621789D01*
X191121789Y-72510289D01*
X191209394Y-72379179D01*
X191269737Y-72233497D01*
X191300500Y-72078842D01*
X191300500Y-71921158D01*
X191300500Y-71921155D01*
X191300499Y-71921153D01*
X191286246Y-71849500D01*
X191269737Y-71766503D01*
X191257829Y-71737754D01*
X191209397Y-71620827D01*
X191209390Y-71620814D01*
X191121398Y-71489125D01*
X191100520Y-71422447D01*
X191100500Y-71420234D01*
X191100500Y-68950717D01*
X191120185Y-68883678D01*
X191172989Y-68837923D01*
X191242147Y-68827979D01*
X191305703Y-68857004D01*
X191339061Y-68903265D01*
X191356289Y-68944859D01*
X191356296Y-68944872D01*
X191443897Y-69075975D01*
X191443900Y-69075979D01*
X191555394Y-69187473D01*
X191555398Y-69187476D01*
X191686501Y-69275077D01*
X191686514Y-69275084D01*
X191826393Y-69333023D01*
X191832190Y-69335424D01*
X191986840Y-69366186D01*
X191986843Y-69366187D01*
X191986845Y-69366187D01*
X192144531Y-69366187D01*
X192144532Y-69366186D01*
X192299184Y-69335424D01*
X192444866Y-69275081D01*
X192575976Y-69187476D01*
X192687476Y-69075976D01*
X192775081Y-68944866D01*
X192835424Y-68799184D01*
X192866187Y-68644529D01*
X192866325Y-68643837D01*
X192898710Y-68581926D01*
X192900205Y-68580403D01*
X193059455Y-68421153D01*
X207199500Y-68421153D01*
X207199500Y-68578846D01*
X207230261Y-68733489D01*
X207230264Y-68733501D01*
X207290602Y-68879172D01*
X207290609Y-68879185D01*
X207378210Y-69010288D01*
X207378213Y-69010292D01*
X207489707Y-69121786D01*
X207489711Y-69121789D01*
X207620814Y-69209390D01*
X207620827Y-69209397D01*
X207766498Y-69269735D01*
X207766503Y-69269737D01*
X207831147Y-69282595D01*
X207921849Y-69300638D01*
X207983760Y-69333023D01*
X207985339Y-69334574D01*
X210863181Y-72212416D01*
X210877884Y-72239343D01*
X210894477Y-72265162D01*
X210895368Y-72271362D01*
X210896666Y-72273739D01*
X210899500Y-72300097D01*
X210899500Y-72420234D01*
X210879815Y-72487273D01*
X210878602Y-72489125D01*
X210790609Y-72620814D01*
X210790602Y-72620827D01*
X210730264Y-72766498D01*
X210730261Y-72766510D01*
X210699500Y-72921153D01*
X210699500Y-73078846D01*
X210730261Y-73233489D01*
X210730264Y-73233501D01*
X210790602Y-73379172D01*
X210790609Y-73379185D01*
X210878210Y-73510288D01*
X210878213Y-73510292D01*
X210989707Y-73621786D01*
X210989711Y-73621789D01*
X211120814Y-73709390D01*
X211120827Y-73709397D01*
X211242143Y-73759647D01*
X211266503Y-73769737D01*
X211421153Y-73800499D01*
X211421156Y-73800500D01*
X211421158Y-73800500D01*
X211578844Y-73800500D01*
X211578845Y-73800499D01*
X211733497Y-73769737D01*
X211879179Y-73709394D01*
X212010289Y-73621789D01*
X212121789Y-73510289D01*
X212209394Y-73379179D01*
X212269737Y-73233497D01*
X212300500Y-73078842D01*
X212300500Y-72921158D01*
X212300500Y-72921155D01*
X212300499Y-72921153D01*
X212274531Y-72790606D01*
X212269737Y-72766503D01*
X212256062Y-72733489D01*
X212209397Y-72620827D01*
X212209390Y-72620814D01*
X212121398Y-72489125D01*
X212100520Y-72422447D01*
X212100500Y-72420234D01*
X212100500Y-71920945D01*
X212100500Y-71920943D01*
X212059577Y-71768216D01*
X212004705Y-71673174D01*
X211980524Y-71631290D01*
X211980521Y-71631286D01*
X211980520Y-71631284D01*
X211868716Y-71519480D01*
X211868715Y-71519479D01*
X211864385Y-71515149D01*
X211864374Y-71515139D01*
X208834574Y-68485339D01*
X208801089Y-68424016D01*
X208800638Y-68421849D01*
X208769738Y-68266510D01*
X208769737Y-68266503D01*
X208769735Y-68266498D01*
X208709397Y-68120827D01*
X208709390Y-68120814D01*
X208621789Y-67989711D01*
X208621786Y-67989707D01*
X208510292Y-67878213D01*
X208510288Y-67878210D01*
X208379185Y-67790609D01*
X208379172Y-67790602D01*
X208233501Y-67730264D01*
X208233489Y-67730261D01*
X208078845Y-67699500D01*
X208078842Y-67699500D01*
X207921158Y-67699500D01*
X207921155Y-67699500D01*
X207766510Y-67730261D01*
X207766498Y-67730264D01*
X207620827Y-67790602D01*
X207620814Y-67790609D01*
X207489711Y-67878210D01*
X207489707Y-67878213D01*
X207378213Y-67989707D01*
X207378210Y-67989711D01*
X207290609Y-68120814D01*
X207290602Y-68120827D01*
X207230264Y-68266498D01*
X207230261Y-68266510D01*
X207199500Y-68421153D01*
X193059455Y-68421153D01*
X195137125Y-66343484D01*
X202137000Y-66343484D01*
X202137000Y-66495016D01*
X202141093Y-66510292D01*
X202176219Y-66641386D01*
X202209772Y-66699500D01*
X202251985Y-66772615D01*
X202359135Y-66879765D01*
X202490365Y-66955531D01*
X202636734Y-66994750D01*
X202636736Y-66994750D01*
X202788264Y-66994750D01*
X202788266Y-66994750D01*
X202934635Y-66955531D01*
X203065865Y-66879765D01*
X203173015Y-66772615D01*
X203248781Y-66641385D01*
X203288000Y-66495016D01*
X203288000Y-66343484D01*
X203248781Y-66197115D01*
X203173015Y-66065885D01*
X203065865Y-65958735D01*
X203000771Y-65921153D01*
X203699500Y-65921153D01*
X203699500Y-66078846D01*
X203730261Y-66233489D01*
X203730264Y-66233501D01*
X203790602Y-66379172D01*
X203790609Y-66379185D01*
X203878210Y-66510288D01*
X203878213Y-66510292D01*
X203989707Y-66621786D01*
X203989711Y-66621789D01*
X204120814Y-66709390D01*
X204120827Y-66709397D01*
X204266498Y-66769735D01*
X204266503Y-66769737D01*
X204421153Y-66800499D01*
X204421156Y-66800500D01*
X204421158Y-66800500D01*
X204578844Y-66800500D01*
X204578845Y-66800499D01*
X204733497Y-66769737D01*
X204879179Y-66709394D01*
X204879185Y-66709390D01*
X205010875Y-66621398D01*
X205077553Y-66600520D01*
X205079766Y-66600500D01*
X205920234Y-66600500D01*
X205987273Y-66620185D01*
X205989125Y-66621398D01*
X206120814Y-66709390D01*
X206120827Y-66709397D01*
X206266498Y-66769735D01*
X206266503Y-66769737D01*
X206421153Y-66800499D01*
X206421156Y-66800500D01*
X206421158Y-66800500D01*
X206578844Y-66800500D01*
X206578845Y-66800499D01*
X206733497Y-66769737D01*
X206879179Y-66709394D01*
X207010289Y-66621789D01*
X207121789Y-66510289D01*
X207209394Y-66379179D01*
X207209397Y-66379172D01*
X207224179Y-66343484D01*
X207917000Y-66343484D01*
X207917000Y-66495016D01*
X207921093Y-66510292D01*
X207956219Y-66641386D01*
X207989772Y-66699500D01*
X208031985Y-66772615D01*
X208139135Y-66879765D01*
X208270365Y-66955531D01*
X208416734Y-66994750D01*
X208416736Y-66994750D01*
X208568264Y-66994750D01*
X208568266Y-66994750D01*
X208714635Y-66955531D01*
X208845865Y-66879765D01*
X208953015Y-66772615D01*
X209028781Y-66641385D01*
X209068000Y-66495016D01*
X209068000Y-66343484D01*
X209028781Y-66197115D01*
X208953015Y-66065885D01*
X208845865Y-65958735D01*
X208751744Y-65904394D01*
X208714636Y-65882969D01*
X208641450Y-65863359D01*
X208568266Y-65843750D01*
X208416734Y-65843750D01*
X208270363Y-65882969D01*
X208139135Y-65958735D01*
X208139132Y-65958737D01*
X208031987Y-66065882D01*
X208031985Y-66065885D01*
X207956219Y-66197113D01*
X207944508Y-66240821D01*
X207917000Y-66343484D01*
X207224179Y-66343484D01*
X207247201Y-66287905D01*
X207269735Y-66233501D01*
X207269737Y-66233497D01*
X207300500Y-66078842D01*
X207300500Y-65921158D01*
X207300500Y-65921155D01*
X207300499Y-65921153D01*
X207285102Y-65843750D01*
X207269737Y-65766503D01*
X207262901Y-65750000D01*
X207209397Y-65620827D01*
X207209390Y-65620814D01*
X207121789Y-65489711D01*
X207121786Y-65489707D01*
X207010292Y-65378213D01*
X207010288Y-65378210D01*
X206879185Y-65290609D01*
X206879172Y-65290602D01*
X206733501Y-65230264D01*
X206733489Y-65230261D01*
X206578845Y-65199500D01*
X206578842Y-65199500D01*
X206421158Y-65199500D01*
X206421155Y-65199500D01*
X206266510Y-65230261D01*
X206266498Y-65230264D01*
X206120827Y-65290602D01*
X206120814Y-65290609D01*
X205989125Y-65378602D01*
X205922447Y-65399480D01*
X205920234Y-65399500D01*
X205079766Y-65399500D01*
X205012727Y-65379815D01*
X205010875Y-65378602D01*
X204879185Y-65290609D01*
X204879172Y-65290602D01*
X204733501Y-65230264D01*
X204733489Y-65230261D01*
X204578845Y-65199500D01*
X204578842Y-65199500D01*
X204421158Y-65199500D01*
X204421155Y-65199500D01*
X204266510Y-65230261D01*
X204266498Y-65230264D01*
X204120827Y-65290602D01*
X204120814Y-65290609D01*
X203989711Y-65378210D01*
X203989707Y-65378213D01*
X203878213Y-65489707D01*
X203878210Y-65489711D01*
X203790609Y-65620814D01*
X203790602Y-65620827D01*
X203730264Y-65766498D01*
X203730261Y-65766510D01*
X203699500Y-65921153D01*
X203000771Y-65921153D01*
X202971744Y-65904394D01*
X202934636Y-65882969D01*
X202861450Y-65863359D01*
X202788266Y-65843750D01*
X202636734Y-65843750D01*
X202490363Y-65882969D01*
X202359135Y-65958735D01*
X202359132Y-65958737D01*
X202251987Y-66065882D01*
X202251985Y-66065885D01*
X202176219Y-66197113D01*
X202164508Y-66240821D01*
X202137000Y-66343484D01*
X195137125Y-66343484D01*
X196742790Y-64737819D01*
X196804113Y-64704334D01*
X196830471Y-64701500D01*
X205577098Y-64701500D01*
X205624550Y-64710939D01*
X205766498Y-64769735D01*
X205766503Y-64769737D01*
X205921153Y-64800499D01*
X205921156Y-64800500D01*
X205921158Y-64800500D01*
X206078844Y-64800500D01*
X206078845Y-64800499D01*
X206233497Y-64769737D01*
X206379179Y-64709394D01*
X206510289Y-64621789D01*
X206621789Y-64510289D01*
X206709394Y-64379179D01*
X206769737Y-64233497D01*
X206800500Y-64078842D01*
X206800500Y-63921158D01*
X206800500Y-63921155D01*
X206800499Y-63921153D01*
X206769738Y-63766510D01*
X206769737Y-63766503D01*
X206769735Y-63766498D01*
X206709397Y-63620827D01*
X206709390Y-63620814D01*
X206621789Y-63489711D01*
X206621786Y-63489707D01*
X206510292Y-63378213D01*
X206510288Y-63378210D01*
X206379185Y-63290609D01*
X206379172Y-63290602D01*
X206233501Y-63230264D01*
X206233489Y-63230261D01*
X206078845Y-63199500D01*
X206078842Y-63199500D01*
X205921158Y-63199500D01*
X205921153Y-63199500D01*
X205855431Y-63212573D01*
X205785839Y-63206346D01*
X205730662Y-63163482D01*
X205716679Y-63138409D01*
X205709394Y-63120821D01*
X205709393Y-63120819D01*
X205709392Y-63120817D01*
X205621789Y-62989711D01*
X205621786Y-62989707D01*
X205510292Y-62878213D01*
X205510288Y-62878210D01*
X205379185Y-62790609D01*
X205379172Y-62790602D01*
X205233501Y-62730264D01*
X205233489Y-62730261D01*
X205078845Y-62699500D01*
X205078842Y-62699500D01*
X204921158Y-62699500D01*
X204921155Y-62699500D01*
X204766510Y-62730261D01*
X204766498Y-62730264D01*
X204620827Y-62790602D01*
X204620814Y-62790609D01*
X204489125Y-62878602D01*
X204422447Y-62899480D01*
X204420234Y-62899500D01*
X196086669Y-62899500D01*
X196086653Y-62899499D01*
X196079057Y-62899499D01*
X195920943Y-62899499D01*
X195813587Y-62928265D01*
X195768210Y-62940424D01*
X195768209Y-62940425D01*
X195718096Y-62969359D01*
X195718095Y-62969360D01*
X195682853Y-62989707D01*
X195631285Y-63019479D01*
X195631282Y-63019481D01*
X191485339Y-67165425D01*
X191468743Y-67174487D01*
X191455134Y-67187619D01*
X191425636Y-67198025D01*
X191424016Y-67198910D01*
X191421850Y-67199361D01*
X191355432Y-67212573D01*
X191285841Y-67206346D01*
X191230663Y-67163484D01*
X191216679Y-67138409D01*
X191209394Y-67120821D01*
X191209393Y-67120819D01*
X191209392Y-67120817D01*
X191121789Y-66989711D01*
X191121786Y-66989707D01*
X191010292Y-66878213D01*
X191010288Y-66878210D01*
X190879185Y-66790609D01*
X190879172Y-66790602D01*
X190733501Y-66730264D01*
X190733489Y-66730261D01*
X190578845Y-66699500D01*
X190578842Y-66699500D01*
X190421158Y-66699500D01*
X190421155Y-66699500D01*
X190266510Y-66730261D01*
X190266498Y-66730264D01*
X190120827Y-66790602D01*
X190120814Y-66790609D01*
X189989711Y-66878210D01*
X189989707Y-66878213D01*
X189878213Y-66989707D01*
X189878210Y-66989711D01*
X189790609Y-67120814D01*
X189790602Y-67120827D01*
X189730264Y-67266498D01*
X189730261Y-67266510D01*
X189699500Y-67421153D01*
X173807500Y-67421153D01*
X173807500Y-60180716D01*
X173791196Y-60150858D01*
X173796180Y-60081166D01*
X173838052Y-60025233D01*
X173903516Y-60000816D01*
X173912362Y-60000500D01*
X218875500Y-60000500D01*
X218942539Y-60020185D01*
X218988294Y-60072989D01*
X218999500Y-60124500D01*
X218999500Y-139875500D01*
X218979815Y-139942539D01*
X218927011Y-139988294D01*
X218875500Y-139999500D01*
X72624500Y-139999500D01*
X72557461Y-139979815D01*
X72511706Y-139927011D01*
X72500500Y-139875500D01*
X72500500Y-130900013D01*
X75802500Y-130900013D01*
X75802500Y-131250000D01*
X76786814Y-131250000D01*
X76782420Y-131254394D01*
X76729759Y-131345606D01*
X76702500Y-131447339D01*
X76702500Y-131552661D01*
X76729759Y-131654394D01*
X76782420Y-131745606D01*
X76786814Y-131750000D01*
X75802501Y-131750000D01*
X75802501Y-132099986D01*
X75812994Y-132202697D01*
X75868141Y-132369119D01*
X75868143Y-132369124D01*
X75960184Y-132518345D01*
X76084154Y-132642315D01*
X76233375Y-132734356D01*
X76233380Y-132734358D01*
X76399802Y-132789505D01*
X76399809Y-132789506D01*
X76502519Y-132799999D01*
X76852499Y-132799999D01*
X76852500Y-132799998D01*
X76852500Y-131815686D01*
X76856894Y-131820080D01*
X76948106Y-131872741D01*
X77049839Y-131900000D01*
X77155161Y-131900000D01*
X77256894Y-131872741D01*
X77348106Y-131820080D01*
X77352500Y-131815686D01*
X77352500Y-132799999D01*
X77702472Y-132799999D01*
X77702486Y-132799998D01*
X77805197Y-132789505D01*
X77971619Y-132734358D01*
X77971624Y-132734356D01*
X78120845Y-132642315D01*
X78244815Y-132518345D01*
X78336856Y-132369124D01*
X78336858Y-132369119D01*
X78392005Y-132202697D01*
X78392006Y-132202690D01*
X78402499Y-132099986D01*
X78402500Y-132099973D01*
X78402500Y-131750000D01*
X77418186Y-131750000D01*
X77422580Y-131745606D01*
X77475241Y-131654394D01*
X77502500Y-131552661D01*
X77502500Y-131447339D01*
X77475241Y-131345606D01*
X77422580Y-131254394D01*
X77418186Y-131250000D01*
X78402499Y-131250000D01*
X78402499Y-130900028D01*
X78402498Y-130900013D01*
X78392005Y-130797302D01*
X78336858Y-130630880D01*
X78336856Y-130630875D01*
X78244815Y-130481654D01*
X78120845Y-130357684D01*
X77971624Y-130265643D01*
X77971619Y-130265641D01*
X77805197Y-130210494D01*
X77805190Y-130210493D01*
X77702486Y-130200000D01*
X77352500Y-130200000D01*
X77352500Y-131184314D01*
X77348106Y-131179920D01*
X77256894Y-131127259D01*
X77155161Y-131100000D01*
X77049839Y-131100000D01*
X76948106Y-131127259D01*
X76856894Y-131179920D01*
X76852500Y-131184314D01*
X76852500Y-130200000D01*
X76502528Y-130200000D01*
X76502512Y-130200001D01*
X76399802Y-130210494D01*
X76233380Y-130265641D01*
X76233375Y-130265643D01*
X76084154Y-130357684D01*
X75960184Y-130481654D01*
X75868143Y-130630875D01*
X75868141Y-130630880D01*
X75812994Y-130797302D01*
X75812993Y-130797309D01*
X75802500Y-130900013D01*
X72500500Y-130900013D01*
X72500500Y-123777648D01*
X75802000Y-123777648D01*
X75802000Y-123982351D01*
X75834022Y-124184534D01*
X75897281Y-124379223D01*
X75990215Y-124561613D01*
X76110528Y-124727213D01*
X76255286Y-124871971D01*
X76410249Y-124984556D01*
X76420890Y-124992287D01*
X76537107Y-125051503D01*
X76603276Y-125085218D01*
X76603278Y-125085218D01*
X76603281Y-125085220D01*
X76707637Y-125119127D01*
X76797965Y-125148477D01*
X76899057Y-125164488D01*
X77000148Y-125180500D01*
X77000149Y-125180500D01*
X77204851Y-125180500D01*
X77204852Y-125180500D01*
X77407034Y-125148477D01*
X77601719Y-125085220D01*
X77784110Y-124992287D01*
X77877090Y-124924732D01*
X77949713Y-124871971D01*
X77949715Y-124871968D01*
X77949719Y-124871966D01*
X78094466Y-124727219D01*
X78094468Y-124727215D01*
X78094471Y-124727213D01*
X78147232Y-124654590D01*
X78214787Y-124561610D01*
X78307720Y-124379219D01*
X78370977Y-124184534D01*
X78403000Y-123982352D01*
X78403000Y-123777648D01*
X78370977Y-123575466D01*
X78307720Y-123380781D01*
X78307718Y-123380778D01*
X78307718Y-123380776D01*
X78274003Y-123314607D01*
X78214787Y-123198390D01*
X78207056Y-123187749D01*
X78094471Y-123032786D01*
X77949713Y-122888028D01*
X77784113Y-122767715D01*
X77784112Y-122767714D01*
X77784110Y-122767713D01*
X77727153Y-122738691D01*
X77601723Y-122674781D01*
X77407034Y-122611522D01*
X77232495Y-122583878D01*
X77204852Y-122579500D01*
X77000148Y-122579500D01*
X76975829Y-122583351D01*
X76797965Y-122611522D01*
X76603276Y-122674781D01*
X76420886Y-122767715D01*
X76255286Y-122888028D01*
X76110528Y-123032786D01*
X75990215Y-123198386D01*
X75897281Y-123380776D01*
X75834022Y-123575465D01*
X75802000Y-123777648D01*
X72500500Y-123777648D01*
X72500500Y-97091577D01*
X112069500Y-97091577D01*
X112069500Y-97288422D01*
X112100290Y-97482826D01*
X112161117Y-97670029D01*
X112193452Y-97733489D01*
X112250476Y-97845405D01*
X112366172Y-98004646D01*
X112505354Y-98143828D01*
X112612479Y-98221659D01*
X112664596Y-98259525D01*
X112841763Y-98349795D01*
X112892560Y-98397769D01*
X112909355Y-98465590D01*
X112886818Y-98531725D01*
X112841764Y-98570765D01*
X112664859Y-98660902D01*
X112629873Y-98686320D01*
X112629872Y-98686320D01*
X113190590Y-99247037D01*
X113127007Y-99264075D01*
X113012993Y-99329901D01*
X112919901Y-99422993D01*
X112854075Y-99537007D01*
X112837037Y-99600590D01*
X112276320Y-99039872D01*
X112276320Y-99039873D01*
X112250902Y-99074859D01*
X112250899Y-99074863D01*
X112161582Y-99250161D01*
X112100778Y-99437294D01*
X112070000Y-99631617D01*
X112070000Y-99828382D01*
X112100778Y-100022705D01*
X112161581Y-100209835D01*
X112250905Y-100385145D01*
X112276319Y-100420125D01*
X112276320Y-100420125D01*
X112837037Y-99859408D01*
X112854075Y-99922993D01*
X112919901Y-100037007D01*
X113012993Y-100130099D01*
X113127007Y-100195925D01*
X113190590Y-100212962D01*
X112629873Y-100773677D01*
X112629873Y-100773678D01*
X112664858Y-100799096D01*
X112841764Y-100889234D01*
X112892560Y-100937209D01*
X112909355Y-101005030D01*
X112886818Y-101071164D01*
X112841764Y-101110204D01*
X112664594Y-101200476D01*
X112573741Y-101266485D01*
X112505354Y-101316172D01*
X112505352Y-101316174D01*
X112505351Y-101316174D01*
X112366174Y-101455351D01*
X112366174Y-101455352D01*
X112366172Y-101455354D01*
X112316485Y-101523741D01*
X112250476Y-101614594D01*
X112161117Y-101789970D01*
X112100290Y-101977173D01*
X112069500Y-102171577D01*
X112069500Y-102368422D01*
X112100290Y-102562826D01*
X112161117Y-102750029D01*
X112250476Y-102925405D01*
X112366172Y-103084646D01*
X112505354Y-103223828D01*
X112664595Y-103339524D01*
X112787992Y-103402397D01*
X112841213Y-103429515D01*
X112892009Y-103477489D01*
X112908804Y-103545310D01*
X112886267Y-103611445D01*
X112841213Y-103650485D01*
X112664594Y-103740476D01*
X112573741Y-103806485D01*
X112505354Y-103856172D01*
X112505352Y-103856174D01*
X112505351Y-103856174D01*
X112366174Y-103995351D01*
X112366174Y-103995352D01*
X112366172Y-103995354D01*
X112316485Y-104063741D01*
X112250476Y-104154594D01*
X112161117Y-104329970D01*
X112100290Y-104517173D01*
X112069500Y-104711577D01*
X112069500Y-104908422D01*
X112100290Y-105102826D01*
X112161117Y-105290029D01*
X112227931Y-105421158D01*
X112250476Y-105465405D01*
X112366172Y-105624646D01*
X112505354Y-105763828D01*
X112664595Y-105879524D01*
X112747455Y-105921743D01*
X112839970Y-105968882D01*
X112839972Y-105968882D01*
X112839975Y-105968884D01*
X112940317Y-106001487D01*
X113027173Y-106029709D01*
X113221578Y-106060500D01*
X113221583Y-106060500D01*
X113418422Y-106060500D01*
X113612826Y-106029709D01*
X113800025Y-105968884D01*
X113975405Y-105879524D01*
X114134646Y-105763828D01*
X114273828Y-105624646D01*
X114389524Y-105465405D01*
X114478884Y-105290025D01*
X114539709Y-105102826D01*
X114570500Y-104908422D01*
X114570500Y-104711577D01*
X114539709Y-104517173D01*
X114478882Y-104329970D01*
X114389523Y-104154594D01*
X114273828Y-103995354D01*
X114134646Y-103856172D01*
X114055025Y-103798324D01*
X113975403Y-103740474D01*
X113798787Y-103650485D01*
X113747990Y-103602511D01*
X113731195Y-103534690D01*
X113753732Y-103468555D01*
X113798787Y-103429515D01*
X113975403Y-103339525D01*
X113975402Y-103339525D01*
X113975405Y-103339524D01*
X114134646Y-103223828D01*
X114273828Y-103084646D01*
X114389524Y-102925405D01*
X114478884Y-102750025D01*
X114539709Y-102562826D01*
X114570500Y-102368422D01*
X114570500Y-102171577D01*
X114539709Y-101977173D01*
X114478882Y-101789970D01*
X114389523Y-101614594D01*
X114273828Y-101455354D01*
X114134646Y-101316172D01*
X113975405Y-101200476D01*
X113800025Y-101111116D01*
X113800024Y-101111115D01*
X113798235Y-101110204D01*
X113747439Y-101062230D01*
X113730644Y-100994409D01*
X113753181Y-100928274D01*
X113798236Y-100889234D01*
X113975141Y-100799097D01*
X114010125Y-100773678D01*
X114010126Y-100773678D01*
X113449410Y-100212962D01*
X113512993Y-100195925D01*
X113627007Y-100130099D01*
X113720099Y-100037007D01*
X113785925Y-99922993D01*
X113802962Y-99859410D01*
X114363678Y-100420126D01*
X114363678Y-100420125D01*
X114389095Y-100385143D01*
X114478418Y-100209835D01*
X114539221Y-100022705D01*
X114570000Y-99828382D01*
X114570000Y-99631617D01*
X114539221Y-99437294D01*
X114478418Y-99250164D01*
X114389096Y-99074858D01*
X114363678Y-99039873D01*
X114363677Y-99039873D01*
X113802962Y-99600589D01*
X113785925Y-99537007D01*
X113720099Y-99422993D01*
X113627007Y-99329901D01*
X113512993Y-99264075D01*
X113449409Y-99247037D01*
X114010125Y-98686320D01*
X114010125Y-98686319D01*
X113975145Y-98660905D01*
X113798235Y-98570765D01*
X113747439Y-98522790D01*
X113730644Y-98454969D01*
X113753182Y-98388834D01*
X113798236Y-98349795D01*
X113800022Y-98348884D01*
X113800025Y-98348884D01*
X113975405Y-98259524D01*
X114134646Y-98143828D01*
X114273828Y-98004646D01*
X114389524Y-97845405D01*
X114478884Y-97670025D01*
X114539709Y-97482826D01*
X114549477Y-97421153D01*
X114570500Y-97288422D01*
X114570500Y-97091577D01*
X114539709Y-96897173D01*
X114505081Y-96790602D01*
X114478884Y-96709975D01*
X114478882Y-96709972D01*
X114478882Y-96709970D01*
X114389523Y-96534594D01*
X114273828Y-96375354D01*
X114134646Y-96236172D01*
X113975405Y-96120476D01*
X113800029Y-96031117D01*
X113612826Y-95970290D01*
X113418422Y-95939500D01*
X113418417Y-95939500D01*
X113221583Y-95939500D01*
X113221578Y-95939500D01*
X113027173Y-95970290D01*
X112839970Y-96031117D01*
X112664594Y-96120476D01*
X112600200Y-96167262D01*
X112505354Y-96236172D01*
X112505352Y-96236174D01*
X112505351Y-96236174D01*
X112366174Y-96375351D01*
X112366174Y-96375352D01*
X112366172Y-96375354D01*
X112332897Y-96421153D01*
X112250476Y-96534594D01*
X112161117Y-96709970D01*
X112100290Y-96897173D01*
X112069500Y-97091577D01*
X72500500Y-97091577D01*
X72500500Y-79505646D01*
X76339500Y-79505646D01*
X76339500Y-79734354D01*
X76346069Y-79775826D01*
X76375278Y-79960246D01*
X76375278Y-79960249D01*
X76445950Y-80177755D01*
X76504264Y-80292202D01*
X76549783Y-80381538D01*
X76684214Y-80566566D01*
X76845934Y-80728286D01*
X77030962Y-80862717D01*
X77196039Y-80946828D01*
X77234744Y-80966549D01*
X77452251Y-81037221D01*
X77452252Y-81037221D01*
X77452255Y-81037222D01*
X77678146Y-81073000D01*
X77678147Y-81073000D01*
X77906853Y-81073000D01*
X77906854Y-81073000D01*
X78132745Y-81037222D01*
X78132748Y-81037221D01*
X78132749Y-81037221D01*
X78350255Y-80966549D01*
X78350255Y-80966548D01*
X78350258Y-80966548D01*
X78554038Y-80862717D01*
X78739066Y-80728286D01*
X78900786Y-80566566D01*
X78962183Y-80482059D01*
X79017512Y-80439396D01*
X79087125Y-80433417D01*
X79148920Y-80466023D01*
X79162814Y-80482056D01*
X79224214Y-80566566D01*
X79385934Y-80728286D01*
X79570962Y-80862717D01*
X79736039Y-80946828D01*
X79774744Y-80966549D01*
X79992251Y-81037221D01*
X79992252Y-81037221D01*
X79992255Y-81037222D01*
X80218146Y-81073000D01*
X80218147Y-81073000D01*
X80446853Y-81073000D01*
X80446854Y-81073000D01*
X80672745Y-81037222D01*
X80672748Y-81037221D01*
X80672749Y-81037221D01*
X80890255Y-80966549D01*
X80890255Y-80966548D01*
X80890258Y-80966548D01*
X81094038Y-80862717D01*
X81279066Y-80728286D01*
X81440786Y-80566566D01*
X81502491Y-80481635D01*
X81557821Y-80438970D01*
X81627434Y-80432991D01*
X81666790Y-80453756D01*
X81683847Y-80455099D01*
X82307887Y-79831059D01*
X82313389Y-79851591D01*
X82392381Y-79988408D01*
X82504092Y-80100119D01*
X82640909Y-80179111D01*
X82661439Y-80184612D01*
X82037399Y-80808651D01*
X82111225Y-80862288D01*
X82111231Y-80862292D01*
X82314931Y-80966082D01*
X82532375Y-81036734D01*
X82758187Y-81072500D01*
X82986813Y-81072500D01*
X83212624Y-81036734D01*
X83212625Y-81036734D01*
X83430068Y-80966082D01*
X83633776Y-80862288D01*
X83707598Y-80808651D01*
X83083559Y-80184612D01*
X83104091Y-80179111D01*
X83240908Y-80100119D01*
X83352619Y-79988408D01*
X83431611Y-79851591D01*
X83437112Y-79831060D01*
X84061151Y-80455099D01*
X84078003Y-80453772D01*
X84097199Y-80438970D01*
X84166812Y-80432989D01*
X84228607Y-80465594D01*
X84242507Y-80481634D01*
X84262678Y-80509397D01*
X84304214Y-80566566D01*
X84465934Y-80728286D01*
X84650962Y-80862717D01*
X84816039Y-80946828D01*
X84854744Y-80966549D01*
X85072251Y-81037221D01*
X85072252Y-81037221D01*
X85072255Y-81037222D01*
X85298146Y-81073000D01*
X85298147Y-81073000D01*
X85526853Y-81073000D01*
X85526854Y-81073000D01*
X85752745Y-81037222D01*
X85752748Y-81037221D01*
X85752749Y-81037221D01*
X85970255Y-80966549D01*
X85970255Y-80966548D01*
X85970258Y-80966548D01*
X86174038Y-80862717D01*
X86359066Y-80728286D01*
X86520786Y-80566566D01*
X86655217Y-80381538D01*
X86759048Y-80177758D01*
X86788612Y-80086768D01*
X86829721Y-79960249D01*
X86829721Y-79960248D01*
X86829722Y-79960245D01*
X86865500Y-79734354D01*
X86865500Y-79505646D01*
X86829722Y-79279755D01*
X86829721Y-79279751D01*
X86829721Y-79279750D01*
X86759049Y-79062244D01*
X86697201Y-78940860D01*
X86655217Y-78858462D01*
X86520786Y-78673434D01*
X86359066Y-78511714D01*
X86174038Y-78377283D01*
X85970255Y-78273450D01*
X85752748Y-78202778D01*
X85583326Y-78175944D01*
X85526854Y-78167000D01*
X85298146Y-78167000D01*
X85222849Y-78178926D01*
X85072253Y-78202778D01*
X85072250Y-78202778D01*
X84854744Y-78273450D01*
X84650961Y-78377283D01*
X84576551Y-78431346D01*
X84465934Y-78511714D01*
X84465932Y-78511716D01*
X84465931Y-78511716D01*
X84304216Y-78673431D01*
X84304209Y-78673440D01*
X84242507Y-78758364D01*
X84187177Y-78801030D01*
X84117563Y-78807008D01*
X84078210Y-78786242D01*
X84061151Y-78784899D01*
X83437112Y-79408939D01*
X83431611Y-79388409D01*
X83352619Y-79251592D01*
X83240908Y-79139881D01*
X83104091Y-79060889D01*
X83083558Y-79055387D01*
X83707599Y-78431347D01*
X83633776Y-78377711D01*
X83430068Y-78273917D01*
X83212624Y-78203265D01*
X82986813Y-78167500D01*
X82758187Y-78167500D01*
X82532375Y-78203265D01*
X82532374Y-78203265D01*
X82314931Y-78273917D01*
X82111219Y-78377713D01*
X82037400Y-78431346D01*
X82037399Y-78431347D01*
X82661440Y-79055387D01*
X82640909Y-79060889D01*
X82504092Y-79139881D01*
X82392381Y-79251592D01*
X82313389Y-79388409D01*
X82307887Y-79408940D01*
X81683847Y-78784899D01*
X81666990Y-78786226D01*
X81647793Y-78801029D01*
X81578179Y-78807007D01*
X81516385Y-78774399D01*
X81502490Y-78758362D01*
X81440788Y-78673437D01*
X81440783Y-78673431D01*
X81279068Y-78511716D01*
X81279066Y-78511714D01*
X81094038Y-78377283D01*
X80890255Y-78273450D01*
X80672748Y-78202778D01*
X80503326Y-78175944D01*
X80446854Y-78167000D01*
X80218146Y-78167000D01*
X80142849Y-78178926D01*
X79992253Y-78202778D01*
X79992250Y-78202778D01*
X79774744Y-78273450D01*
X79570961Y-78377283D01*
X79496551Y-78431346D01*
X79385934Y-78511714D01*
X79385932Y-78511716D01*
X79385931Y-78511716D01*
X79224215Y-78673432D01*
X79162818Y-78757938D01*
X79107487Y-78800603D01*
X79037874Y-78806582D01*
X78976079Y-78773976D01*
X78962182Y-78757938D01*
X78900788Y-78673437D01*
X78900786Y-78673434D01*
X78739066Y-78511714D01*
X78554038Y-78377283D01*
X78350255Y-78273450D01*
X78132748Y-78202778D01*
X77963326Y-78175944D01*
X77906854Y-78167000D01*
X77678146Y-78167000D01*
X77602849Y-78178926D01*
X77452253Y-78202778D01*
X77452250Y-78202778D01*
X77234744Y-78273450D01*
X77030961Y-78377283D01*
X76956551Y-78431346D01*
X76845934Y-78511714D01*
X76845932Y-78511716D01*
X76845931Y-78511716D01*
X76684216Y-78673431D01*
X76684216Y-78673432D01*
X76684214Y-78673434D01*
X76684212Y-78673437D01*
X76549783Y-78858461D01*
X76445950Y-79062244D01*
X76375278Y-79279750D01*
X76375278Y-79279753D01*
X76358069Y-79388409D01*
X76339500Y-79505646D01*
X72500500Y-79505646D01*
X72500500Y-74921153D01*
X89699500Y-74921153D01*
X89699500Y-75078846D01*
X89730261Y-75233489D01*
X89730264Y-75233501D01*
X89790602Y-75379172D01*
X89790609Y-75379185D01*
X89878210Y-75510288D01*
X89878213Y-75510292D01*
X89989707Y-75621786D01*
X89989711Y-75621789D01*
X90120814Y-75709390D01*
X90120827Y-75709397D01*
X90266498Y-75769735D01*
X90266503Y-75769737D01*
X90379165Y-75792147D01*
X90421153Y-75800499D01*
X90421156Y-75800500D01*
X90421158Y-75800500D01*
X90578844Y-75800500D01*
X90578845Y-75800499D01*
X90733497Y-75769737D01*
X90879179Y-75709394D01*
X90936044Y-75671397D01*
X91002721Y-75650520D01*
X91004935Y-75650500D01*
X92423457Y-75650500D01*
X92490496Y-75670185D01*
X92536251Y-75722989D01*
X92546195Y-75792147D01*
X92533941Y-75830796D01*
X92515584Y-75866821D01*
X92515581Y-75866828D01*
X92459428Y-76039649D01*
X92459428Y-76039652D01*
X92431000Y-76219139D01*
X92431000Y-76400860D01*
X92459428Y-76580347D01*
X92459428Y-76580350D01*
X92515581Y-76753171D01*
X92515582Y-76753172D01*
X92515583Y-76753174D01*
X92598083Y-76915090D01*
X92704897Y-77062106D01*
X92833394Y-77190603D01*
X92980410Y-77297417D01*
X93142326Y-77379917D01*
X93142328Y-77379918D01*
X93303529Y-77432294D01*
X93315154Y-77436072D01*
X93450614Y-77457527D01*
X93513749Y-77487456D01*
X93550680Y-77546768D01*
X93549682Y-77616630D01*
X93511072Y-77674863D01*
X93450614Y-77702473D01*
X93315152Y-77723928D01*
X93315149Y-77723928D01*
X93142328Y-77780081D01*
X93142325Y-77780083D01*
X92980409Y-77862583D01*
X92896530Y-77923525D01*
X92833394Y-77969397D01*
X92833392Y-77969399D01*
X92833391Y-77969399D01*
X92704899Y-78097891D01*
X92704899Y-78097892D01*
X92704897Y-78097894D01*
X92671274Y-78144172D01*
X92598083Y-78244909D01*
X92515583Y-78406825D01*
X92515581Y-78406828D01*
X92459428Y-78579649D01*
X92459428Y-78579652D01*
X92431000Y-78759139D01*
X92431000Y-78940860D01*
X92459428Y-79120347D01*
X92459428Y-79120350D01*
X92515581Y-79293171D01*
X92515583Y-79293174D01*
X92598083Y-79455090D01*
X92704897Y-79602106D01*
X92833394Y-79730603D01*
X92980410Y-79837417D01*
X93142326Y-79919917D01*
X93142328Y-79919918D01*
X93303529Y-79972294D01*
X93315154Y-79976072D01*
X93450614Y-79997527D01*
X93513749Y-80027456D01*
X93550680Y-80086768D01*
X93549682Y-80156630D01*
X93511072Y-80214863D01*
X93450614Y-80242473D01*
X93315152Y-80263928D01*
X93315149Y-80263928D01*
X93142328Y-80320081D01*
X93142325Y-80320083D01*
X92980409Y-80402583D01*
X92909977Y-80453756D01*
X92833394Y-80509397D01*
X92833392Y-80509399D01*
X92833391Y-80509399D01*
X92704899Y-80637891D01*
X92704899Y-80637892D01*
X92704897Y-80637894D01*
X92668408Y-80688116D01*
X92598083Y-80784909D01*
X92515583Y-80946825D01*
X92515581Y-80946828D01*
X92459428Y-81119649D01*
X92459428Y-81119652D01*
X92431000Y-81299139D01*
X92431000Y-81480860D01*
X92459428Y-81660347D01*
X92459428Y-81660350D01*
X92515581Y-81833171D01*
X92515583Y-81833174D01*
X92598083Y-81995090D01*
X92704897Y-82142106D01*
X92833394Y-82270603D01*
X92980410Y-82377417D01*
X93142326Y-82459917D01*
X93142328Y-82459918D01*
X93297353Y-82510288D01*
X93315154Y-82516072D01*
X93494639Y-82544500D01*
X93494640Y-82544500D01*
X93676360Y-82544500D01*
X93676361Y-82544500D01*
X93738003Y-82534736D01*
X93807295Y-82543690D01*
X93845082Y-82569528D01*
X97280825Y-86005272D01*
X97280826Y-86005273D01*
X97280829Y-86005275D01*
X97280831Y-86005277D01*
X97387373Y-86076465D01*
X97505756Y-86125501D01*
X97505760Y-86125501D01*
X97505761Y-86125502D01*
X97631428Y-86150500D01*
X97631431Y-86150500D01*
X97759569Y-86150500D01*
X116179192Y-86150500D01*
X116246231Y-86170185D01*
X116266873Y-86186819D01*
X128585325Y-98505272D01*
X128585332Y-98505278D01*
X128683342Y-98570765D01*
X128691874Y-98576466D01*
X128761221Y-98605189D01*
X128810256Y-98625501D01*
X128810259Y-98625501D01*
X128810260Y-98625502D01*
X128935928Y-98650500D01*
X128935931Y-98650500D01*
X128935932Y-98650500D01*
X129064069Y-98650500D01*
X147550846Y-98650500D01*
X147617885Y-98670185D01*
X147663640Y-98722989D01*
X147673584Y-98792147D01*
X147644559Y-98855703D01*
X147638527Y-98862181D01*
X141687527Y-104813181D01*
X141626204Y-104846666D01*
X141599846Y-104849500D01*
X122004935Y-104849500D01*
X121937896Y-104829815D01*
X121936090Y-104828633D01*
X121879179Y-104790606D01*
X121879172Y-104790602D01*
X121733501Y-104730264D01*
X121733489Y-104730261D01*
X121578845Y-104699500D01*
X121578842Y-104699500D01*
X121421158Y-104699500D01*
X121421155Y-104699500D01*
X121266510Y-104730261D01*
X121266498Y-104730264D01*
X121120827Y-104790602D01*
X121120814Y-104790609D01*
X120989711Y-104878210D01*
X120989707Y-104878213D01*
X120878213Y-104989707D01*
X120878210Y-104989711D01*
X120790609Y-105120814D01*
X120790602Y-105120827D01*
X120730264Y-105266498D01*
X120730261Y-105266510D01*
X120699500Y-105421153D01*
X120699500Y-105578846D01*
X120730261Y-105733489D01*
X120730264Y-105733501D01*
X120790602Y-105879172D01*
X120790609Y-105879185D01*
X120878210Y-106010288D01*
X120878213Y-106010292D01*
X120989707Y-106121786D01*
X120989711Y-106121789D01*
X121120814Y-106209390D01*
X121120827Y-106209397D01*
X121258695Y-106266503D01*
X121266503Y-106269737D01*
X121379165Y-106292147D01*
X121421153Y-106300499D01*
X121421156Y-106300500D01*
X121421158Y-106300500D01*
X121578844Y-106300500D01*
X121578845Y-106300499D01*
X121733497Y-106269737D01*
X121879179Y-106209394D01*
X121936044Y-106171397D01*
X122002721Y-106150520D01*
X122004935Y-106150500D01*
X122602243Y-106150500D01*
X122669282Y-106170185D01*
X122715037Y-106222989D01*
X122724981Y-106292147D01*
X122723860Y-106298692D01*
X122699500Y-106421155D01*
X122699500Y-106578846D01*
X122730261Y-106733489D01*
X122730264Y-106733501D01*
X122790602Y-106879172D01*
X122790609Y-106879185D01*
X122878210Y-107010288D01*
X122878213Y-107010292D01*
X122989707Y-107121786D01*
X122989711Y-107121789D01*
X123120814Y-107209390D01*
X123120827Y-107209397D01*
X123266498Y-107269735D01*
X123266503Y-107269737D01*
X123421153Y-107300499D01*
X123421156Y-107300500D01*
X123421158Y-107300500D01*
X123578844Y-107300500D01*
X123578845Y-107300499D01*
X123733497Y-107269737D01*
X123879179Y-107209394D01*
X123936044Y-107171397D01*
X124002721Y-107150520D01*
X124004935Y-107150500D01*
X141693245Y-107150500D01*
X141777789Y-107133682D01*
X141818918Y-107125501D01*
X141937301Y-107076465D01*
X142043843Y-107005277D01*
X147998829Y-101050291D01*
X152627967Y-96421153D01*
X182199500Y-96421153D01*
X182199500Y-96578846D01*
X182230261Y-96733489D01*
X182230264Y-96733501D01*
X182290602Y-96879172D01*
X182290609Y-96879185D01*
X182378210Y-97010288D01*
X182378213Y-97010292D01*
X182489710Y-97121789D01*
X182620815Y-97209390D01*
X182620821Y-97209394D01*
X182644475Y-97219191D01*
X182684703Y-97246071D01*
X183417049Y-97978416D01*
X183521584Y-98082951D01*
X183521587Y-98082953D01*
X183521588Y-98082954D01*
X183644503Y-98165083D01*
X183644506Y-98165085D01*
X183694665Y-98185861D01*
X183701080Y-98188518D01*
X183781088Y-98221659D01*
X183897241Y-98244763D01*
X183920380Y-98249365D01*
X183926081Y-98250500D01*
X183926082Y-98250500D01*
X183926083Y-98250500D01*
X184073918Y-98250500D01*
X193695396Y-98250500D01*
X193742844Y-98259937D01*
X193766503Y-98269737D01*
X193766508Y-98269738D01*
X193766511Y-98269739D01*
X193921153Y-98300499D01*
X193921156Y-98300500D01*
X193921158Y-98300500D01*
X194078844Y-98300500D01*
X194078845Y-98300499D01*
X194233497Y-98269737D01*
X194379179Y-98209394D01*
X194510289Y-98121789D01*
X194621789Y-98010289D01*
X194709394Y-97879179D01*
X194769737Y-97733497D01*
X194800500Y-97578842D01*
X194800500Y-97421158D01*
X194800500Y-97421155D01*
X194800499Y-97421153D01*
X194769738Y-97266510D01*
X194769737Y-97266503D01*
X194769735Y-97266498D01*
X194709397Y-97120827D01*
X194709390Y-97120814D01*
X194621789Y-96989711D01*
X194621786Y-96989707D01*
X194510292Y-96878213D01*
X194510288Y-96878210D01*
X194379185Y-96790609D01*
X194379172Y-96790602D01*
X194233501Y-96730264D01*
X194233489Y-96730261D01*
X194078845Y-96699500D01*
X194078842Y-96699500D01*
X193921158Y-96699500D01*
X193921155Y-96699500D01*
X193766511Y-96730260D01*
X193766506Y-96730262D01*
X193766504Y-96730262D01*
X193766503Y-96730263D01*
X193742844Y-96740062D01*
X193695396Y-96749500D01*
X184362229Y-96749500D01*
X184295190Y-96729815D01*
X184274548Y-96713181D01*
X183746071Y-96184703D01*
X183719191Y-96144475D01*
X183709394Y-96120821D01*
X183649455Y-96031116D01*
X183621789Y-95989710D01*
X183510292Y-95878213D01*
X183510288Y-95878210D01*
X183379185Y-95790609D01*
X183379172Y-95790602D01*
X183233501Y-95730264D01*
X183233489Y-95730261D01*
X183078845Y-95699500D01*
X183078842Y-95699500D01*
X182921158Y-95699500D01*
X182921155Y-95699500D01*
X182766510Y-95730261D01*
X182766498Y-95730264D01*
X182620827Y-95790602D01*
X182620814Y-95790609D01*
X182489711Y-95878210D01*
X182489707Y-95878213D01*
X182378213Y-95989707D01*
X182378210Y-95989711D01*
X182290609Y-96120814D01*
X182290602Y-96120827D01*
X182230264Y-96266498D01*
X182230261Y-96266510D01*
X182199500Y-96421153D01*
X152627967Y-96421153D01*
X152721735Y-96327385D01*
X154005273Y-95043846D01*
X154005272Y-95043846D01*
X154005276Y-95043843D01*
X154076465Y-94937301D01*
X154125501Y-94818918D01*
X154143136Y-94730263D01*
X154150500Y-94693245D01*
X154150500Y-89578269D01*
X154170185Y-89511230D01*
X154222989Y-89465475D01*
X154292147Y-89455531D01*
X154355703Y-89484556D01*
X154374292Y-89505626D01*
X154374347Y-89505581D01*
X154375609Y-89507119D01*
X154377603Y-89509379D01*
X154378212Y-89510291D01*
X154489707Y-89621786D01*
X154489711Y-89621789D01*
X154620814Y-89709390D01*
X154620827Y-89709397D01*
X154766498Y-89769735D01*
X154766503Y-89769737D01*
X154921153Y-89800499D01*
X154921156Y-89800500D01*
X154921158Y-89800500D01*
X155078844Y-89800500D01*
X155078845Y-89800499D01*
X155233497Y-89769737D01*
X155379179Y-89709394D01*
X155510289Y-89621789D01*
X155621789Y-89510289D01*
X155709394Y-89379179D01*
X155769737Y-89233497D01*
X155791240Y-89125396D01*
X155823625Y-89063485D01*
X155884340Y-89028911D01*
X155954110Y-89032650D01*
X156000538Y-89061906D01*
X160253927Y-93315295D01*
X160280807Y-93355523D01*
X160290604Y-93379175D01*
X160290609Y-93379185D01*
X160378210Y-93510288D01*
X160378213Y-93510292D01*
X160489707Y-93621786D01*
X160489711Y-93621789D01*
X160620814Y-93709390D01*
X160620827Y-93709397D01*
X160720060Y-93750500D01*
X160766503Y-93769737D01*
X160921153Y-93800499D01*
X160921156Y-93800500D01*
X160921158Y-93800500D01*
X161078844Y-93800500D01*
X161078845Y-93800499D01*
X161233497Y-93769737D01*
X161379179Y-93709394D01*
X161510289Y-93621789D01*
X161621789Y-93510289D01*
X161709394Y-93379179D01*
X161709396Y-93379175D01*
X161709397Y-93379173D01*
X161754050Y-93271368D01*
X161758706Y-93260127D01*
X161802546Y-93205724D01*
X161825815Y-93193019D01*
X161944860Y-93143710D01*
X161944863Y-93143708D01*
X161944866Y-93143707D01*
X162075976Y-93056102D01*
X162187476Y-92944602D01*
X162275081Y-92813492D01*
X162335424Y-92667810D01*
X162366187Y-92513155D01*
X162366187Y-92355471D01*
X162366187Y-92355468D01*
X162366186Y-92355466D01*
X162335424Y-92200816D01*
X162302426Y-92121150D01*
X174199500Y-92121150D01*
X174199500Y-92278843D01*
X174230261Y-92433486D01*
X174230264Y-92433498D01*
X174279575Y-92552546D01*
X174287044Y-92622015D01*
X174279575Y-92647450D01*
X174230264Y-92766498D01*
X174230261Y-92766510D01*
X174199500Y-92921153D01*
X174199500Y-93078846D01*
X174230261Y-93233489D01*
X174230264Y-93233501D01*
X174290602Y-93379172D01*
X174290609Y-93379185D01*
X174378210Y-93510288D01*
X174378213Y-93510292D01*
X174489707Y-93621786D01*
X174489711Y-93621789D01*
X174620814Y-93709390D01*
X174620827Y-93709397D01*
X174720060Y-93750500D01*
X174766503Y-93769737D01*
X174921153Y-93800499D01*
X174921156Y-93800500D01*
X174921158Y-93800500D01*
X175078844Y-93800500D01*
X175078845Y-93800499D01*
X175155152Y-93785320D01*
X175233488Y-93769739D01*
X175233489Y-93769738D01*
X175233497Y-93769737D01*
X175257155Y-93759937D01*
X175304604Y-93750500D01*
X178137770Y-93750500D01*
X178204809Y-93770185D01*
X178225451Y-93786819D01*
X178753927Y-94315295D01*
X178780806Y-94355521D01*
X178790606Y-94379179D01*
X178790607Y-94379181D01*
X178878207Y-94510284D01*
X178878213Y-94510292D01*
X178989707Y-94621786D01*
X178989711Y-94621789D01*
X179120814Y-94709390D01*
X179120827Y-94709397D01*
X179266498Y-94769735D01*
X179266503Y-94769737D01*
X179371398Y-94790602D01*
X179421153Y-94800499D01*
X179421156Y-94800500D01*
X179421158Y-94800500D01*
X179578844Y-94800500D01*
X179578845Y-94800499D01*
X179733497Y-94769737D01*
X179879179Y-94709394D01*
X180010289Y-94621789D01*
X180121789Y-94510289D01*
X180209394Y-94379179D01*
X180269737Y-94233497D01*
X180300500Y-94078842D01*
X180300500Y-93921158D01*
X180300500Y-93921155D01*
X180300499Y-93921153D01*
X180274531Y-93790606D01*
X180269737Y-93766503D01*
X180267018Y-93759938D01*
X180209397Y-93620827D01*
X180209390Y-93620814D01*
X180121789Y-93489711D01*
X180121786Y-93489707D01*
X180010292Y-93378213D01*
X180010284Y-93378207D01*
X179879181Y-93290607D01*
X179879179Y-93290606D01*
X179855521Y-93280806D01*
X179815295Y-93253927D01*
X179623546Y-93062178D01*
X179590061Y-93000855D01*
X179595045Y-92931163D01*
X179636917Y-92875230D01*
X179702381Y-92850813D01*
X179711227Y-92850497D01*
X183205162Y-92850497D01*
X183272201Y-92870182D01*
X183308264Y-92905606D01*
X183378210Y-93010289D01*
X183489707Y-93121786D01*
X183489711Y-93121789D01*
X183620814Y-93209390D01*
X183620827Y-93209397D01*
X183766498Y-93269735D01*
X183766503Y-93269737D01*
X183921153Y-93300499D01*
X183921156Y-93300500D01*
X183921158Y-93300500D01*
X184078844Y-93300500D01*
X184078845Y-93300499D01*
X184233497Y-93269737D01*
X184379179Y-93209394D01*
X184510289Y-93121789D01*
X184621789Y-93010289D01*
X184709394Y-92879179D01*
X184721144Y-92850813D01*
X184736605Y-92813485D01*
X184769737Y-92733497D01*
X184800500Y-92578842D01*
X184800500Y-92421158D01*
X184800500Y-92421155D01*
X184800499Y-92421153D01*
X184787433Y-92355466D01*
X184769737Y-92266503D01*
X184726664Y-92162514D01*
X184709397Y-92120827D01*
X184709390Y-92120814D01*
X184621789Y-91989711D01*
X184621786Y-91989707D01*
X184510292Y-91878213D01*
X184510288Y-91878210D01*
X184379185Y-91790609D01*
X184379172Y-91790602D01*
X184233501Y-91730264D01*
X184233489Y-91730261D01*
X184164228Y-91716484D01*
X184119529Y-91697970D01*
X184114668Y-91694722D01*
X184114666Y-91694720D01*
X184008124Y-91623532D01*
X183993071Y-91617297D01*
X183889741Y-91574496D01*
X183889735Y-91574494D01*
X183764068Y-91549497D01*
X183764066Y-91549497D01*
X175504935Y-91549497D01*
X175437896Y-91529812D01*
X175436090Y-91528630D01*
X175379179Y-91490603D01*
X175379172Y-91490599D01*
X175233501Y-91430261D01*
X175233489Y-91430258D01*
X175078845Y-91399497D01*
X175078842Y-91399497D01*
X174921158Y-91399497D01*
X174921155Y-91399497D01*
X174766510Y-91430258D01*
X174766498Y-91430261D01*
X174620827Y-91490599D01*
X174620814Y-91490606D01*
X174489711Y-91578207D01*
X174489707Y-91578210D01*
X174378213Y-91689704D01*
X174378210Y-91689708D01*
X174290609Y-91820811D01*
X174290602Y-91820824D01*
X174230264Y-91966495D01*
X174230261Y-91966507D01*
X174199500Y-92121150D01*
X162302426Y-92121150D01*
X162275081Y-92055134D01*
X162275080Y-92055133D01*
X162275077Y-92055127D01*
X162187476Y-91924024D01*
X162187473Y-91924020D01*
X162075979Y-91812526D01*
X162075975Y-91812523D01*
X161944872Y-91724922D01*
X161944859Y-91724915D01*
X161799188Y-91664577D01*
X161799176Y-91664574D01*
X161732107Y-91651233D01*
X161670196Y-91618848D01*
X161668617Y-91617297D01*
X158050174Y-87998854D01*
X158016689Y-87937531D01*
X158021673Y-87867839D01*
X158023269Y-87863781D01*
X158077235Y-87733497D01*
X158107998Y-87578842D01*
X158107998Y-87421158D01*
X158107998Y-87421155D01*
X158107997Y-87421153D01*
X158077236Y-87266510D01*
X158077235Y-87266503D01*
X158077233Y-87266498D01*
X158016895Y-87120827D01*
X158016888Y-87120814D01*
X157929287Y-86989711D01*
X157929284Y-86989707D01*
X157817790Y-86878213D01*
X157817786Y-86878210D01*
X157686683Y-86790609D01*
X157686670Y-86790602D01*
X157540999Y-86730264D01*
X157540987Y-86730261D01*
X157386343Y-86699500D01*
X157386340Y-86699500D01*
X157228656Y-86699500D01*
X157228653Y-86699500D01*
X157074008Y-86730261D01*
X157073996Y-86730264D01*
X156928325Y-86790602D01*
X156928312Y-86790609D01*
X156797209Y-86878210D01*
X156797205Y-86878213D01*
X156685711Y-86989707D01*
X156685708Y-86989711D01*
X156598107Y-87120814D01*
X156598102Y-87120823D01*
X156547303Y-87243465D01*
X156503462Y-87297868D01*
X156437168Y-87319933D01*
X156369469Y-87302654D01*
X156345061Y-87283693D01*
X152564116Y-83502747D01*
X152482522Y-83421153D01*
X195699500Y-83421153D01*
X195699500Y-83578846D01*
X195730261Y-83733489D01*
X195730264Y-83733501D01*
X195790602Y-83879172D01*
X195790609Y-83879185D01*
X195878210Y-84010288D01*
X195878213Y-84010292D01*
X195989707Y-84121786D01*
X195989711Y-84121789D01*
X196120814Y-84209390D01*
X196120827Y-84209397D01*
X196266498Y-84269735D01*
X196266503Y-84269737D01*
X196421153Y-84300499D01*
X196421156Y-84300500D01*
X196421158Y-84300500D01*
X196578844Y-84300500D01*
X196578845Y-84300499D01*
X196733497Y-84269737D01*
X196879179Y-84209394D01*
X197010289Y-84121789D01*
X197121789Y-84010289D01*
X197209394Y-83879179D01*
X197219191Y-83855524D01*
X197246069Y-83815297D01*
X198833952Y-82227416D01*
X198890953Y-82142106D01*
X198916084Y-82104495D01*
X198972658Y-81967913D01*
X198994422Y-81858501D01*
X199001500Y-81822920D01*
X199001500Y-73615004D01*
X198972659Y-73470017D01*
X198972658Y-73470016D01*
X198972658Y-73470012D01*
X198916084Y-73333430D01*
X198873526Y-73269737D01*
X198873525Y-73269735D01*
X198873524Y-73269733D01*
X198833953Y-73210510D01*
X198833947Y-73210503D01*
X198040495Y-72417051D01*
X198022664Y-72405137D01*
X197949232Y-72356072D01*
X197917570Y-72334916D01*
X197917568Y-72334915D01*
X197917565Y-72334913D01*
X197780992Y-72278343D01*
X197780982Y-72278340D01*
X197635995Y-72249500D01*
X197635993Y-72249500D01*
X197307104Y-72249500D01*
X197259655Y-72240062D01*
X197235997Y-72230263D01*
X197235993Y-72230262D01*
X197235988Y-72230260D01*
X197081345Y-72199500D01*
X197081342Y-72199500D01*
X196923658Y-72199500D01*
X196923655Y-72199500D01*
X196769010Y-72230261D01*
X196768998Y-72230264D01*
X196623327Y-72290602D01*
X196623314Y-72290609D01*
X196492211Y-72378210D01*
X196492207Y-72378213D01*
X196380713Y-72489707D01*
X196380710Y-72489711D01*
X196293109Y-72620814D01*
X196293102Y-72620827D01*
X196232764Y-72766498D01*
X196232761Y-72766510D01*
X196202000Y-72921153D01*
X196202000Y-73078846D01*
X196232761Y-73233489D01*
X196232764Y-73233501D01*
X196293102Y-73379172D01*
X196293109Y-73379185D01*
X196380710Y-73510288D01*
X196380713Y-73510292D01*
X196492207Y-73621786D01*
X196492211Y-73621789D01*
X196623314Y-73709390D01*
X196623327Y-73709397D01*
X196744643Y-73759647D01*
X196769003Y-73769737D01*
X196923653Y-73800499D01*
X196923656Y-73800500D01*
X196923658Y-73800500D01*
X197081343Y-73800500D01*
X197111007Y-73794599D01*
X197199724Y-73776952D01*
X197207629Y-73777659D01*
X197215068Y-73774885D01*
X197241931Y-73780728D01*
X197269313Y-73783179D01*
X197277322Y-73788427D01*
X197283341Y-73789737D01*
X197311595Y-73810888D01*
X197464181Y-73963474D01*
X197497666Y-74024797D01*
X197500500Y-74051155D01*
X197500500Y-81386769D01*
X197480815Y-81453808D01*
X197464181Y-81474450D01*
X196184703Y-82753927D01*
X196144480Y-82780805D01*
X196120819Y-82790606D01*
X196120818Y-82790607D01*
X195989715Y-82878207D01*
X195989707Y-82878213D01*
X195878213Y-82989707D01*
X195878210Y-82989711D01*
X195790609Y-83120814D01*
X195790602Y-83120827D01*
X195730264Y-83266498D01*
X195730261Y-83266510D01*
X195699500Y-83421153D01*
X152482522Y-83421153D01*
X152478421Y-83417052D01*
X152478414Y-83417046D01*
X152404729Y-83367812D01*
X152404729Y-83367813D01*
X152355491Y-83334913D01*
X152218917Y-83278343D01*
X152218907Y-83278340D01*
X152073920Y-83249500D01*
X152073918Y-83249500D01*
X146304604Y-83249500D01*
X146257155Y-83240062D01*
X146233497Y-83230263D01*
X146233493Y-83230262D01*
X146233488Y-83230260D01*
X146078845Y-83199500D01*
X146078842Y-83199500D01*
X145921158Y-83199500D01*
X145921155Y-83199500D01*
X145766510Y-83230261D01*
X145766498Y-83230264D01*
X145620827Y-83290602D01*
X145620814Y-83290609D01*
X145489711Y-83378210D01*
X145489707Y-83378213D01*
X145378213Y-83489707D01*
X145378210Y-83489711D01*
X145290609Y-83620814D01*
X145290602Y-83620827D01*
X145230264Y-83766498D01*
X145230261Y-83766510D01*
X145199500Y-83921153D01*
X145199500Y-84078846D01*
X145230261Y-84233489D01*
X145230264Y-84233501D01*
X145290602Y-84379172D01*
X145290609Y-84379185D01*
X145378210Y-84510288D01*
X145378213Y-84510292D01*
X145489707Y-84621786D01*
X145489711Y-84621789D01*
X145620814Y-84709390D01*
X145620827Y-84709397D01*
X145720060Y-84750500D01*
X145766503Y-84769737D01*
X145921153Y-84800499D01*
X145921156Y-84800500D01*
X145921158Y-84800500D01*
X146078844Y-84800500D01*
X146078845Y-84800499D01*
X146155152Y-84785320D01*
X146233488Y-84769739D01*
X146233489Y-84769738D01*
X146233497Y-84769737D01*
X146257155Y-84759937D01*
X146304604Y-84750500D01*
X151637770Y-84750500D01*
X151704809Y-84770185D01*
X151725451Y-84786819D01*
X152576451Y-85637819D01*
X152609936Y-85699142D01*
X152604952Y-85768834D01*
X152563080Y-85824767D01*
X152497616Y-85849184D01*
X152488770Y-85849500D01*
X147504935Y-85849500D01*
X147437896Y-85829815D01*
X147436090Y-85828633D01*
X147379179Y-85790606D01*
X147379172Y-85790602D01*
X147233501Y-85730264D01*
X147233489Y-85730261D01*
X147078845Y-85699500D01*
X147078842Y-85699500D01*
X146921158Y-85699500D01*
X146921155Y-85699500D01*
X146766510Y-85730261D01*
X146766498Y-85730264D01*
X146620827Y-85790602D01*
X146620814Y-85790609D01*
X146489711Y-85878210D01*
X146489707Y-85878213D01*
X146378213Y-85989707D01*
X146378210Y-85989711D01*
X146290609Y-86120814D01*
X146290602Y-86120827D01*
X146230264Y-86266498D01*
X146230261Y-86266510D01*
X146199500Y-86421153D01*
X146199500Y-86578846D01*
X146230261Y-86733489D01*
X146230264Y-86733501D01*
X146290602Y-86879172D01*
X146290609Y-86879185D01*
X146378210Y-87010288D01*
X146378213Y-87010292D01*
X146489707Y-87121786D01*
X146489711Y-87121789D01*
X146620814Y-87209390D01*
X146620827Y-87209397D01*
X146703076Y-87243465D01*
X146766503Y-87269737D01*
X146907926Y-87297868D01*
X146921153Y-87300499D01*
X146921156Y-87300500D01*
X146921158Y-87300500D01*
X147078844Y-87300500D01*
X147078845Y-87300499D01*
X147233497Y-87269737D01*
X147379179Y-87209394D01*
X147436044Y-87171397D01*
X147502721Y-87150520D01*
X147504935Y-87150500D01*
X152179192Y-87150500D01*
X152246231Y-87170185D01*
X152266873Y-87186819D01*
X153166259Y-88086205D01*
X153199744Y-88147528D01*
X153194760Y-88217220D01*
X153152888Y-88273153D01*
X153126038Y-88288444D01*
X153120828Y-88290602D01*
X153120814Y-88290609D01*
X152989711Y-88378210D01*
X152989707Y-88378213D01*
X152878213Y-88489707D01*
X152878210Y-88489711D01*
X152790609Y-88620814D01*
X152790602Y-88620827D01*
X152730264Y-88766498D01*
X152730261Y-88766510D01*
X152699500Y-88921153D01*
X152699500Y-89078846D01*
X152730261Y-89233489D01*
X152730264Y-89233501D01*
X152790602Y-89379172D01*
X152790606Y-89379179D01*
X152828602Y-89436044D01*
X152849480Y-89502721D01*
X152849500Y-89504935D01*
X152849500Y-93921730D01*
X152829815Y-93988769D01*
X152777011Y-94034524D01*
X152707853Y-94044468D01*
X152644297Y-94015443D01*
X152625707Y-93994373D01*
X152625653Y-93994419D01*
X152624391Y-93992881D01*
X152622403Y-93990628D01*
X152621793Y-93989716D01*
X152621786Y-93989707D01*
X152510292Y-93878213D01*
X152510288Y-93878210D01*
X152379185Y-93790609D01*
X152379172Y-93790602D01*
X152233501Y-93730264D01*
X152233489Y-93730261D01*
X152078845Y-93699500D01*
X152078842Y-93699500D01*
X151921158Y-93699500D01*
X151921155Y-93699500D01*
X151766510Y-93730261D01*
X151766498Y-93730264D01*
X151620827Y-93790602D01*
X151620814Y-93790609D01*
X151489711Y-93878210D01*
X151489707Y-93878213D01*
X151378213Y-93989707D01*
X151378210Y-93989711D01*
X151290609Y-94120814D01*
X151290602Y-94120827D01*
X151230264Y-94266498D01*
X151230261Y-94266510D01*
X151199500Y-94421153D01*
X151199500Y-94575500D01*
X151179815Y-94642539D01*
X151127011Y-94688294D01*
X151075500Y-94699500D01*
X150921155Y-94699500D01*
X150766510Y-94730261D01*
X150766498Y-94730264D01*
X150620827Y-94790602D01*
X150620820Y-94790606D01*
X150591928Y-94809911D01*
X150563955Y-94828602D01*
X150497279Y-94849480D01*
X150495065Y-94849500D01*
X129820808Y-94849500D01*
X129753769Y-94829815D01*
X129733127Y-94813181D01*
X117817015Y-82897069D01*
X117783530Y-82835746D01*
X117783093Y-82833652D01*
X117769737Y-82766503D01*
X117709794Y-82621786D01*
X117709397Y-82620827D01*
X117709390Y-82620814D01*
X117621789Y-82489711D01*
X117621786Y-82489707D01*
X117510292Y-82378213D01*
X117510288Y-82378210D01*
X117379185Y-82290609D01*
X117379172Y-82290602D01*
X117233501Y-82230264D01*
X117233489Y-82230261D01*
X117078845Y-82199500D01*
X117078842Y-82199500D01*
X116921158Y-82199500D01*
X116921155Y-82199500D01*
X116766510Y-82230261D01*
X116766498Y-82230264D01*
X116620827Y-82290602D01*
X116620814Y-82290609D01*
X116489711Y-82378210D01*
X116489707Y-82378213D01*
X116378213Y-82489707D01*
X116378206Y-82489716D01*
X116377597Y-82490628D01*
X116377155Y-82490997D01*
X116374347Y-82494419D01*
X116373697Y-82493886D01*
X116323982Y-82535429D01*
X116254656Y-82544132D01*
X116191631Y-82513973D01*
X116154916Y-82454527D01*
X116150500Y-82421730D01*
X116150500Y-81921153D01*
X179699500Y-81921153D01*
X179699500Y-82078846D01*
X179730261Y-82233489D01*
X179730264Y-82233501D01*
X179790602Y-82379172D01*
X179790609Y-82379185D01*
X179878210Y-82510288D01*
X179878213Y-82510292D01*
X179989707Y-82621786D01*
X179989711Y-82621789D01*
X180120814Y-82709390D01*
X180120827Y-82709397D01*
X180258695Y-82766503D01*
X180266503Y-82769737D01*
X180421153Y-82800499D01*
X180421156Y-82800500D01*
X180421158Y-82800500D01*
X180578844Y-82800500D01*
X180578845Y-82800499D01*
X180733497Y-82769737D01*
X180879179Y-82709394D01*
X181010289Y-82621789D01*
X181121789Y-82510289D01*
X181209394Y-82379179D01*
X181269737Y-82233497D01*
X181287917Y-82142101D01*
X181300638Y-82078151D01*
X181309402Y-82061396D01*
X181313422Y-82042916D01*
X181332168Y-82017873D01*
X181333023Y-82016240D01*
X181334509Y-82014725D01*
X181480520Y-81868716D01*
X181480521Y-81868713D01*
X186358506Y-76990728D01*
X186358511Y-76990724D01*
X186368714Y-76980520D01*
X186368716Y-76980520D01*
X186480520Y-76868716D01*
X186547228Y-76753174D01*
X186559577Y-76731785D01*
X186600501Y-76579057D01*
X186600501Y-76420943D01*
X186600501Y-76413348D01*
X186600500Y-76413330D01*
X186600500Y-74079765D01*
X186620185Y-74012726D01*
X186621398Y-74010874D01*
X186709390Y-73879185D01*
X186709390Y-73879184D01*
X186709394Y-73879179D01*
X186769737Y-73733497D01*
X186800500Y-73578842D01*
X186800500Y-73421158D01*
X186800500Y-73421155D01*
X186800499Y-73421153D01*
X186783050Y-73333432D01*
X186769737Y-73266503D01*
X186746082Y-73209394D01*
X186709397Y-73120827D01*
X186709390Y-73120814D01*
X186621789Y-72989711D01*
X186621786Y-72989707D01*
X186510292Y-72878213D01*
X186510288Y-72878210D01*
X186379185Y-72790609D01*
X186379172Y-72790602D01*
X186233501Y-72730264D01*
X186233489Y-72730261D01*
X186078845Y-72699500D01*
X186078842Y-72699500D01*
X185921158Y-72699500D01*
X185921155Y-72699500D01*
X185766510Y-72730261D01*
X185766498Y-72730264D01*
X185620827Y-72790602D01*
X185620814Y-72790609D01*
X185489711Y-72878210D01*
X185489707Y-72878213D01*
X185378213Y-72989707D01*
X185378210Y-72989711D01*
X185290609Y-73120814D01*
X185290602Y-73120827D01*
X185230264Y-73266498D01*
X185230261Y-73266510D01*
X185199500Y-73421153D01*
X185199500Y-73578846D01*
X185230261Y-73733489D01*
X185230264Y-73733501D01*
X185290602Y-73879172D01*
X185290609Y-73879185D01*
X185378602Y-74010874D01*
X185399480Y-74077551D01*
X185399500Y-74079765D01*
X185399500Y-76199902D01*
X185379815Y-76266941D01*
X185363181Y-76287583D01*
X180631286Y-81019477D01*
X180631286Y-81019478D01*
X180631284Y-81019480D01*
X180531115Y-81119649D01*
X180485337Y-81165427D01*
X180424014Y-81198911D01*
X180421848Y-81199362D01*
X180266508Y-81230261D01*
X180266498Y-81230264D01*
X180120827Y-81290602D01*
X180120814Y-81290609D01*
X179989711Y-81378210D01*
X179989707Y-81378213D01*
X179878213Y-81489707D01*
X179878210Y-81489711D01*
X179790609Y-81620814D01*
X179790602Y-81620827D01*
X179730264Y-81766498D01*
X179730261Y-81766510D01*
X179699500Y-81921153D01*
X116150500Y-81921153D01*
X116150500Y-80126428D01*
X116125502Y-80000761D01*
X116125501Y-80000760D01*
X116125501Y-80000756D01*
X116076465Y-79882373D01*
X116073350Y-79877712D01*
X116073346Y-79877698D01*
X116073343Y-79877701D01*
X116005277Y-79775831D01*
X116005275Y-79775829D01*
X116005273Y-79775826D01*
X116005272Y-79775825D01*
X112799028Y-76569582D01*
X112765543Y-76508259D01*
X112764236Y-76462502D01*
X112770820Y-76420939D01*
X112774000Y-76400861D01*
X112774000Y-76219139D01*
X112745572Y-76039654D01*
X112745571Y-76039650D01*
X112745571Y-76039649D01*
X112689418Y-75866828D01*
X112689416Y-75866825D01*
X112671059Y-75830796D01*
X112606917Y-75704910D01*
X112500103Y-75557894D01*
X112371606Y-75429397D01*
X112224590Y-75322583D01*
X112062674Y-75240083D01*
X112062671Y-75240081D01*
X111889849Y-75183928D01*
X111793508Y-75168669D01*
X111754384Y-75162472D01*
X111691250Y-75132544D01*
X111654319Y-75073232D01*
X111655317Y-75003370D01*
X111693927Y-74945137D01*
X111754384Y-74917527D01*
X111889846Y-74896072D01*
X111889849Y-74896071D01*
X111889850Y-74896071D01*
X112062671Y-74839918D01*
X112062671Y-74839917D01*
X112062674Y-74839917D01*
X112224590Y-74757417D01*
X112371606Y-74650603D01*
X112500103Y-74522106D01*
X112606917Y-74375090D01*
X112689417Y-74213174D01*
X112732764Y-74079765D01*
X112745571Y-74040350D01*
X112745571Y-74040349D01*
X112745572Y-74040346D01*
X112774000Y-73860861D01*
X112774000Y-73679139D01*
X112745572Y-73499654D01*
X112745571Y-73499650D01*
X112745571Y-73499649D01*
X112689418Y-73326828D01*
X112689416Y-73326825D01*
X112687123Y-73322323D01*
X112606917Y-73164910D01*
X112500103Y-73017894D01*
X112371606Y-72889397D01*
X112224590Y-72782583D01*
X112062674Y-72700083D01*
X112062671Y-72700081D01*
X111889849Y-72643928D01*
X111793508Y-72628669D01*
X111754384Y-72622472D01*
X111691250Y-72592544D01*
X111654319Y-72533232D01*
X111655317Y-72463370D01*
X111693927Y-72405137D01*
X111754384Y-72377527D01*
X111889846Y-72356072D01*
X111889849Y-72356071D01*
X111889850Y-72356071D01*
X112062671Y-72299918D01*
X112062671Y-72299917D01*
X112062674Y-72299917D01*
X112224590Y-72217417D01*
X112371606Y-72110603D01*
X112500103Y-71982106D01*
X112606917Y-71835090D01*
X112689417Y-71673174D01*
X112706426Y-71620827D01*
X112745571Y-71500350D01*
X112745571Y-71500349D01*
X112745572Y-71500346D01*
X112774000Y-71320861D01*
X112774000Y-71139139D01*
X112745572Y-70959654D01*
X112745571Y-70959650D01*
X112745571Y-70959649D01*
X112689418Y-70786828D01*
X112689416Y-70786825D01*
X112606916Y-70624909D01*
X112500103Y-70477894D01*
X112371606Y-70349397D01*
X112224590Y-70242583D01*
X112062674Y-70160083D01*
X112062671Y-70160081D01*
X111889849Y-70103928D01*
X111793508Y-70088669D01*
X111754384Y-70082472D01*
X111691250Y-70052544D01*
X111654319Y-69993232D01*
X111655317Y-69923370D01*
X111693927Y-69865137D01*
X111754384Y-69837527D01*
X111889846Y-69816072D01*
X111889849Y-69816071D01*
X111889850Y-69816071D01*
X112062671Y-69759918D01*
X112062671Y-69759917D01*
X112062674Y-69759917D01*
X112224590Y-69677417D01*
X112371606Y-69570603D01*
X112500103Y-69442106D01*
X112606917Y-69295090D01*
X112689417Y-69133174D01*
X112745572Y-68960346D01*
X112774000Y-68780861D01*
X112774000Y-68599139D01*
X112745572Y-68419654D01*
X112745571Y-68419650D01*
X112745571Y-68419649D01*
X112689418Y-68246828D01*
X112689416Y-68246825D01*
X112625218Y-68120827D01*
X112606917Y-68084910D01*
X112500103Y-67937894D01*
X112371606Y-67809397D01*
X112224590Y-67702583D01*
X112062674Y-67620083D01*
X112062671Y-67620081D01*
X111889849Y-67563928D01*
X111752786Y-67542219D01*
X111689652Y-67512289D01*
X111652721Y-67452978D01*
X111653719Y-67383115D01*
X111692329Y-67324883D01*
X111752788Y-67297273D01*
X111889724Y-67275585D01*
X111889725Y-67275584D01*
X112062484Y-67219451D01*
X112224331Y-67136986D01*
X112240896Y-67124949D01*
X111665947Y-66550000D01*
X111672161Y-66550000D01*
X111773894Y-66522741D01*
X111865106Y-66470080D01*
X111939580Y-66395606D01*
X111992241Y-66304394D01*
X112019500Y-66202661D01*
X112019500Y-66196446D01*
X112594449Y-66771395D01*
X112606486Y-66754831D01*
X112688951Y-66592984D01*
X112745084Y-66420225D01*
X112773500Y-66240821D01*
X112773500Y-66059178D01*
X112745084Y-65879774D01*
X112688950Y-65707012D01*
X112606493Y-65545179D01*
X112606485Y-65545165D01*
X112594450Y-65528603D01*
X112594449Y-65528602D01*
X112019500Y-66103552D01*
X112019500Y-66097339D01*
X111992241Y-65995606D01*
X111939580Y-65904394D01*
X111865106Y-65829920D01*
X111773894Y-65777259D01*
X111672161Y-65750000D01*
X111665947Y-65750000D01*
X112240896Y-65175049D01*
X112240895Y-65175048D01*
X112224334Y-65163014D01*
X112224330Y-65163012D01*
X112062484Y-65080548D01*
X111889725Y-65024415D01*
X111752787Y-65002726D01*
X111689652Y-64972797D01*
X111652721Y-64913485D01*
X111653719Y-64843622D01*
X111692329Y-64785390D01*
X111752786Y-64757780D01*
X111889846Y-64736072D01*
X111889849Y-64736071D01*
X111889850Y-64736071D01*
X112062671Y-64679918D01*
X112062671Y-64679917D01*
X112062674Y-64679917D01*
X112224590Y-64597417D01*
X112371606Y-64490603D01*
X112500103Y-64362106D01*
X112606917Y-64215090D01*
X112689417Y-64053174D01*
X112689418Y-64053171D01*
X112745571Y-63880350D01*
X112745571Y-63880349D01*
X112745572Y-63880346D01*
X112774000Y-63700861D01*
X112774000Y-63519139D01*
X112745572Y-63339654D01*
X112745571Y-63339650D01*
X112745571Y-63339649D01*
X112689418Y-63166828D01*
X112689416Y-63166825D01*
X112674938Y-63138409D01*
X112606917Y-63004910D01*
X112500103Y-62857894D01*
X112371606Y-62729397D01*
X112224590Y-62622583D01*
X112062674Y-62540083D01*
X112062671Y-62540081D01*
X111889848Y-62483928D01*
X111770189Y-62464976D01*
X111710361Y-62455500D01*
X111528639Y-62455500D01*
X111468810Y-62464976D01*
X111349152Y-62483928D01*
X111349149Y-62483928D01*
X111176328Y-62540081D01*
X111176325Y-62540083D01*
X111014409Y-62622583D01*
X110930530Y-62683525D01*
X110867394Y-62729397D01*
X110867392Y-62729399D01*
X110867391Y-62729399D01*
X110738899Y-62857891D01*
X110738899Y-62857892D01*
X110738897Y-62857894D01*
X110723852Y-62878602D01*
X110632083Y-63004909D01*
X110549583Y-63166825D01*
X110549581Y-63166828D01*
X110493428Y-63339649D01*
X110493428Y-63339652D01*
X110465000Y-63519139D01*
X110465000Y-63700860D01*
X110493428Y-63880347D01*
X110493428Y-63880350D01*
X110549581Y-64053171D01*
X110549583Y-64053174D01*
X110632083Y-64215090D01*
X110738897Y-64362106D01*
X110867394Y-64490603D01*
X111014410Y-64597417D01*
X111176326Y-64679917D01*
X111176328Y-64679918D01*
X111267047Y-64709394D01*
X111349154Y-64736072D01*
X111486212Y-64757780D01*
X111549347Y-64787709D01*
X111586278Y-64847021D01*
X111585280Y-64916883D01*
X111546670Y-64975116D01*
X111486212Y-65002726D01*
X111349274Y-65024415D01*
X111176515Y-65080548D01*
X111014670Y-65163012D01*
X111014661Y-65163018D01*
X110998103Y-65175048D01*
X110998102Y-65175049D01*
X111573054Y-65750000D01*
X111566839Y-65750000D01*
X111465106Y-65777259D01*
X111373894Y-65829920D01*
X111299420Y-65904394D01*
X111246759Y-65995606D01*
X111219500Y-66097339D01*
X111219500Y-66103553D01*
X110644549Y-65528602D01*
X110644548Y-65528603D01*
X110632518Y-65545161D01*
X110632512Y-65545170D01*
X110550048Y-65707015D01*
X110493915Y-65879774D01*
X110465500Y-66059178D01*
X110465500Y-66240821D01*
X110493915Y-66420225D01*
X110550048Y-66592984D01*
X110632512Y-66754830D01*
X110632514Y-66754834D01*
X110644548Y-66771395D01*
X110644549Y-66771396D01*
X111219500Y-66196445D01*
X111219500Y-66202661D01*
X111246759Y-66304394D01*
X111299420Y-66395606D01*
X111373894Y-66470080D01*
X111465106Y-66522741D01*
X111566839Y-66550000D01*
X111573054Y-66550000D01*
X110998102Y-67124949D01*
X110998103Y-67124950D01*
X111014665Y-67136985D01*
X111014679Y-67136993D01*
X111176512Y-67219450D01*
X111349274Y-67275584D01*
X111349275Y-67275585D01*
X111486211Y-67297273D01*
X111549346Y-67327202D01*
X111586278Y-67386513D01*
X111585280Y-67456376D01*
X111546671Y-67514609D01*
X111486213Y-67542219D01*
X111349150Y-67563928D01*
X111349149Y-67563928D01*
X111176328Y-67620081D01*
X111176325Y-67620083D01*
X111014409Y-67702583D01*
X110971855Y-67733501D01*
X110867394Y-67809397D01*
X110867392Y-67809399D01*
X110867391Y-67809399D01*
X110738899Y-67937891D01*
X110738899Y-67937892D01*
X110738897Y-67937894D01*
X110701250Y-67989711D01*
X110632083Y-68084909D01*
X110549583Y-68246825D01*
X110549581Y-68246828D01*
X110493428Y-68419649D01*
X110493428Y-68419652D01*
X110465000Y-68599139D01*
X110465000Y-68780860D01*
X110493428Y-68960347D01*
X110493428Y-68960350D01*
X110549581Y-69133171D01*
X110549583Y-69133174D01*
X110632083Y-69295090D01*
X110738897Y-69442106D01*
X110867394Y-69570603D01*
X111014410Y-69677417D01*
X111176326Y-69759917D01*
X111176328Y-69759918D01*
X111337529Y-69812294D01*
X111349154Y-69816072D01*
X111484614Y-69837527D01*
X111547749Y-69867456D01*
X111584680Y-69926768D01*
X111583682Y-69996630D01*
X111545072Y-70054863D01*
X111484614Y-70082473D01*
X111349152Y-70103928D01*
X111349149Y-70103928D01*
X111176328Y-70160081D01*
X111176325Y-70160083D01*
X111014409Y-70242583D01*
X110930530Y-70303525D01*
X110867394Y-70349397D01*
X110867392Y-70349399D01*
X110867391Y-70349399D01*
X110738899Y-70477891D01*
X110738899Y-70477892D01*
X110738897Y-70477894D01*
X110693025Y-70541030D01*
X110632083Y-70624909D01*
X110549583Y-70786825D01*
X110549581Y-70786828D01*
X110493428Y-70959649D01*
X110493428Y-70959652D01*
X110465000Y-71139139D01*
X110465000Y-71320861D01*
X110464999Y-71320861D01*
X110474763Y-71382504D01*
X110465808Y-71451797D01*
X110439971Y-71489582D01*
X110116373Y-71813181D01*
X110055050Y-71846666D01*
X110028692Y-71849500D01*
X94767924Y-71849500D01*
X94700885Y-71829815D01*
X94655130Y-71777011D01*
X94645186Y-71707853D01*
X94654627Y-71678122D01*
X94653552Y-71677677D01*
X94655418Y-71673171D01*
X94711571Y-71500350D01*
X94711571Y-71500349D01*
X94711572Y-71500346D01*
X94740000Y-71320861D01*
X94740000Y-71139139D01*
X94711572Y-70959654D01*
X94711571Y-70959650D01*
X94711571Y-70959649D01*
X94655418Y-70786828D01*
X94655416Y-70786825D01*
X94572916Y-70624909D01*
X94466103Y-70477894D01*
X94337606Y-70349397D01*
X94190590Y-70242583D01*
X94028674Y-70160083D01*
X94028671Y-70160081D01*
X93855849Y-70103928D01*
X93759508Y-70088669D01*
X93720384Y-70082472D01*
X93657250Y-70052544D01*
X93620319Y-69993232D01*
X93621317Y-69923370D01*
X93659927Y-69865137D01*
X93720384Y-69837527D01*
X93855846Y-69816072D01*
X93855849Y-69816071D01*
X93855850Y-69816071D01*
X94028671Y-69759918D01*
X94028671Y-69759917D01*
X94028674Y-69759917D01*
X94190590Y-69677417D01*
X94337606Y-69570603D01*
X94466103Y-69442106D01*
X94572917Y-69295090D01*
X94655417Y-69133174D01*
X94711572Y-68960346D01*
X94740000Y-68780861D01*
X94740000Y-68599139D01*
X94711572Y-68419654D01*
X94711571Y-68419650D01*
X94711571Y-68419649D01*
X94655418Y-68246828D01*
X94655416Y-68246825D01*
X94591218Y-68120827D01*
X94572917Y-68084910D01*
X94466103Y-67937894D01*
X94337606Y-67809397D01*
X94190590Y-67702583D01*
X94028674Y-67620083D01*
X94028671Y-67620081D01*
X93855849Y-67563928D01*
X93718786Y-67542219D01*
X93655652Y-67512289D01*
X93618721Y-67452978D01*
X93619719Y-67383115D01*
X93658329Y-67324883D01*
X93718788Y-67297273D01*
X93855724Y-67275585D01*
X93855725Y-67275584D01*
X94028484Y-67219451D01*
X94190331Y-67136986D01*
X94206896Y-67124949D01*
X93631947Y-66550000D01*
X93638161Y-66550000D01*
X93739894Y-66522741D01*
X93831106Y-66470080D01*
X93905580Y-66395606D01*
X93958241Y-66304394D01*
X93985500Y-66202661D01*
X93985500Y-66196446D01*
X94560449Y-66771395D01*
X94572486Y-66754831D01*
X94654951Y-66592984D01*
X94711084Y-66420225D01*
X94739500Y-66240821D01*
X94739500Y-66059178D01*
X94711084Y-65879774D01*
X94654950Y-65707012D01*
X94572493Y-65545179D01*
X94572485Y-65545165D01*
X94560450Y-65528603D01*
X94560449Y-65528602D01*
X93985500Y-66103552D01*
X93985500Y-66097339D01*
X93958241Y-65995606D01*
X93905580Y-65904394D01*
X93831106Y-65829920D01*
X93739894Y-65777259D01*
X93638161Y-65750000D01*
X93631947Y-65750000D01*
X94206896Y-65175049D01*
X94206895Y-65175048D01*
X94190334Y-65163014D01*
X94190330Y-65163012D01*
X94028484Y-65080548D01*
X93855725Y-65024415D01*
X93718787Y-65002726D01*
X93655652Y-64972797D01*
X93618721Y-64913485D01*
X93619719Y-64843622D01*
X93658329Y-64785390D01*
X93718786Y-64757780D01*
X93855846Y-64736072D01*
X93855849Y-64736071D01*
X93855850Y-64736071D01*
X94028671Y-64679918D01*
X94028671Y-64679917D01*
X94028674Y-64679917D01*
X94190590Y-64597417D01*
X94337606Y-64490603D01*
X94466103Y-64362106D01*
X94572917Y-64215090D01*
X94655417Y-64053174D01*
X94655418Y-64053171D01*
X94711571Y-63880350D01*
X94711571Y-63880349D01*
X94711572Y-63880346D01*
X94740000Y-63700861D01*
X94740000Y-63519139D01*
X94711572Y-63339654D01*
X94711571Y-63339650D01*
X94711571Y-63339649D01*
X94655418Y-63166828D01*
X94655416Y-63166825D01*
X94640938Y-63138409D01*
X94572917Y-63004910D01*
X94466103Y-62857894D01*
X94337606Y-62729397D01*
X94190590Y-62622583D01*
X94028674Y-62540083D01*
X94028671Y-62540081D01*
X93855848Y-62483928D01*
X93736189Y-62464976D01*
X93676361Y-62455500D01*
X93494639Y-62455500D01*
X93434810Y-62464976D01*
X93315152Y-62483928D01*
X93315149Y-62483928D01*
X93142328Y-62540081D01*
X93142325Y-62540083D01*
X92980409Y-62622583D01*
X92896530Y-62683525D01*
X92833394Y-62729397D01*
X92833392Y-62729399D01*
X92833391Y-62729399D01*
X92704899Y-62857891D01*
X92704899Y-62857892D01*
X92704897Y-62857894D01*
X92689852Y-62878602D01*
X92598083Y-63004909D01*
X92515583Y-63166825D01*
X92515581Y-63166828D01*
X92459428Y-63339649D01*
X92459428Y-63339652D01*
X92431000Y-63519139D01*
X92431000Y-63700860D01*
X92459428Y-63880347D01*
X92459428Y-63880350D01*
X92515581Y-64053171D01*
X92515583Y-64053174D01*
X92598083Y-64215090D01*
X92704897Y-64362106D01*
X92833394Y-64490603D01*
X92980410Y-64597417D01*
X93142326Y-64679917D01*
X93142328Y-64679918D01*
X93233047Y-64709394D01*
X93315154Y-64736072D01*
X93452212Y-64757780D01*
X93515347Y-64787709D01*
X93552278Y-64847021D01*
X93551280Y-64916883D01*
X93512670Y-64975116D01*
X93452212Y-65002726D01*
X93315274Y-65024415D01*
X93142515Y-65080548D01*
X92980670Y-65163012D01*
X92980661Y-65163018D01*
X92964103Y-65175048D01*
X92964102Y-65175049D01*
X93539054Y-65750000D01*
X93532839Y-65750000D01*
X93431106Y-65777259D01*
X93339894Y-65829920D01*
X93265420Y-65904394D01*
X93212759Y-65995606D01*
X93185500Y-66097339D01*
X93185500Y-66103553D01*
X92610549Y-65528602D01*
X92610548Y-65528603D01*
X92598518Y-65545161D01*
X92598512Y-65545170D01*
X92516048Y-65707015D01*
X92459915Y-65879774D01*
X92431500Y-66059178D01*
X92431500Y-66240821D01*
X92459915Y-66420225D01*
X92516048Y-66592984D01*
X92598512Y-66754830D01*
X92598514Y-66754834D01*
X92610548Y-66771395D01*
X92610549Y-66771396D01*
X93185500Y-66196445D01*
X93185500Y-66202661D01*
X93212759Y-66304394D01*
X93265420Y-66395606D01*
X93339894Y-66470080D01*
X93431106Y-66522741D01*
X93532839Y-66550000D01*
X93539054Y-66550000D01*
X92964102Y-67124949D01*
X92964103Y-67124950D01*
X92980665Y-67136985D01*
X92980679Y-67136993D01*
X93142512Y-67219450D01*
X93315274Y-67275584D01*
X93315275Y-67275585D01*
X93452211Y-67297273D01*
X93515346Y-67327202D01*
X93552278Y-67386513D01*
X93551280Y-67456376D01*
X93512671Y-67514609D01*
X93452213Y-67542219D01*
X93315150Y-67563928D01*
X93315149Y-67563928D01*
X93142328Y-67620081D01*
X93142325Y-67620083D01*
X92980409Y-67702583D01*
X92937855Y-67733501D01*
X92833394Y-67809397D01*
X92833392Y-67809399D01*
X92833391Y-67809399D01*
X92704899Y-67937891D01*
X92704899Y-67937892D01*
X92704897Y-67937894D01*
X92667250Y-67989711D01*
X92598083Y-68084909D01*
X92515583Y-68246825D01*
X92515581Y-68246828D01*
X92459428Y-68419649D01*
X92459428Y-68419652D01*
X92431000Y-68599139D01*
X92431000Y-68780860D01*
X92459428Y-68960347D01*
X92459428Y-68960350D01*
X92515581Y-69133171D01*
X92515583Y-69133174D01*
X92598083Y-69295090D01*
X92704897Y-69442106D01*
X92833394Y-69570603D01*
X92980410Y-69677417D01*
X93142326Y-69759917D01*
X93142328Y-69759918D01*
X93303529Y-69812294D01*
X93315154Y-69816072D01*
X93450614Y-69837527D01*
X93513749Y-69867456D01*
X93550680Y-69926768D01*
X93549682Y-69996630D01*
X93511072Y-70054863D01*
X93450614Y-70082473D01*
X93315152Y-70103928D01*
X93315149Y-70103928D01*
X93142328Y-70160081D01*
X93142325Y-70160083D01*
X92980409Y-70242583D01*
X92896530Y-70303525D01*
X92833394Y-70349397D01*
X92833392Y-70349399D01*
X92833391Y-70349399D01*
X92704899Y-70477891D01*
X92704899Y-70477892D01*
X92704897Y-70477894D01*
X92659025Y-70541030D01*
X92598083Y-70624909D01*
X92515583Y-70786825D01*
X92515581Y-70786828D01*
X92459428Y-70959649D01*
X92459428Y-70959652D01*
X92431000Y-71139139D01*
X92431000Y-71320860D01*
X92459428Y-71500347D01*
X92459428Y-71500350D01*
X92515581Y-71673171D01*
X92517448Y-71677677D01*
X92515294Y-71678569D01*
X92526469Y-71737754D01*
X92500256Y-71802520D01*
X92443188Y-71842833D01*
X92403076Y-71849500D01*
X91504935Y-71849500D01*
X91437896Y-71829815D01*
X91436090Y-71828633D01*
X91379179Y-71790606D01*
X91379172Y-71790602D01*
X91233501Y-71730264D01*
X91233489Y-71730261D01*
X91078845Y-71699500D01*
X91078842Y-71699500D01*
X90921158Y-71699500D01*
X90921155Y-71699500D01*
X90766510Y-71730261D01*
X90766498Y-71730264D01*
X90620827Y-71790602D01*
X90620814Y-71790609D01*
X90489711Y-71878210D01*
X90489707Y-71878213D01*
X90378213Y-71989707D01*
X90378210Y-71989711D01*
X90290609Y-72120814D01*
X90290602Y-72120827D01*
X90230264Y-72266498D01*
X90230261Y-72266510D01*
X90199500Y-72421153D01*
X90199500Y-72578846D01*
X90230261Y-72733489D01*
X90230264Y-72733501D01*
X90290602Y-72879172D01*
X90290609Y-72879185D01*
X90378210Y-73010288D01*
X90378213Y-73010292D01*
X90489707Y-73121786D01*
X90489711Y-73121789D01*
X90620814Y-73209390D01*
X90620827Y-73209397D01*
X90748418Y-73262246D01*
X90766503Y-73269737D01*
X90879165Y-73292147D01*
X90921153Y-73300499D01*
X90921156Y-73300500D01*
X90921158Y-73300500D01*
X91078844Y-73300500D01*
X91078845Y-73300499D01*
X91233497Y-73269737D01*
X91379179Y-73209394D01*
X91436044Y-73171397D01*
X91502721Y-73150520D01*
X91504935Y-73150500D01*
X92403076Y-73150500D01*
X92470115Y-73170185D01*
X92515870Y-73222989D01*
X92525814Y-73292147D01*
X92516372Y-73321877D01*
X92517448Y-73322323D01*
X92515581Y-73326828D01*
X92459428Y-73499649D01*
X92459428Y-73499652D01*
X92431000Y-73679139D01*
X92431000Y-73860860D01*
X92459428Y-74040347D01*
X92459428Y-74040350D01*
X92507137Y-74187182D01*
X92509132Y-74257023D01*
X92473052Y-74316856D01*
X92410351Y-74347684D01*
X92389206Y-74349500D01*
X91004935Y-74349500D01*
X90937896Y-74329815D01*
X90936090Y-74328633D01*
X90879179Y-74290606D01*
X90879172Y-74290602D01*
X90733501Y-74230264D01*
X90733489Y-74230261D01*
X90578845Y-74199500D01*
X90578842Y-74199500D01*
X90421158Y-74199500D01*
X90421155Y-74199500D01*
X90266510Y-74230261D01*
X90266498Y-74230264D01*
X90120827Y-74290602D01*
X90120814Y-74290609D01*
X89989711Y-74378210D01*
X89989707Y-74378213D01*
X89878213Y-74489707D01*
X89878210Y-74489711D01*
X89790609Y-74620814D01*
X89790602Y-74620827D01*
X89730264Y-74766498D01*
X89730261Y-74766510D01*
X89699500Y-74921153D01*
X72500500Y-74921153D01*
X72500500Y-60124500D01*
X72520185Y-60057461D01*
X72572989Y-60011706D01*
X72624500Y-60000500D01*
X125702638Y-60000500D01*
X125769677Y-60020185D01*
G37*
%TD.AperFunction*%
%TD*%
M02*
