%TF.GenerationSoftware,KiCad,Pcbnew,9.0.1*%
%TF.CreationDate,2025-10-26T11:51:32+05:30*%
%TF.ProjectId,SoundTab,536f756e-6454-4616-922e-6b696361645f,rev?*%
%TF.SameCoordinates,Original*%
%TF.FileFunction,Paste,Top*%
%TF.FilePolarity,Positive*%
%FSLAX46Y46*%
G04 Gerber Fmt 4.6, Leading zero omitted, Abs format (unit mm)*
G04 Created by KiCad (PCBNEW 9.0.1) date 2025-10-26 11:51:32*
%MOMM*%
%LPD*%
G01*
G04 APERTURE LIST*
G04 Aperture macros list*
%AMRoundRect*
0 Rectangle with rounded corners*
0 $1 Rounding radius*
0 $2 $3 $4 $5 $6 $7 $8 $9 X,Y pos of 4 corners*
0 Add a 4 corners polygon primitive as box body*
4,1,4,$2,$3,$4,$5,$6,$7,$8,$9,$2,$3,0*
0 Add four circle primitives for the rounded corners*
1,1,$1+$1,$2,$3*
1,1,$1+$1,$4,$5*
1,1,$1+$1,$6,$7*
1,1,$1+$1,$8,$9*
0 Add four rect primitives between the rounded corners*
20,1,$1+$1,$2,$3,$4,$5,0*
20,1,$1+$1,$4,$5,$6,$7,0*
20,1,$1+$1,$6,$7,$8,$9,0*
20,1,$1+$1,$8,$9,$2,$3,0*%
G04 Aperture macros list end*
%ADD10RoundRect,0.200000X0.275000X-0.200000X0.275000X0.200000X-0.275000X0.200000X-0.275000X-0.200000X0*%
%ADD11R,0.600000X1.150000*%
%ADD12R,0.300000X1.150000*%
%ADD13R,2.180000X2.000000*%
%ADD14R,1.000000X1.250000*%
%ADD15RoundRect,0.200000X-0.200000X-0.275000X0.200000X-0.275000X0.200000X0.275000X-0.200000X0.275000X0*%
%ADD16RoundRect,0.249999X-0.757501X-1.440001X0.757501X-1.440001X0.757501X1.440001X-0.757501X1.440001X0*%
%ADD17RoundRect,0.200000X-0.275000X0.200000X-0.275000X-0.200000X0.275000X-0.200000X0.275000X0.200000X0*%
%ADD18R,1.250000X1.000000*%
%ADD19RoundRect,0.140000X0.205000X0.140000X-0.205000X0.140000X-0.205000X-0.140000X0.205000X-0.140000X0*%
%ADD20RoundRect,0.062500X0.337500X0.062500X-0.337500X0.062500X-0.337500X-0.062500X0.337500X-0.062500X0*%
%ADD21RoundRect,0.250000X0.275000X0.275000X-0.275000X0.275000X-0.275000X-0.275000X0.275000X-0.275000X0*%
%ADD22RoundRect,0.062500X0.350000X0.062500X-0.350000X0.062500X-0.350000X-0.062500X0.350000X-0.062500X0*%
%ADD23RoundRect,0.062500X0.062500X0.350000X-0.062500X0.350000X-0.062500X-0.350000X0.062500X-0.350000X0*%
%ADD24RoundRect,0.218750X0.218750X0.256250X-0.218750X0.256250X-0.218750X-0.256250X0.218750X-0.256250X0*%
%ADD25RoundRect,0.218750X0.256250X-0.218750X0.256250X0.218750X-0.256250X0.218750X-0.256250X-0.218750X0*%
%ADD26RoundRect,0.249999X-1.440001X0.757501X-1.440001X-0.757501X1.440001X-0.757501X1.440001X0.757501X0*%
%ADD27RoundRect,0.250000X0.310000X-0.830000X0.310000X0.830000X-0.310000X0.830000X-0.310000X-0.830000X0*%
%ADD28RoundRect,0.200000X0.200000X0.275000X-0.200000X0.275000X-0.200000X-0.275000X0.200000X-0.275000X0*%
%ADD29RoundRect,0.375000X-0.625000X-0.375000X0.625000X-0.375000X0.625000X0.375000X-0.625000X0.375000X0*%
%ADD30RoundRect,0.500000X-0.500000X-1.400000X0.500000X-1.400000X0.500000X1.400000X-0.500000X1.400000X0*%
%ADD31R,1.500000X0.900000*%
%ADD32R,0.900000X1.500000*%
%ADD33R,1.050000X1.050000*%
%ADD34R,3.100000X2.300000*%
G04 APERTURE END LIST*
D10*
%TO.C,R18*%
X152102500Y-124000000D03*
X152102500Y-122350000D03*
%TD*%
D11*
%TO.C,USB1*%
X208802500Y-67494250D03*
X208002500Y-67494250D03*
D12*
X206852500Y-67494250D03*
X205852500Y-67494250D03*
X205352500Y-67494250D03*
X204352500Y-67494250D03*
D11*
X202402500Y-67494250D03*
X203202500Y-67494250D03*
D12*
X203852500Y-67494250D03*
X204852500Y-67494250D03*
X206352500Y-67494250D03*
X207352500Y-67494250D03*
D13*
X210712500Y-66994250D03*
X200492500Y-66994250D03*
X210712500Y-63074250D03*
X200492500Y-63074250D03*
%TD*%
D10*
%TO.C,R10*%
X195602500Y-74825000D03*
X195602500Y-73175000D03*
%TD*%
D14*
%TO.C,SW2*%
X164500000Y-125125000D03*
X164500000Y-132875000D03*
%TD*%
D15*
%TO.C,R6*%
X117500000Y-105500000D03*
X119150000Y-105500000D03*
%TD*%
%TO.C,R9*%
X192452500Y-81000000D03*
X194102500Y-81000000D03*
%TD*%
D16*
%TO.C,C2*%
X185500000Y-116000000D03*
X191705000Y-116000000D03*
%TD*%
D17*
%TO.C,R3*%
X155602500Y-104175000D03*
X155602500Y-105825000D03*
%TD*%
D15*
%TO.C,R5*%
X117675000Y-101000000D03*
X119325000Y-101000000D03*
%TD*%
D16*
%TO.C,C5*%
X171000000Y-112000000D03*
X177205000Y-112000000D03*
%TD*%
D15*
%TO.C,R11*%
X187277500Y-64000000D03*
X188927500Y-64000000D03*
%TD*%
D18*
%TO.C,SW5*%
X164727500Y-99500000D03*
X172477500Y-99500000D03*
%TD*%
D19*
%TO.C,U7*%
X197602500Y-78700000D03*
X197602500Y-78000000D03*
X196752500Y-78700000D03*
X196752500Y-78000000D03*
D20*
X198627500Y-79100000D03*
X198627500Y-78600000D03*
X198627500Y-78100000D03*
X198627500Y-77600000D03*
X195727500Y-77600000D03*
X195727500Y-78100000D03*
X195727500Y-78600000D03*
X195727500Y-79100000D03*
%TD*%
D21*
%TO.C,U5*%
X188102500Y-69300000D03*
X188102500Y-68000000D03*
X186802500Y-69300000D03*
X186802500Y-68000000D03*
D22*
X189390000Y-69900000D03*
X189390000Y-69400000D03*
X189390000Y-68900000D03*
X189390000Y-68400000D03*
X189390000Y-67900000D03*
X189390000Y-67400000D03*
D23*
X188702500Y-66712500D03*
X188202500Y-66712500D03*
X187702500Y-66712500D03*
X187202500Y-66712500D03*
X186702500Y-66712500D03*
X186202500Y-66712500D03*
D22*
X185515000Y-67400000D03*
X185515000Y-67900000D03*
X185515000Y-68400000D03*
X185515000Y-68900000D03*
X185515000Y-69400000D03*
X185515000Y-69900000D03*
D23*
X186202500Y-70587500D03*
X186702500Y-70587500D03*
X187202500Y-70587500D03*
X187702500Y-70587500D03*
X188202500Y-70587500D03*
X188702500Y-70587500D03*
%TD*%
D24*
%TO.C,D3*%
X197602500Y-70000000D03*
X196027500Y-70000000D03*
%TD*%
D25*
%TO.C,D2*%
X155602500Y-109075000D03*
X155602500Y-107500000D03*
%TD*%
D17*
%TO.C,R7*%
X203602500Y-69675000D03*
X203602500Y-71325000D03*
%TD*%
D14*
%TO.C,SW4*%
X188102500Y-94625000D03*
X188102500Y-102375000D03*
%TD*%
D17*
%TO.C,R4*%
X194102500Y-69850000D03*
X194102500Y-71500000D03*
%TD*%
D26*
%TO.C,C4*%
X179602500Y-84397500D03*
X179602500Y-90602500D03*
%TD*%
D17*
%TO.C,R16*%
X164500000Y-121675000D03*
X164500000Y-123325000D03*
%TD*%
%TO.C,R8*%
X207102500Y-69675000D03*
X207102500Y-71325000D03*
%TD*%
D26*
%TO.C,C3*%
X188102500Y-84397500D03*
X188102500Y-90602500D03*
%TD*%
D16*
%TO.C,C1*%
X88397500Y-121500000D03*
X94602500Y-121500000D03*
%TD*%
D27*
%TO.C,SW6*%
X77102500Y-118365000D03*
X77102500Y-111635000D03*
%TD*%
D28*
%TO.C,R2*%
X162252500Y-99500000D03*
X160602500Y-99500000D03*
%TD*%
D25*
%TO.C,D1*%
X196102500Y-99287500D03*
X196102500Y-97712500D03*
%TD*%
D14*
%TO.C,SW3*%
X138000000Y-125625000D03*
X138000000Y-133375000D03*
%TD*%
D29*
%TO.C,U6*%
X76452500Y-101200000D03*
X76452500Y-103500000D03*
D30*
X82752500Y-103500000D03*
D29*
X76452500Y-105800000D03*
%TD*%
D31*
%TO.C,U2*%
X141057500Y-82685000D03*
X141057500Y-83955000D03*
X141057500Y-85225000D03*
X141057500Y-86495000D03*
X141057500Y-87765000D03*
X141057500Y-89035000D03*
X141057500Y-90305000D03*
X141057500Y-91575000D03*
X141057500Y-92845000D03*
X141057500Y-94115000D03*
X141057500Y-95385000D03*
X141057500Y-96655000D03*
X141057500Y-97925000D03*
X141057500Y-99195000D03*
D32*
X144097500Y-100445000D03*
X145367500Y-100445000D03*
X146637500Y-100445000D03*
X147907500Y-100445000D03*
X149177500Y-100445000D03*
X150447500Y-100445000D03*
X151717500Y-100445000D03*
X152987500Y-100445000D03*
X154257500Y-100445000D03*
X155527500Y-100445000D03*
D31*
X158557500Y-99195000D03*
X158557500Y-97925000D03*
X158557500Y-96655000D03*
X158557500Y-95385000D03*
X158557500Y-94115000D03*
X158557500Y-92845000D03*
X158557500Y-91575000D03*
X158557500Y-90305000D03*
X158557500Y-89035000D03*
X158557500Y-87765000D03*
X158557500Y-86495000D03*
X158557500Y-85225000D03*
X158557500Y-83955000D03*
X158557500Y-82685000D03*
D33*
X147602500Y-88500000D03*
X147602500Y-90025000D03*
X147602500Y-91550000D03*
X149127500Y-88500000D03*
X149127500Y-90025000D03*
X149127500Y-91550000D03*
X150652500Y-88500000D03*
X150652500Y-90025000D03*
X150652500Y-91550000D03*
%TD*%
D17*
%TO.C,R17*%
X138000000Y-122175000D03*
X138000000Y-123825000D03*
%TD*%
D15*
%TO.C,R1*%
X182777500Y-94000000D03*
X184427500Y-94000000D03*
%TD*%
D34*
%TO.C,F1*%
X211602500Y-75800000D03*
X211602500Y-83200000D03*
%TD*%
D15*
%TO.C,R12*%
X194952500Y-92500000D03*
X196602500Y-92500000D03*
%TD*%
D14*
%TO.C,SW1*%
X152102500Y-125625000D03*
X152102500Y-133375000D03*
%TD*%
D15*
%TO.C,R13*%
X162777500Y-94000000D03*
X164427500Y-94000000D03*
%TD*%
M02*
