%TF.GenerationSoftware,KiCad,Pcbnew,9.0.1*%
%TF.CreationDate,2025-10-26T11:51:32+05:30*%
%TF.ProjectId,SoundTab,536f756e-6454-4616-922e-6b696361645f,rev?*%
%TF.SameCoordinates,Original*%
%TF.FileFunction,Legend,Top*%
%TF.FilePolarity,Positive*%
%FSLAX46Y46*%
G04 Gerber Fmt 4.6, Leading zero omitted, Abs format (unit mm)*
G04 Created by KiCad (PCBNEW 9.0.1) date 2025-10-26 11:51:32*
%MOMM*%
%LPD*%
G01*
G04 APERTURE LIST*
%ADD10C,0.300000*%
%ADD11C,0.200000*%
%ADD12C,0.150000*%
%ADD13C,0.100000*%
%ADD14C,0.120000*%
%ADD15C,0.127000*%
%ADD16C,0.000000*%
G04 APERTURE END LIST*
D10*
X184411653Y-138117257D02*
X184411653Y-135117257D01*
X184411653Y-135117257D02*
X185411653Y-137260114D01*
X185411653Y-137260114D02*
X186411653Y-135117257D01*
X186411653Y-135117257D02*
X186411653Y-138117257D01*
X187697367Y-137260114D02*
X189125939Y-137260114D01*
X187411653Y-138117257D02*
X188411653Y-135117257D01*
X188411653Y-135117257D02*
X189411653Y-138117257D01*
X190411653Y-138117257D02*
X190411653Y-135117257D01*
X190411653Y-135117257D02*
X191125939Y-135117257D01*
X191125939Y-135117257D02*
X191554510Y-135260114D01*
X191554510Y-135260114D02*
X191840225Y-135545828D01*
X191840225Y-135545828D02*
X191983082Y-135831542D01*
X191983082Y-135831542D02*
X192125939Y-136402971D01*
X192125939Y-136402971D02*
X192125939Y-136831542D01*
X192125939Y-136831542D02*
X191983082Y-137402971D01*
X191983082Y-137402971D02*
X191840225Y-137688685D01*
X191840225Y-137688685D02*
X191554510Y-137974400D01*
X191554510Y-137974400D02*
X191125939Y-138117257D01*
X191125939Y-138117257D02*
X190411653Y-138117257D01*
X193411653Y-136545828D02*
X194411653Y-136545828D01*
X194840225Y-138117257D02*
X193411653Y-138117257D01*
X193411653Y-138117257D02*
X193411653Y-135117257D01*
X193411653Y-135117257D02*
X194840225Y-135117257D01*
X198411653Y-138117257D02*
X198411653Y-135117257D01*
X199840224Y-138117257D02*
X199840224Y-135117257D01*
X199840224Y-135117257D02*
X201554510Y-138117257D01*
X201554510Y-138117257D02*
X201554510Y-135117257D01*
X205268795Y-138117257D02*
X205268795Y-135117257D01*
X206697366Y-138117257D02*
X206697366Y-135117257D01*
X206697366Y-135117257D02*
X208411652Y-138117257D01*
X208411652Y-138117257D02*
X208411652Y-135117257D01*
X209840223Y-138117257D02*
X209840223Y-135117257D01*
X209840223Y-135117257D02*
X210554509Y-135117257D01*
X210554509Y-135117257D02*
X210983080Y-135260114D01*
X210983080Y-135260114D02*
X211268795Y-135545828D01*
X211268795Y-135545828D02*
X211411652Y-135831542D01*
X211411652Y-135831542D02*
X211554509Y-136402971D01*
X211554509Y-136402971D02*
X211554509Y-136831542D01*
X211554509Y-136831542D02*
X211411652Y-137402971D01*
X211411652Y-137402971D02*
X211268795Y-137688685D01*
X211268795Y-137688685D02*
X210983080Y-137974400D01*
X210983080Y-137974400D02*
X210554509Y-138117257D01*
X210554509Y-138117257D02*
X209840223Y-138117257D01*
X212840223Y-138117257D02*
X212840223Y-135117257D01*
X214125937Y-137260114D02*
X215554509Y-137260114D01*
X213840223Y-138117257D02*
X214840223Y-135117257D01*
X214840223Y-135117257D02*
X215840223Y-138117257D01*
D11*
X98369673Y-125707555D02*
X98369673Y-124707555D01*
X98369673Y-124707555D02*
X98607768Y-124707555D01*
X98607768Y-124707555D02*
X98750625Y-124755174D01*
X98750625Y-124755174D02*
X98845863Y-124850412D01*
X98845863Y-124850412D02*
X98893482Y-124945650D01*
X98893482Y-124945650D02*
X98941101Y-125136126D01*
X98941101Y-125136126D02*
X98941101Y-125278983D01*
X98941101Y-125278983D02*
X98893482Y-125469459D01*
X98893482Y-125469459D02*
X98845863Y-125564697D01*
X98845863Y-125564697D02*
X98750625Y-125659936D01*
X98750625Y-125659936D02*
X98607768Y-125707555D01*
X98607768Y-125707555D02*
X98369673Y-125707555D01*
X99750625Y-125659936D02*
X99655387Y-125707555D01*
X99655387Y-125707555D02*
X99464911Y-125707555D01*
X99464911Y-125707555D02*
X99369673Y-125659936D01*
X99369673Y-125659936D02*
X99322054Y-125564697D01*
X99322054Y-125564697D02*
X99322054Y-125183745D01*
X99322054Y-125183745D02*
X99369673Y-125088507D01*
X99369673Y-125088507D02*
X99464911Y-125040888D01*
X99464911Y-125040888D02*
X99655387Y-125040888D01*
X99655387Y-125040888D02*
X99750625Y-125088507D01*
X99750625Y-125088507D02*
X99798244Y-125183745D01*
X99798244Y-125183745D02*
X99798244Y-125278983D01*
X99798244Y-125278983D02*
X99322054Y-125374221D01*
X100179197Y-125659936D02*
X100274435Y-125707555D01*
X100274435Y-125707555D02*
X100464911Y-125707555D01*
X100464911Y-125707555D02*
X100560149Y-125659936D01*
X100560149Y-125659936D02*
X100607768Y-125564697D01*
X100607768Y-125564697D02*
X100607768Y-125517078D01*
X100607768Y-125517078D02*
X100560149Y-125421840D01*
X100560149Y-125421840D02*
X100464911Y-125374221D01*
X100464911Y-125374221D02*
X100322054Y-125374221D01*
X100322054Y-125374221D02*
X100226816Y-125326602D01*
X100226816Y-125326602D02*
X100179197Y-125231364D01*
X100179197Y-125231364D02*
X100179197Y-125183745D01*
X100179197Y-125183745D02*
X100226816Y-125088507D01*
X100226816Y-125088507D02*
X100322054Y-125040888D01*
X100322054Y-125040888D02*
X100464911Y-125040888D01*
X100464911Y-125040888D02*
X100560149Y-125088507D01*
X101036340Y-125707555D02*
X101036340Y-125040888D01*
X101036340Y-124707555D02*
X100988721Y-124755174D01*
X100988721Y-124755174D02*
X101036340Y-124802793D01*
X101036340Y-124802793D02*
X101083959Y-124755174D01*
X101083959Y-124755174D02*
X101036340Y-124707555D01*
X101036340Y-124707555D02*
X101036340Y-124802793D01*
X101941101Y-125040888D02*
X101941101Y-125850412D01*
X101941101Y-125850412D02*
X101893482Y-125945650D01*
X101893482Y-125945650D02*
X101845863Y-125993269D01*
X101845863Y-125993269D02*
X101750625Y-126040888D01*
X101750625Y-126040888D02*
X101607768Y-126040888D01*
X101607768Y-126040888D02*
X101512530Y-125993269D01*
X101941101Y-125659936D02*
X101845863Y-125707555D01*
X101845863Y-125707555D02*
X101655387Y-125707555D01*
X101655387Y-125707555D02*
X101560149Y-125659936D01*
X101560149Y-125659936D02*
X101512530Y-125612316D01*
X101512530Y-125612316D02*
X101464911Y-125517078D01*
X101464911Y-125517078D02*
X101464911Y-125231364D01*
X101464911Y-125231364D02*
X101512530Y-125136126D01*
X101512530Y-125136126D02*
X101560149Y-125088507D01*
X101560149Y-125088507D02*
X101655387Y-125040888D01*
X101655387Y-125040888D02*
X101845863Y-125040888D01*
X101845863Y-125040888D02*
X101941101Y-125088507D01*
X102417292Y-125040888D02*
X102417292Y-125707555D01*
X102417292Y-125136126D02*
X102464911Y-125088507D01*
X102464911Y-125088507D02*
X102560149Y-125040888D01*
X102560149Y-125040888D02*
X102703006Y-125040888D01*
X102703006Y-125040888D02*
X102798244Y-125088507D01*
X102798244Y-125088507D02*
X102845863Y-125183745D01*
X102845863Y-125183745D02*
X102845863Y-125707555D01*
X103703006Y-125659936D02*
X103607768Y-125707555D01*
X103607768Y-125707555D02*
X103417292Y-125707555D01*
X103417292Y-125707555D02*
X103322054Y-125659936D01*
X103322054Y-125659936D02*
X103274435Y-125564697D01*
X103274435Y-125564697D02*
X103274435Y-125183745D01*
X103274435Y-125183745D02*
X103322054Y-125088507D01*
X103322054Y-125088507D02*
X103417292Y-125040888D01*
X103417292Y-125040888D02*
X103607768Y-125040888D01*
X103607768Y-125040888D02*
X103703006Y-125088507D01*
X103703006Y-125088507D02*
X103750625Y-125183745D01*
X103750625Y-125183745D02*
X103750625Y-125278983D01*
X103750625Y-125278983D02*
X103274435Y-125374221D01*
X104179197Y-125707555D02*
X104179197Y-125040888D01*
X104179197Y-125231364D02*
X104226816Y-125136126D01*
X104226816Y-125136126D02*
X104274435Y-125088507D01*
X104274435Y-125088507D02*
X104369673Y-125040888D01*
X104369673Y-125040888D02*
X104464911Y-125040888D01*
X104845864Y-124707555D02*
X104750626Y-124898031D01*
X105226816Y-125659936D02*
X105322054Y-125707555D01*
X105322054Y-125707555D02*
X105512530Y-125707555D01*
X105512530Y-125707555D02*
X105607768Y-125659936D01*
X105607768Y-125659936D02*
X105655387Y-125564697D01*
X105655387Y-125564697D02*
X105655387Y-125517078D01*
X105655387Y-125517078D02*
X105607768Y-125421840D01*
X105607768Y-125421840D02*
X105512530Y-125374221D01*
X105512530Y-125374221D02*
X105369673Y-125374221D01*
X105369673Y-125374221D02*
X105274435Y-125326602D01*
X105274435Y-125326602D02*
X105226816Y-125231364D01*
X105226816Y-125231364D02*
X105226816Y-125183745D01*
X105226816Y-125183745D02*
X105274435Y-125088507D01*
X105274435Y-125088507D02*
X105369673Y-125040888D01*
X105369673Y-125040888D02*
X105512530Y-125040888D01*
X105512530Y-125040888D02*
X105607768Y-125088507D01*
X106845864Y-125707555D02*
X106845864Y-124707555D01*
X106845864Y-124707555D02*
X107417292Y-125707555D01*
X107417292Y-125707555D02*
X107417292Y-124707555D01*
X108036340Y-125707555D02*
X107941102Y-125659936D01*
X107941102Y-125659936D02*
X107893483Y-125612316D01*
X107893483Y-125612316D02*
X107845864Y-125517078D01*
X107845864Y-125517078D02*
X107845864Y-125231364D01*
X107845864Y-125231364D02*
X107893483Y-125136126D01*
X107893483Y-125136126D02*
X107941102Y-125088507D01*
X107941102Y-125088507D02*
X108036340Y-125040888D01*
X108036340Y-125040888D02*
X108179197Y-125040888D01*
X108179197Y-125040888D02*
X108274435Y-125088507D01*
X108274435Y-125088507D02*
X108322054Y-125136126D01*
X108322054Y-125136126D02*
X108369673Y-125231364D01*
X108369673Y-125231364D02*
X108369673Y-125517078D01*
X108369673Y-125517078D02*
X108322054Y-125612316D01*
X108322054Y-125612316D02*
X108274435Y-125659936D01*
X108274435Y-125659936D02*
X108179197Y-125707555D01*
X108179197Y-125707555D02*
X108036340Y-125707555D01*
X108655388Y-125040888D02*
X109036340Y-125040888D01*
X108798245Y-124707555D02*
X108798245Y-125564697D01*
X108798245Y-125564697D02*
X108845864Y-125659936D01*
X108845864Y-125659936D02*
X108941102Y-125707555D01*
X108941102Y-125707555D02*
X109036340Y-125707555D01*
X109750626Y-125659936D02*
X109655388Y-125707555D01*
X109655388Y-125707555D02*
X109464912Y-125707555D01*
X109464912Y-125707555D02*
X109369674Y-125659936D01*
X109369674Y-125659936D02*
X109322055Y-125564697D01*
X109322055Y-125564697D02*
X109322055Y-125183745D01*
X109322055Y-125183745D02*
X109369674Y-125088507D01*
X109369674Y-125088507D02*
X109464912Y-125040888D01*
X109464912Y-125040888D02*
X109655388Y-125040888D01*
X109655388Y-125040888D02*
X109750626Y-125088507D01*
X109750626Y-125088507D02*
X109798245Y-125183745D01*
X109798245Y-125183745D02*
X109798245Y-125278983D01*
X109798245Y-125278983D02*
X109322055Y-125374221D01*
X110226817Y-125612316D02*
X110274436Y-125659936D01*
X110274436Y-125659936D02*
X110226817Y-125707555D01*
X110226817Y-125707555D02*
X110179198Y-125659936D01*
X110179198Y-125659936D02*
X110226817Y-125612316D01*
X110226817Y-125612316D02*
X110226817Y-125707555D01*
X110226817Y-125088507D02*
X110274436Y-125136126D01*
X110274436Y-125136126D02*
X110226817Y-125183745D01*
X110226817Y-125183745D02*
X110179198Y-125136126D01*
X110179198Y-125136126D02*
X110226817Y-125088507D01*
X110226817Y-125088507D02*
X110226817Y-125183745D01*
X98226816Y-126317499D02*
X98798244Y-126317499D01*
X98512530Y-127317499D02*
X98512530Y-126317499D01*
X99131578Y-127317499D02*
X99131578Y-126317499D01*
X99560149Y-127317499D02*
X99560149Y-126793689D01*
X99560149Y-126793689D02*
X99512530Y-126698451D01*
X99512530Y-126698451D02*
X99417292Y-126650832D01*
X99417292Y-126650832D02*
X99274435Y-126650832D01*
X99274435Y-126650832D02*
X99179197Y-126698451D01*
X99179197Y-126698451D02*
X99131578Y-126746070D01*
X100036340Y-127317499D02*
X100036340Y-126650832D01*
X100036340Y-126317499D02*
X99988721Y-126365118D01*
X99988721Y-126365118D02*
X100036340Y-126412737D01*
X100036340Y-126412737D02*
X100083959Y-126365118D01*
X100083959Y-126365118D02*
X100036340Y-126317499D01*
X100036340Y-126317499D02*
X100036340Y-126412737D01*
X100464911Y-127269880D02*
X100560149Y-127317499D01*
X100560149Y-127317499D02*
X100750625Y-127317499D01*
X100750625Y-127317499D02*
X100845863Y-127269880D01*
X100845863Y-127269880D02*
X100893482Y-127174641D01*
X100893482Y-127174641D02*
X100893482Y-127127022D01*
X100893482Y-127127022D02*
X100845863Y-127031784D01*
X100845863Y-127031784D02*
X100750625Y-126984165D01*
X100750625Y-126984165D02*
X100607768Y-126984165D01*
X100607768Y-126984165D02*
X100512530Y-126936546D01*
X100512530Y-126936546D02*
X100464911Y-126841308D01*
X100464911Y-126841308D02*
X100464911Y-126793689D01*
X100464911Y-126793689D02*
X100512530Y-126698451D01*
X100512530Y-126698451D02*
X100607768Y-126650832D01*
X100607768Y-126650832D02*
X100750625Y-126650832D01*
X100750625Y-126650832D02*
X100845863Y-126698451D01*
X102083959Y-127317499D02*
X102083959Y-126650832D01*
X102083959Y-126317499D02*
X102036340Y-126365118D01*
X102036340Y-126365118D02*
X102083959Y-126412737D01*
X102083959Y-126412737D02*
X102131578Y-126365118D01*
X102131578Y-126365118D02*
X102083959Y-126317499D01*
X102083959Y-126317499D02*
X102083959Y-126412737D01*
X102512530Y-127269880D02*
X102607768Y-127317499D01*
X102607768Y-127317499D02*
X102798244Y-127317499D01*
X102798244Y-127317499D02*
X102893482Y-127269880D01*
X102893482Y-127269880D02*
X102941101Y-127174641D01*
X102941101Y-127174641D02*
X102941101Y-127127022D01*
X102941101Y-127127022D02*
X102893482Y-127031784D01*
X102893482Y-127031784D02*
X102798244Y-126984165D01*
X102798244Y-126984165D02*
X102655387Y-126984165D01*
X102655387Y-126984165D02*
X102560149Y-126936546D01*
X102560149Y-126936546D02*
X102512530Y-126841308D01*
X102512530Y-126841308D02*
X102512530Y-126793689D01*
X102512530Y-126793689D02*
X102560149Y-126698451D01*
X102560149Y-126698451D02*
X102655387Y-126650832D01*
X102655387Y-126650832D02*
X102798244Y-126650832D01*
X102798244Y-126650832D02*
X102893482Y-126698451D01*
X103988721Y-126650832D02*
X104369673Y-126650832D01*
X104131578Y-126317499D02*
X104131578Y-127174641D01*
X104131578Y-127174641D02*
X104179197Y-127269880D01*
X104179197Y-127269880D02*
X104274435Y-127317499D01*
X104274435Y-127317499D02*
X104369673Y-127317499D01*
X104703007Y-127317499D02*
X104703007Y-126317499D01*
X105131578Y-127317499D02*
X105131578Y-126793689D01*
X105131578Y-126793689D02*
X105083959Y-126698451D01*
X105083959Y-126698451D02*
X104988721Y-126650832D01*
X104988721Y-126650832D02*
X104845864Y-126650832D01*
X104845864Y-126650832D02*
X104750626Y-126698451D01*
X104750626Y-126698451D02*
X104703007Y-126746070D01*
X105988721Y-127269880D02*
X105893483Y-127317499D01*
X105893483Y-127317499D02*
X105703007Y-127317499D01*
X105703007Y-127317499D02*
X105607769Y-127269880D01*
X105607769Y-127269880D02*
X105560150Y-127174641D01*
X105560150Y-127174641D02*
X105560150Y-126793689D01*
X105560150Y-126793689D02*
X105607769Y-126698451D01*
X105607769Y-126698451D02*
X105703007Y-126650832D01*
X105703007Y-126650832D02*
X105893483Y-126650832D01*
X105893483Y-126650832D02*
X105988721Y-126698451D01*
X105988721Y-126698451D02*
X106036340Y-126793689D01*
X106036340Y-126793689D02*
X106036340Y-126888927D01*
X106036340Y-126888927D02*
X105560150Y-126984165D01*
X107083960Y-126650832D02*
X107464912Y-126650832D01*
X107226817Y-127317499D02*
X107226817Y-126460356D01*
X107226817Y-126460356D02*
X107274436Y-126365118D01*
X107274436Y-126365118D02*
X107369674Y-126317499D01*
X107369674Y-126317499D02*
X107464912Y-126317499D01*
X107798246Y-127317499D02*
X107798246Y-126650832D01*
X107798246Y-126317499D02*
X107750627Y-126365118D01*
X107750627Y-126365118D02*
X107798246Y-126412737D01*
X107798246Y-126412737D02*
X107845865Y-126365118D01*
X107845865Y-126365118D02*
X107798246Y-126317499D01*
X107798246Y-126317499D02*
X107798246Y-126412737D01*
X108274436Y-127317499D02*
X108274436Y-126650832D01*
X108274436Y-126841308D02*
X108322055Y-126746070D01*
X108322055Y-126746070D02*
X108369674Y-126698451D01*
X108369674Y-126698451D02*
X108464912Y-126650832D01*
X108464912Y-126650832D02*
X108560150Y-126650832D01*
X108845865Y-127269880D02*
X108941103Y-127317499D01*
X108941103Y-127317499D02*
X109131579Y-127317499D01*
X109131579Y-127317499D02*
X109226817Y-127269880D01*
X109226817Y-127269880D02*
X109274436Y-127174641D01*
X109274436Y-127174641D02*
X109274436Y-127127022D01*
X109274436Y-127127022D02*
X109226817Y-127031784D01*
X109226817Y-127031784D02*
X109131579Y-126984165D01*
X109131579Y-126984165D02*
X108988722Y-126984165D01*
X108988722Y-126984165D02*
X108893484Y-126936546D01*
X108893484Y-126936546D02*
X108845865Y-126841308D01*
X108845865Y-126841308D02*
X108845865Y-126793689D01*
X108845865Y-126793689D02*
X108893484Y-126698451D01*
X108893484Y-126698451D02*
X108988722Y-126650832D01*
X108988722Y-126650832D02*
X109131579Y-126650832D01*
X109131579Y-126650832D02*
X109226817Y-126698451D01*
X109560151Y-126650832D02*
X109941103Y-126650832D01*
X109703008Y-126317499D02*
X109703008Y-127174641D01*
X109703008Y-127174641D02*
X109750627Y-127269880D01*
X109750627Y-127269880D02*
X109845865Y-127317499D01*
X109845865Y-127317499D02*
X109941103Y-127317499D01*
X111417294Y-127269880D02*
X111322056Y-127317499D01*
X111322056Y-127317499D02*
X111131580Y-127317499D01*
X111131580Y-127317499D02*
X111036342Y-127269880D01*
X111036342Y-127269880D02*
X110988723Y-127174641D01*
X110988723Y-127174641D02*
X110988723Y-126793689D01*
X110988723Y-126793689D02*
X111036342Y-126698451D01*
X111036342Y-126698451D02*
X111131580Y-126650832D01*
X111131580Y-126650832D02*
X111322056Y-126650832D01*
X111322056Y-126650832D02*
X111417294Y-126698451D01*
X111417294Y-126698451D02*
X111464913Y-126793689D01*
X111464913Y-126793689D02*
X111464913Y-126888927D01*
X111464913Y-126888927D02*
X110988723Y-126984165D01*
X111798247Y-126650832D02*
X112036342Y-127317499D01*
X112036342Y-127317499D02*
X112274437Y-126650832D01*
X113036342Y-127269880D02*
X112941104Y-127317499D01*
X112941104Y-127317499D02*
X112750628Y-127317499D01*
X112750628Y-127317499D02*
X112655390Y-127269880D01*
X112655390Y-127269880D02*
X112607771Y-127174641D01*
X112607771Y-127174641D02*
X112607771Y-126793689D01*
X112607771Y-126793689D02*
X112655390Y-126698451D01*
X112655390Y-126698451D02*
X112750628Y-126650832D01*
X112750628Y-126650832D02*
X112941104Y-126650832D01*
X112941104Y-126650832D02*
X113036342Y-126698451D01*
X113036342Y-126698451D02*
X113083961Y-126793689D01*
X113083961Y-126793689D02*
X113083961Y-126888927D01*
X113083961Y-126888927D02*
X112607771Y-126984165D01*
X113512533Y-127317499D02*
X113512533Y-126650832D01*
X113512533Y-126841308D02*
X113560152Y-126746070D01*
X113560152Y-126746070D02*
X113607771Y-126698451D01*
X113607771Y-126698451D02*
X113703009Y-126650832D01*
X113703009Y-126650832D02*
X113798247Y-126650832D01*
X114893486Y-127317499D02*
X114893486Y-126317499D01*
X114893486Y-126317499D02*
X115274438Y-126317499D01*
X115274438Y-126317499D02*
X115369676Y-126365118D01*
X115369676Y-126365118D02*
X115417295Y-126412737D01*
X115417295Y-126412737D02*
X115464914Y-126507975D01*
X115464914Y-126507975D02*
X115464914Y-126650832D01*
X115464914Y-126650832D02*
X115417295Y-126746070D01*
X115417295Y-126746070D02*
X115369676Y-126793689D01*
X115369676Y-126793689D02*
X115274438Y-126841308D01*
X115274438Y-126841308D02*
X114893486Y-126841308D01*
X116464914Y-127222260D02*
X116417295Y-127269880D01*
X116417295Y-127269880D02*
X116274438Y-127317499D01*
X116274438Y-127317499D02*
X116179200Y-127317499D01*
X116179200Y-127317499D02*
X116036343Y-127269880D01*
X116036343Y-127269880D02*
X115941105Y-127174641D01*
X115941105Y-127174641D02*
X115893486Y-127079403D01*
X115893486Y-127079403D02*
X115845867Y-126888927D01*
X115845867Y-126888927D02*
X115845867Y-126746070D01*
X115845867Y-126746070D02*
X115893486Y-126555594D01*
X115893486Y-126555594D02*
X115941105Y-126460356D01*
X115941105Y-126460356D02*
X116036343Y-126365118D01*
X116036343Y-126365118D02*
X116179200Y-126317499D01*
X116179200Y-126317499D02*
X116274438Y-126317499D01*
X116274438Y-126317499D02*
X116417295Y-126365118D01*
X116417295Y-126365118D02*
X116464914Y-126412737D01*
X117226819Y-126793689D02*
X117369676Y-126841308D01*
X117369676Y-126841308D02*
X117417295Y-126888927D01*
X117417295Y-126888927D02*
X117464914Y-126984165D01*
X117464914Y-126984165D02*
X117464914Y-127127022D01*
X117464914Y-127127022D02*
X117417295Y-127222260D01*
X117417295Y-127222260D02*
X117369676Y-127269880D01*
X117369676Y-127269880D02*
X117274438Y-127317499D01*
X117274438Y-127317499D02*
X116893486Y-127317499D01*
X116893486Y-127317499D02*
X116893486Y-126317499D01*
X116893486Y-126317499D02*
X117226819Y-126317499D01*
X117226819Y-126317499D02*
X117322057Y-126365118D01*
X117322057Y-126365118D02*
X117369676Y-126412737D01*
X117369676Y-126412737D02*
X117417295Y-126507975D01*
X117417295Y-126507975D02*
X117417295Y-126603213D01*
X117417295Y-126603213D02*
X117369676Y-126698451D01*
X117369676Y-126698451D02*
X117322057Y-126746070D01*
X117322057Y-126746070D02*
X117226819Y-126793689D01*
X117226819Y-126793689D02*
X116893486Y-126793689D01*
X118512534Y-126650832D02*
X118893486Y-126650832D01*
X118655391Y-126317499D02*
X118655391Y-127174641D01*
X118655391Y-127174641D02*
X118703010Y-127269880D01*
X118703010Y-127269880D02*
X118798248Y-127317499D01*
X118798248Y-127317499D02*
X118893486Y-127317499D01*
X119226820Y-127317499D02*
X119226820Y-126317499D01*
X119655391Y-127317499D02*
X119655391Y-126793689D01*
X119655391Y-126793689D02*
X119607772Y-126698451D01*
X119607772Y-126698451D02*
X119512534Y-126650832D01*
X119512534Y-126650832D02*
X119369677Y-126650832D01*
X119369677Y-126650832D02*
X119274439Y-126698451D01*
X119274439Y-126698451D02*
X119226820Y-126746070D01*
X120560153Y-127317499D02*
X120560153Y-126793689D01*
X120560153Y-126793689D02*
X120512534Y-126698451D01*
X120512534Y-126698451D02*
X120417296Y-126650832D01*
X120417296Y-126650832D02*
X120226820Y-126650832D01*
X120226820Y-126650832D02*
X120131582Y-126698451D01*
X120560153Y-127269880D02*
X120464915Y-127317499D01*
X120464915Y-127317499D02*
X120226820Y-127317499D01*
X120226820Y-127317499D02*
X120131582Y-127269880D01*
X120131582Y-127269880D02*
X120083963Y-127174641D01*
X120083963Y-127174641D02*
X120083963Y-127079403D01*
X120083963Y-127079403D02*
X120131582Y-126984165D01*
X120131582Y-126984165D02*
X120226820Y-126936546D01*
X120226820Y-126936546D02*
X120464915Y-126936546D01*
X120464915Y-126936546D02*
X120560153Y-126888927D01*
X120893487Y-126650832D02*
X121274439Y-126650832D01*
X121036344Y-126317499D02*
X121036344Y-127174641D01*
X121036344Y-127174641D02*
X121083963Y-127269880D01*
X121083963Y-127269880D02*
X121179201Y-127317499D01*
X121179201Y-127317499D02*
X121274439Y-127317499D01*
X122369678Y-127317499D02*
X122369678Y-126317499D01*
X123607773Y-127317499D02*
X123607773Y-126650832D01*
X123607773Y-126746070D02*
X123655392Y-126698451D01*
X123655392Y-126698451D02*
X123750630Y-126650832D01*
X123750630Y-126650832D02*
X123893487Y-126650832D01*
X123893487Y-126650832D02*
X123988725Y-126698451D01*
X123988725Y-126698451D02*
X124036344Y-126793689D01*
X124036344Y-126793689D02*
X124036344Y-127317499D01*
X124036344Y-126793689D02*
X124083963Y-126698451D01*
X124083963Y-126698451D02*
X124179201Y-126650832D01*
X124179201Y-126650832D02*
X124322058Y-126650832D01*
X124322058Y-126650832D02*
X124417297Y-126698451D01*
X124417297Y-126698451D02*
X124464916Y-126793689D01*
X124464916Y-126793689D02*
X124464916Y-127317499D01*
X125369677Y-127317499D02*
X125369677Y-126793689D01*
X125369677Y-126793689D02*
X125322058Y-126698451D01*
X125322058Y-126698451D02*
X125226820Y-126650832D01*
X125226820Y-126650832D02*
X125036344Y-126650832D01*
X125036344Y-126650832D02*
X124941106Y-126698451D01*
X125369677Y-127269880D02*
X125274439Y-127317499D01*
X125274439Y-127317499D02*
X125036344Y-127317499D01*
X125036344Y-127317499D02*
X124941106Y-127269880D01*
X124941106Y-127269880D02*
X124893487Y-127174641D01*
X124893487Y-127174641D02*
X124893487Y-127079403D01*
X124893487Y-127079403D02*
X124941106Y-126984165D01*
X124941106Y-126984165D02*
X125036344Y-126936546D01*
X125036344Y-126936546D02*
X125274439Y-126936546D01*
X125274439Y-126936546D02*
X125369677Y-126888927D01*
X126274439Y-127317499D02*
X126274439Y-126317499D01*
X126274439Y-127269880D02*
X126179201Y-127317499D01*
X126179201Y-127317499D02*
X125988725Y-127317499D01*
X125988725Y-127317499D02*
X125893487Y-127269880D01*
X125893487Y-127269880D02*
X125845868Y-127222260D01*
X125845868Y-127222260D02*
X125798249Y-127127022D01*
X125798249Y-127127022D02*
X125798249Y-126841308D01*
X125798249Y-126841308D02*
X125845868Y-126746070D01*
X125845868Y-126746070D02*
X125893487Y-126698451D01*
X125893487Y-126698451D02*
X125988725Y-126650832D01*
X125988725Y-126650832D02*
X126179201Y-126650832D01*
X126179201Y-126650832D02*
X126274439Y-126698451D01*
X127131582Y-127269880D02*
X127036344Y-127317499D01*
X127036344Y-127317499D02*
X126845868Y-127317499D01*
X126845868Y-127317499D02*
X126750630Y-127269880D01*
X126750630Y-127269880D02*
X126703011Y-127174641D01*
X126703011Y-127174641D02*
X126703011Y-126793689D01*
X126703011Y-126793689D02*
X126750630Y-126698451D01*
X126750630Y-126698451D02*
X126845868Y-126650832D01*
X126845868Y-126650832D02*
X127036344Y-126650832D01*
X127036344Y-126650832D02*
X127131582Y-126698451D01*
X127131582Y-126698451D02*
X127179201Y-126793689D01*
X127179201Y-126793689D02*
X127179201Y-126888927D01*
X127179201Y-126888927D02*
X126703011Y-126984165D01*
X127607773Y-127222260D02*
X127655392Y-127269880D01*
X127655392Y-127269880D02*
X127607773Y-127317499D01*
X127607773Y-127317499D02*
X127560154Y-127269880D01*
X127560154Y-127269880D02*
X127607773Y-127222260D01*
X127607773Y-127222260D02*
X127607773Y-127317499D01*
X98226816Y-127927443D02*
X98798244Y-127927443D01*
X98512530Y-128927443D02*
X98512530Y-127927443D01*
X99131578Y-128927443D02*
X99131578Y-127927443D01*
X99560149Y-128927443D02*
X99560149Y-128403633D01*
X99560149Y-128403633D02*
X99512530Y-128308395D01*
X99512530Y-128308395D02*
X99417292Y-128260776D01*
X99417292Y-128260776D02*
X99274435Y-128260776D01*
X99274435Y-128260776D02*
X99179197Y-128308395D01*
X99179197Y-128308395D02*
X99131578Y-128356014D01*
X100036340Y-128927443D02*
X100036340Y-128260776D01*
X100036340Y-127927443D02*
X99988721Y-127975062D01*
X99988721Y-127975062D02*
X100036340Y-128022681D01*
X100036340Y-128022681D02*
X100083959Y-127975062D01*
X100083959Y-127975062D02*
X100036340Y-127927443D01*
X100036340Y-127927443D02*
X100036340Y-128022681D01*
X100464911Y-128879824D02*
X100560149Y-128927443D01*
X100560149Y-128927443D02*
X100750625Y-128927443D01*
X100750625Y-128927443D02*
X100845863Y-128879824D01*
X100845863Y-128879824D02*
X100893482Y-128784585D01*
X100893482Y-128784585D02*
X100893482Y-128736966D01*
X100893482Y-128736966D02*
X100845863Y-128641728D01*
X100845863Y-128641728D02*
X100750625Y-128594109D01*
X100750625Y-128594109D02*
X100607768Y-128594109D01*
X100607768Y-128594109D02*
X100512530Y-128546490D01*
X100512530Y-128546490D02*
X100464911Y-128451252D01*
X100464911Y-128451252D02*
X100464911Y-128403633D01*
X100464911Y-128403633D02*
X100512530Y-128308395D01*
X100512530Y-128308395D02*
X100607768Y-128260776D01*
X100607768Y-128260776D02*
X100750625Y-128260776D01*
X100750625Y-128260776D02*
X100845863Y-128308395D01*
X102083959Y-128927443D02*
X102083959Y-128260776D01*
X102083959Y-127927443D02*
X102036340Y-127975062D01*
X102036340Y-127975062D02*
X102083959Y-128022681D01*
X102083959Y-128022681D02*
X102131578Y-127975062D01*
X102131578Y-127975062D02*
X102083959Y-127927443D01*
X102083959Y-127927443D02*
X102083959Y-128022681D01*
X102512530Y-128879824D02*
X102607768Y-128927443D01*
X102607768Y-128927443D02*
X102798244Y-128927443D01*
X102798244Y-128927443D02*
X102893482Y-128879824D01*
X102893482Y-128879824D02*
X102941101Y-128784585D01*
X102941101Y-128784585D02*
X102941101Y-128736966D01*
X102941101Y-128736966D02*
X102893482Y-128641728D01*
X102893482Y-128641728D02*
X102798244Y-128594109D01*
X102798244Y-128594109D02*
X102655387Y-128594109D01*
X102655387Y-128594109D02*
X102560149Y-128546490D01*
X102560149Y-128546490D02*
X102512530Y-128451252D01*
X102512530Y-128451252D02*
X102512530Y-128403633D01*
X102512530Y-128403633D02*
X102560149Y-128308395D01*
X102560149Y-128308395D02*
X102655387Y-128260776D01*
X102655387Y-128260776D02*
X102798244Y-128260776D01*
X102798244Y-128260776D02*
X102893482Y-128308395D01*
X104131578Y-128927443D02*
X104131578Y-128260776D01*
X104131578Y-128356014D02*
X104179197Y-128308395D01*
X104179197Y-128308395D02*
X104274435Y-128260776D01*
X104274435Y-128260776D02*
X104417292Y-128260776D01*
X104417292Y-128260776D02*
X104512530Y-128308395D01*
X104512530Y-128308395D02*
X104560149Y-128403633D01*
X104560149Y-128403633D02*
X104560149Y-128927443D01*
X104560149Y-128403633D02*
X104607768Y-128308395D01*
X104607768Y-128308395D02*
X104703006Y-128260776D01*
X104703006Y-128260776D02*
X104845863Y-128260776D01*
X104845863Y-128260776D02*
X104941102Y-128308395D01*
X104941102Y-128308395D02*
X104988721Y-128403633D01*
X104988721Y-128403633D02*
X104988721Y-128927443D01*
X105369673Y-128260776D02*
X105607768Y-128927443D01*
X105845863Y-128260776D02*
X105607768Y-128927443D01*
X105607768Y-128927443D02*
X105512530Y-129165538D01*
X105512530Y-129165538D02*
X105464911Y-129213157D01*
X105464911Y-129213157D02*
X105369673Y-129260776D01*
X106845864Y-128260776D02*
X107226816Y-128260776D01*
X106988721Y-128927443D02*
X106988721Y-128070300D01*
X106988721Y-128070300D02*
X107036340Y-127975062D01*
X107036340Y-127975062D02*
X107131578Y-127927443D01*
X107131578Y-127927443D02*
X107226816Y-127927443D01*
X107560150Y-128927443D02*
X107560150Y-128260776D01*
X107560150Y-127927443D02*
X107512531Y-127975062D01*
X107512531Y-127975062D02*
X107560150Y-128022681D01*
X107560150Y-128022681D02*
X107607769Y-127975062D01*
X107607769Y-127975062D02*
X107560150Y-127927443D01*
X107560150Y-127927443D02*
X107560150Y-128022681D01*
X108036340Y-128927443D02*
X108036340Y-128260776D01*
X108036340Y-128451252D02*
X108083959Y-128356014D01*
X108083959Y-128356014D02*
X108131578Y-128308395D01*
X108131578Y-128308395D02*
X108226816Y-128260776D01*
X108226816Y-128260776D02*
X108322054Y-128260776D01*
X108607769Y-128879824D02*
X108703007Y-128927443D01*
X108703007Y-128927443D02*
X108893483Y-128927443D01*
X108893483Y-128927443D02*
X108988721Y-128879824D01*
X108988721Y-128879824D02*
X109036340Y-128784585D01*
X109036340Y-128784585D02*
X109036340Y-128736966D01*
X109036340Y-128736966D02*
X108988721Y-128641728D01*
X108988721Y-128641728D02*
X108893483Y-128594109D01*
X108893483Y-128594109D02*
X108750626Y-128594109D01*
X108750626Y-128594109D02*
X108655388Y-128546490D01*
X108655388Y-128546490D02*
X108607769Y-128451252D01*
X108607769Y-128451252D02*
X108607769Y-128403633D01*
X108607769Y-128403633D02*
X108655388Y-128308395D01*
X108655388Y-128308395D02*
X108750626Y-128260776D01*
X108750626Y-128260776D02*
X108893483Y-128260776D01*
X108893483Y-128260776D02*
X108988721Y-128308395D01*
X109322055Y-128260776D02*
X109703007Y-128260776D01*
X109464912Y-127927443D02*
X109464912Y-128784585D01*
X109464912Y-128784585D02*
X109512531Y-128879824D01*
X109512531Y-128879824D02*
X109607769Y-128927443D01*
X109607769Y-128927443D02*
X109703007Y-128927443D01*
X111179198Y-128879824D02*
X111083960Y-128927443D01*
X111083960Y-128927443D02*
X110893484Y-128927443D01*
X110893484Y-128927443D02*
X110798246Y-128879824D01*
X110798246Y-128879824D02*
X110750627Y-128784585D01*
X110750627Y-128784585D02*
X110750627Y-128403633D01*
X110750627Y-128403633D02*
X110798246Y-128308395D01*
X110798246Y-128308395D02*
X110893484Y-128260776D01*
X110893484Y-128260776D02*
X111083960Y-128260776D01*
X111083960Y-128260776D02*
X111179198Y-128308395D01*
X111179198Y-128308395D02*
X111226817Y-128403633D01*
X111226817Y-128403633D02*
X111226817Y-128498871D01*
X111226817Y-128498871D02*
X110750627Y-128594109D01*
X111560151Y-128927443D02*
X112083960Y-128260776D01*
X111560151Y-128260776D02*
X112083960Y-128927443D01*
X112464913Y-128260776D02*
X112464913Y-129260776D01*
X112464913Y-128308395D02*
X112560151Y-128260776D01*
X112560151Y-128260776D02*
X112750627Y-128260776D01*
X112750627Y-128260776D02*
X112845865Y-128308395D01*
X112845865Y-128308395D02*
X112893484Y-128356014D01*
X112893484Y-128356014D02*
X112941103Y-128451252D01*
X112941103Y-128451252D02*
X112941103Y-128736966D01*
X112941103Y-128736966D02*
X112893484Y-128832204D01*
X112893484Y-128832204D02*
X112845865Y-128879824D01*
X112845865Y-128879824D02*
X112750627Y-128927443D01*
X112750627Y-128927443D02*
X112560151Y-128927443D01*
X112560151Y-128927443D02*
X112464913Y-128879824D01*
X113750627Y-128879824D02*
X113655389Y-128927443D01*
X113655389Y-128927443D02*
X113464913Y-128927443D01*
X113464913Y-128927443D02*
X113369675Y-128879824D01*
X113369675Y-128879824D02*
X113322056Y-128784585D01*
X113322056Y-128784585D02*
X113322056Y-128403633D01*
X113322056Y-128403633D02*
X113369675Y-128308395D01*
X113369675Y-128308395D02*
X113464913Y-128260776D01*
X113464913Y-128260776D02*
X113655389Y-128260776D01*
X113655389Y-128260776D02*
X113750627Y-128308395D01*
X113750627Y-128308395D02*
X113798246Y-128403633D01*
X113798246Y-128403633D02*
X113798246Y-128498871D01*
X113798246Y-128498871D02*
X113322056Y-128594109D01*
X114226818Y-128927443D02*
X114226818Y-128260776D01*
X114226818Y-128451252D02*
X114274437Y-128356014D01*
X114274437Y-128356014D02*
X114322056Y-128308395D01*
X114322056Y-128308395D02*
X114417294Y-128260776D01*
X114417294Y-128260776D02*
X114512532Y-128260776D01*
X114845866Y-128927443D02*
X114845866Y-128260776D01*
X114845866Y-127927443D02*
X114798247Y-127975062D01*
X114798247Y-127975062D02*
X114845866Y-128022681D01*
X114845866Y-128022681D02*
X114893485Y-127975062D01*
X114893485Y-127975062D02*
X114845866Y-127927443D01*
X114845866Y-127927443D02*
X114845866Y-128022681D01*
X115703008Y-128879824D02*
X115607770Y-128927443D01*
X115607770Y-128927443D02*
X115417294Y-128927443D01*
X115417294Y-128927443D02*
X115322056Y-128879824D01*
X115322056Y-128879824D02*
X115274437Y-128784585D01*
X115274437Y-128784585D02*
X115274437Y-128403633D01*
X115274437Y-128403633D02*
X115322056Y-128308395D01*
X115322056Y-128308395D02*
X115417294Y-128260776D01*
X115417294Y-128260776D02*
X115607770Y-128260776D01*
X115607770Y-128260776D02*
X115703008Y-128308395D01*
X115703008Y-128308395D02*
X115750627Y-128403633D01*
X115750627Y-128403633D02*
X115750627Y-128498871D01*
X115750627Y-128498871D02*
X115274437Y-128594109D01*
X116179199Y-128260776D02*
X116179199Y-128927443D01*
X116179199Y-128356014D02*
X116226818Y-128308395D01*
X116226818Y-128308395D02*
X116322056Y-128260776D01*
X116322056Y-128260776D02*
X116464913Y-128260776D01*
X116464913Y-128260776D02*
X116560151Y-128308395D01*
X116560151Y-128308395D02*
X116607770Y-128403633D01*
X116607770Y-128403633D02*
X116607770Y-128927443D01*
X117512532Y-128879824D02*
X117417294Y-128927443D01*
X117417294Y-128927443D02*
X117226818Y-128927443D01*
X117226818Y-128927443D02*
X117131580Y-128879824D01*
X117131580Y-128879824D02*
X117083961Y-128832204D01*
X117083961Y-128832204D02*
X117036342Y-128736966D01*
X117036342Y-128736966D02*
X117036342Y-128451252D01*
X117036342Y-128451252D02*
X117083961Y-128356014D01*
X117083961Y-128356014D02*
X117131580Y-128308395D01*
X117131580Y-128308395D02*
X117226818Y-128260776D01*
X117226818Y-128260776D02*
X117417294Y-128260776D01*
X117417294Y-128260776D02*
X117512532Y-128308395D01*
X118322056Y-128879824D02*
X118226818Y-128927443D01*
X118226818Y-128927443D02*
X118036342Y-128927443D01*
X118036342Y-128927443D02*
X117941104Y-128879824D01*
X117941104Y-128879824D02*
X117893485Y-128784585D01*
X117893485Y-128784585D02*
X117893485Y-128403633D01*
X117893485Y-128403633D02*
X117941104Y-128308395D01*
X117941104Y-128308395D02*
X118036342Y-128260776D01*
X118036342Y-128260776D02*
X118226818Y-128260776D01*
X118226818Y-128260776D02*
X118322056Y-128308395D01*
X118322056Y-128308395D02*
X118369675Y-128403633D01*
X118369675Y-128403633D02*
X118369675Y-128498871D01*
X118369675Y-128498871D02*
X117893485Y-128594109D01*
X119560152Y-128927443D02*
X119560152Y-127927443D01*
X119560152Y-128308395D02*
X119655390Y-128260776D01*
X119655390Y-128260776D02*
X119845866Y-128260776D01*
X119845866Y-128260776D02*
X119941104Y-128308395D01*
X119941104Y-128308395D02*
X119988723Y-128356014D01*
X119988723Y-128356014D02*
X120036342Y-128451252D01*
X120036342Y-128451252D02*
X120036342Y-128736966D01*
X120036342Y-128736966D02*
X119988723Y-128832204D01*
X119988723Y-128832204D02*
X119941104Y-128879824D01*
X119941104Y-128879824D02*
X119845866Y-128927443D01*
X119845866Y-128927443D02*
X119655390Y-128927443D01*
X119655390Y-128927443D02*
X119560152Y-128879824D01*
X120845866Y-128879824D02*
X120750628Y-128927443D01*
X120750628Y-128927443D02*
X120560152Y-128927443D01*
X120560152Y-128927443D02*
X120464914Y-128879824D01*
X120464914Y-128879824D02*
X120417295Y-128784585D01*
X120417295Y-128784585D02*
X120417295Y-128403633D01*
X120417295Y-128403633D02*
X120464914Y-128308395D01*
X120464914Y-128308395D02*
X120560152Y-128260776D01*
X120560152Y-128260776D02*
X120750628Y-128260776D01*
X120750628Y-128260776D02*
X120845866Y-128308395D01*
X120845866Y-128308395D02*
X120893485Y-128403633D01*
X120893485Y-128403633D02*
X120893485Y-128498871D01*
X120893485Y-128498871D02*
X120417295Y-128594109D01*
X121322057Y-128927443D02*
X121322057Y-128260776D01*
X121322057Y-127927443D02*
X121274438Y-127975062D01*
X121274438Y-127975062D02*
X121322057Y-128022681D01*
X121322057Y-128022681D02*
X121369676Y-127975062D01*
X121369676Y-127975062D02*
X121322057Y-127927443D01*
X121322057Y-127927443D02*
X121322057Y-128022681D01*
X121798247Y-128260776D02*
X121798247Y-128927443D01*
X121798247Y-128356014D02*
X121845866Y-128308395D01*
X121845866Y-128308395D02*
X121941104Y-128260776D01*
X121941104Y-128260776D02*
X122083961Y-128260776D01*
X122083961Y-128260776D02*
X122179199Y-128308395D01*
X122179199Y-128308395D02*
X122226818Y-128403633D01*
X122226818Y-128403633D02*
X122226818Y-128927443D01*
X123131580Y-128260776D02*
X123131580Y-129070300D01*
X123131580Y-129070300D02*
X123083961Y-129165538D01*
X123083961Y-129165538D02*
X123036342Y-129213157D01*
X123036342Y-129213157D02*
X122941104Y-129260776D01*
X122941104Y-129260776D02*
X122798247Y-129260776D01*
X122798247Y-129260776D02*
X122703009Y-129213157D01*
X123131580Y-128879824D02*
X123036342Y-128927443D01*
X123036342Y-128927443D02*
X122845866Y-128927443D01*
X122845866Y-128927443D02*
X122750628Y-128879824D01*
X122750628Y-128879824D02*
X122703009Y-128832204D01*
X122703009Y-128832204D02*
X122655390Y-128736966D01*
X122655390Y-128736966D02*
X122655390Y-128451252D01*
X122655390Y-128451252D02*
X122703009Y-128356014D01*
X122703009Y-128356014D02*
X122750628Y-128308395D01*
X122750628Y-128308395D02*
X122845866Y-128260776D01*
X122845866Y-128260776D02*
X123036342Y-128260776D01*
X123036342Y-128260776D02*
X123131580Y-128308395D01*
X124798247Y-128927443D02*
X124798247Y-128403633D01*
X124798247Y-128403633D02*
X124750628Y-128308395D01*
X124750628Y-128308395D02*
X124655390Y-128260776D01*
X124655390Y-128260776D02*
X124464914Y-128260776D01*
X124464914Y-128260776D02*
X124369676Y-128308395D01*
X124798247Y-128879824D02*
X124703009Y-128927443D01*
X124703009Y-128927443D02*
X124464914Y-128927443D01*
X124464914Y-128927443D02*
X124369676Y-128879824D01*
X124369676Y-128879824D02*
X124322057Y-128784585D01*
X124322057Y-128784585D02*
X124322057Y-128689347D01*
X124322057Y-128689347D02*
X124369676Y-128594109D01*
X124369676Y-128594109D02*
X124464914Y-128546490D01*
X124464914Y-128546490D02*
X124703009Y-128546490D01*
X124703009Y-128546490D02*
X124798247Y-128498871D01*
X125274438Y-128260776D02*
X125274438Y-128927443D01*
X125274438Y-128356014D02*
X125322057Y-128308395D01*
X125322057Y-128308395D02*
X125417295Y-128260776D01*
X125417295Y-128260776D02*
X125560152Y-128260776D01*
X125560152Y-128260776D02*
X125655390Y-128308395D01*
X125655390Y-128308395D02*
X125703009Y-128403633D01*
X125703009Y-128403633D02*
X125703009Y-128927443D01*
X98798244Y-130537387D02*
X98798244Y-130013577D01*
X98798244Y-130013577D02*
X98750625Y-129918339D01*
X98750625Y-129918339D02*
X98655387Y-129870720D01*
X98655387Y-129870720D02*
X98464911Y-129870720D01*
X98464911Y-129870720D02*
X98369673Y-129918339D01*
X98798244Y-130489768D02*
X98703006Y-130537387D01*
X98703006Y-130537387D02*
X98464911Y-130537387D01*
X98464911Y-130537387D02*
X98369673Y-130489768D01*
X98369673Y-130489768D02*
X98322054Y-130394529D01*
X98322054Y-130394529D02*
X98322054Y-130299291D01*
X98322054Y-130299291D02*
X98369673Y-130204053D01*
X98369673Y-130204053D02*
X98464911Y-130156434D01*
X98464911Y-130156434D02*
X98703006Y-130156434D01*
X98703006Y-130156434D02*
X98798244Y-130108815D01*
X99703006Y-130489768D02*
X99607768Y-130537387D01*
X99607768Y-130537387D02*
X99417292Y-130537387D01*
X99417292Y-130537387D02*
X99322054Y-130489768D01*
X99322054Y-130489768D02*
X99274435Y-130442148D01*
X99274435Y-130442148D02*
X99226816Y-130346910D01*
X99226816Y-130346910D02*
X99226816Y-130061196D01*
X99226816Y-130061196D02*
X99274435Y-129965958D01*
X99274435Y-129965958D02*
X99322054Y-129918339D01*
X99322054Y-129918339D02*
X99417292Y-129870720D01*
X99417292Y-129870720D02*
X99607768Y-129870720D01*
X99607768Y-129870720D02*
X99703006Y-129918339D01*
X99988721Y-129870720D02*
X100369673Y-129870720D01*
X100131578Y-129537387D02*
X100131578Y-130394529D01*
X100131578Y-130394529D02*
X100179197Y-130489768D01*
X100179197Y-130489768D02*
X100274435Y-130537387D01*
X100274435Y-130537387D02*
X100369673Y-130537387D01*
X101131578Y-129870720D02*
X101131578Y-130537387D01*
X100703007Y-129870720D02*
X100703007Y-130394529D01*
X100703007Y-130394529D02*
X100750626Y-130489768D01*
X100750626Y-130489768D02*
X100845864Y-130537387D01*
X100845864Y-130537387D02*
X100988721Y-130537387D01*
X100988721Y-130537387D02*
X101083959Y-130489768D01*
X101083959Y-130489768D02*
X101131578Y-130442148D01*
X102036340Y-130537387D02*
X102036340Y-130013577D01*
X102036340Y-130013577D02*
X101988721Y-129918339D01*
X101988721Y-129918339D02*
X101893483Y-129870720D01*
X101893483Y-129870720D02*
X101703007Y-129870720D01*
X101703007Y-129870720D02*
X101607769Y-129918339D01*
X102036340Y-130489768D02*
X101941102Y-130537387D01*
X101941102Y-130537387D02*
X101703007Y-130537387D01*
X101703007Y-130537387D02*
X101607769Y-130489768D01*
X101607769Y-130489768D02*
X101560150Y-130394529D01*
X101560150Y-130394529D02*
X101560150Y-130299291D01*
X101560150Y-130299291D02*
X101607769Y-130204053D01*
X101607769Y-130204053D02*
X101703007Y-130156434D01*
X101703007Y-130156434D02*
X101941102Y-130156434D01*
X101941102Y-130156434D02*
X102036340Y-130108815D01*
X102655388Y-130537387D02*
X102560150Y-130489768D01*
X102560150Y-130489768D02*
X102512531Y-130394529D01*
X102512531Y-130394529D02*
X102512531Y-129537387D01*
X103798246Y-130537387D02*
X103798246Y-129537387D01*
X103798246Y-129537387D02*
X104179198Y-129537387D01*
X104179198Y-129537387D02*
X104274436Y-129585006D01*
X104274436Y-129585006D02*
X104322055Y-129632625D01*
X104322055Y-129632625D02*
X104369674Y-129727863D01*
X104369674Y-129727863D02*
X104369674Y-129870720D01*
X104369674Y-129870720D02*
X104322055Y-129965958D01*
X104322055Y-129965958D02*
X104274436Y-130013577D01*
X104274436Y-130013577D02*
X104179198Y-130061196D01*
X104179198Y-130061196D02*
X103798246Y-130061196D01*
X105369674Y-130442148D02*
X105322055Y-130489768D01*
X105322055Y-130489768D02*
X105179198Y-130537387D01*
X105179198Y-130537387D02*
X105083960Y-130537387D01*
X105083960Y-130537387D02*
X104941103Y-130489768D01*
X104941103Y-130489768D02*
X104845865Y-130394529D01*
X104845865Y-130394529D02*
X104798246Y-130299291D01*
X104798246Y-130299291D02*
X104750627Y-130108815D01*
X104750627Y-130108815D02*
X104750627Y-129965958D01*
X104750627Y-129965958D02*
X104798246Y-129775482D01*
X104798246Y-129775482D02*
X104845865Y-129680244D01*
X104845865Y-129680244D02*
X104941103Y-129585006D01*
X104941103Y-129585006D02*
X105083960Y-129537387D01*
X105083960Y-129537387D02*
X105179198Y-129537387D01*
X105179198Y-129537387D02*
X105322055Y-129585006D01*
X105322055Y-129585006D02*
X105369674Y-129632625D01*
X106131579Y-130013577D02*
X106274436Y-130061196D01*
X106274436Y-130061196D02*
X106322055Y-130108815D01*
X106322055Y-130108815D02*
X106369674Y-130204053D01*
X106369674Y-130204053D02*
X106369674Y-130346910D01*
X106369674Y-130346910D02*
X106322055Y-130442148D01*
X106322055Y-130442148D02*
X106274436Y-130489768D01*
X106274436Y-130489768D02*
X106179198Y-130537387D01*
X106179198Y-130537387D02*
X105798246Y-130537387D01*
X105798246Y-130537387D02*
X105798246Y-129537387D01*
X105798246Y-129537387D02*
X106131579Y-129537387D01*
X106131579Y-129537387D02*
X106226817Y-129585006D01*
X106226817Y-129585006D02*
X106274436Y-129632625D01*
X106274436Y-129632625D02*
X106322055Y-129727863D01*
X106322055Y-129727863D02*
X106322055Y-129823101D01*
X106322055Y-129823101D02*
X106274436Y-129918339D01*
X106274436Y-129918339D02*
X106226817Y-129965958D01*
X106226817Y-129965958D02*
X106131579Y-130013577D01*
X106131579Y-130013577D02*
X105798246Y-130013577D01*
X107988722Y-130537387D02*
X107988722Y-129537387D01*
X107988722Y-130489768D02*
X107893484Y-130537387D01*
X107893484Y-130537387D02*
X107703008Y-130537387D01*
X107703008Y-130537387D02*
X107607770Y-130489768D01*
X107607770Y-130489768D02*
X107560151Y-130442148D01*
X107560151Y-130442148D02*
X107512532Y-130346910D01*
X107512532Y-130346910D02*
X107512532Y-130061196D01*
X107512532Y-130061196D02*
X107560151Y-129965958D01*
X107560151Y-129965958D02*
X107607770Y-129918339D01*
X107607770Y-129918339D02*
X107703008Y-129870720D01*
X107703008Y-129870720D02*
X107893484Y-129870720D01*
X107893484Y-129870720D02*
X107988722Y-129918339D01*
X108845865Y-130489768D02*
X108750627Y-130537387D01*
X108750627Y-130537387D02*
X108560151Y-130537387D01*
X108560151Y-130537387D02*
X108464913Y-130489768D01*
X108464913Y-130489768D02*
X108417294Y-130394529D01*
X108417294Y-130394529D02*
X108417294Y-130013577D01*
X108417294Y-130013577D02*
X108464913Y-129918339D01*
X108464913Y-129918339D02*
X108560151Y-129870720D01*
X108560151Y-129870720D02*
X108750627Y-129870720D01*
X108750627Y-129870720D02*
X108845865Y-129918339D01*
X108845865Y-129918339D02*
X108893484Y-130013577D01*
X108893484Y-130013577D02*
X108893484Y-130108815D01*
X108893484Y-130108815D02*
X108417294Y-130204053D01*
X109274437Y-130489768D02*
X109369675Y-130537387D01*
X109369675Y-130537387D02*
X109560151Y-130537387D01*
X109560151Y-130537387D02*
X109655389Y-130489768D01*
X109655389Y-130489768D02*
X109703008Y-130394529D01*
X109703008Y-130394529D02*
X109703008Y-130346910D01*
X109703008Y-130346910D02*
X109655389Y-130251672D01*
X109655389Y-130251672D02*
X109560151Y-130204053D01*
X109560151Y-130204053D02*
X109417294Y-130204053D01*
X109417294Y-130204053D02*
X109322056Y-130156434D01*
X109322056Y-130156434D02*
X109274437Y-130061196D01*
X109274437Y-130061196D02*
X109274437Y-130013577D01*
X109274437Y-130013577D02*
X109322056Y-129918339D01*
X109322056Y-129918339D02*
X109417294Y-129870720D01*
X109417294Y-129870720D02*
X109560151Y-129870720D01*
X109560151Y-129870720D02*
X109655389Y-129918339D01*
X110131580Y-130537387D02*
X110131580Y-129870720D01*
X110131580Y-129537387D02*
X110083961Y-129585006D01*
X110083961Y-129585006D02*
X110131580Y-129632625D01*
X110131580Y-129632625D02*
X110179199Y-129585006D01*
X110179199Y-129585006D02*
X110131580Y-129537387D01*
X110131580Y-129537387D02*
X110131580Y-129632625D01*
X111036341Y-129870720D02*
X111036341Y-130680244D01*
X111036341Y-130680244D02*
X110988722Y-130775482D01*
X110988722Y-130775482D02*
X110941103Y-130823101D01*
X110941103Y-130823101D02*
X110845865Y-130870720D01*
X110845865Y-130870720D02*
X110703008Y-130870720D01*
X110703008Y-130870720D02*
X110607770Y-130823101D01*
X111036341Y-130489768D02*
X110941103Y-130537387D01*
X110941103Y-130537387D02*
X110750627Y-130537387D01*
X110750627Y-130537387D02*
X110655389Y-130489768D01*
X110655389Y-130489768D02*
X110607770Y-130442148D01*
X110607770Y-130442148D02*
X110560151Y-130346910D01*
X110560151Y-130346910D02*
X110560151Y-130061196D01*
X110560151Y-130061196D02*
X110607770Y-129965958D01*
X110607770Y-129965958D02*
X110655389Y-129918339D01*
X110655389Y-129918339D02*
X110750627Y-129870720D01*
X110750627Y-129870720D02*
X110941103Y-129870720D01*
X110941103Y-129870720D02*
X111036341Y-129918339D01*
X111512532Y-129870720D02*
X111512532Y-130537387D01*
X111512532Y-129965958D02*
X111560151Y-129918339D01*
X111560151Y-129918339D02*
X111655389Y-129870720D01*
X111655389Y-129870720D02*
X111798246Y-129870720D01*
X111798246Y-129870720D02*
X111893484Y-129918339D01*
X111893484Y-129918339D02*
X111941103Y-130013577D01*
X111941103Y-130013577D02*
X111941103Y-130537387D01*
X112798246Y-130489768D02*
X112703008Y-130537387D01*
X112703008Y-130537387D02*
X112512532Y-130537387D01*
X112512532Y-130537387D02*
X112417294Y-130489768D01*
X112417294Y-130489768D02*
X112369675Y-130394529D01*
X112369675Y-130394529D02*
X112369675Y-130013577D01*
X112369675Y-130013577D02*
X112417294Y-129918339D01*
X112417294Y-129918339D02*
X112512532Y-129870720D01*
X112512532Y-129870720D02*
X112703008Y-129870720D01*
X112703008Y-129870720D02*
X112798246Y-129918339D01*
X112798246Y-129918339D02*
X112845865Y-130013577D01*
X112845865Y-130013577D02*
X112845865Y-130108815D01*
X112845865Y-130108815D02*
X112369675Y-130204053D01*
X113274437Y-130537387D02*
X113274437Y-129870720D01*
X113274437Y-130061196D02*
X113322056Y-129965958D01*
X113322056Y-129965958D02*
X113369675Y-129918339D01*
X113369675Y-129918339D02*
X113464913Y-129870720D01*
X113464913Y-129870720D02*
X113560151Y-129870720D01*
X113941104Y-130489768D02*
X113941104Y-130537387D01*
X113941104Y-130537387D02*
X113893485Y-130632625D01*
X113893485Y-130632625D02*
X113845866Y-130680244D01*
X98226816Y-131480664D02*
X98607768Y-131480664D01*
X98369673Y-132147331D02*
X98369673Y-131290188D01*
X98369673Y-131290188D02*
X98417292Y-131194950D01*
X98417292Y-131194950D02*
X98512530Y-131147331D01*
X98512530Y-131147331D02*
X98607768Y-131147331D01*
X99322054Y-132099712D02*
X99226816Y-132147331D01*
X99226816Y-132147331D02*
X99036340Y-132147331D01*
X99036340Y-132147331D02*
X98941102Y-132099712D01*
X98941102Y-132099712D02*
X98893483Y-132004473D01*
X98893483Y-132004473D02*
X98893483Y-131623521D01*
X98893483Y-131623521D02*
X98941102Y-131528283D01*
X98941102Y-131528283D02*
X99036340Y-131480664D01*
X99036340Y-131480664D02*
X99226816Y-131480664D01*
X99226816Y-131480664D02*
X99322054Y-131528283D01*
X99322054Y-131528283D02*
X99369673Y-131623521D01*
X99369673Y-131623521D02*
X99369673Y-131718759D01*
X99369673Y-131718759D02*
X98893483Y-131813997D01*
X99941102Y-132147331D02*
X99845864Y-132099712D01*
X99845864Y-132099712D02*
X99798245Y-132004473D01*
X99798245Y-132004473D02*
X99798245Y-131147331D01*
X100179198Y-131480664D02*
X100560150Y-131480664D01*
X100322055Y-131147331D02*
X100322055Y-132004473D01*
X100322055Y-132004473D02*
X100369674Y-132099712D01*
X100369674Y-132099712D02*
X100464912Y-132147331D01*
X100464912Y-132147331D02*
X100560150Y-132147331D01*
X102083960Y-132099712D02*
X101988722Y-132147331D01*
X101988722Y-132147331D02*
X101798246Y-132147331D01*
X101798246Y-132147331D02*
X101703008Y-132099712D01*
X101703008Y-132099712D02*
X101655389Y-132052092D01*
X101655389Y-132052092D02*
X101607770Y-131956854D01*
X101607770Y-131956854D02*
X101607770Y-131671140D01*
X101607770Y-131671140D02*
X101655389Y-131575902D01*
X101655389Y-131575902D02*
X101703008Y-131528283D01*
X101703008Y-131528283D02*
X101798246Y-131480664D01*
X101798246Y-131480664D02*
X101988722Y-131480664D01*
X101988722Y-131480664D02*
X102083960Y-131528283D01*
X102655389Y-132147331D02*
X102560151Y-132099712D01*
X102560151Y-132099712D02*
X102512532Y-132052092D01*
X102512532Y-132052092D02*
X102464913Y-131956854D01*
X102464913Y-131956854D02*
X102464913Y-131671140D01*
X102464913Y-131671140D02*
X102512532Y-131575902D01*
X102512532Y-131575902D02*
X102560151Y-131528283D01*
X102560151Y-131528283D02*
X102655389Y-131480664D01*
X102655389Y-131480664D02*
X102798246Y-131480664D01*
X102798246Y-131480664D02*
X102893484Y-131528283D01*
X102893484Y-131528283D02*
X102941103Y-131575902D01*
X102941103Y-131575902D02*
X102988722Y-131671140D01*
X102988722Y-131671140D02*
X102988722Y-131956854D01*
X102988722Y-131956854D02*
X102941103Y-132052092D01*
X102941103Y-132052092D02*
X102893484Y-132099712D01*
X102893484Y-132099712D02*
X102798246Y-132147331D01*
X102798246Y-132147331D02*
X102655389Y-132147331D01*
X103560151Y-132147331D02*
X103464913Y-132099712D01*
X103464913Y-132099712D02*
X103417294Y-132052092D01*
X103417294Y-132052092D02*
X103369675Y-131956854D01*
X103369675Y-131956854D02*
X103369675Y-131671140D01*
X103369675Y-131671140D02*
X103417294Y-131575902D01*
X103417294Y-131575902D02*
X103464913Y-131528283D01*
X103464913Y-131528283D02*
X103560151Y-131480664D01*
X103560151Y-131480664D02*
X103703008Y-131480664D01*
X103703008Y-131480664D02*
X103798246Y-131528283D01*
X103798246Y-131528283D02*
X103845865Y-131575902D01*
X103845865Y-131575902D02*
X103893484Y-131671140D01*
X103893484Y-131671140D02*
X103893484Y-131956854D01*
X103893484Y-131956854D02*
X103845865Y-132052092D01*
X103845865Y-132052092D02*
X103798246Y-132099712D01*
X103798246Y-132099712D02*
X103703008Y-132147331D01*
X103703008Y-132147331D02*
X103560151Y-132147331D01*
X104464913Y-132147331D02*
X104369675Y-132099712D01*
X104369675Y-132099712D02*
X104322056Y-132004473D01*
X104322056Y-132004473D02*
X104322056Y-131147331D01*
X105607771Y-132147331D02*
X105607771Y-131147331D01*
X105607771Y-131528283D02*
X105703009Y-131480664D01*
X105703009Y-131480664D02*
X105893485Y-131480664D01*
X105893485Y-131480664D02*
X105988723Y-131528283D01*
X105988723Y-131528283D02*
X106036342Y-131575902D01*
X106036342Y-131575902D02*
X106083961Y-131671140D01*
X106083961Y-131671140D02*
X106083961Y-131956854D01*
X106083961Y-131956854D02*
X106036342Y-132052092D01*
X106036342Y-132052092D02*
X105988723Y-132099712D01*
X105988723Y-132099712D02*
X105893485Y-132147331D01*
X105893485Y-132147331D02*
X105703009Y-132147331D01*
X105703009Y-132147331D02*
X105607771Y-132099712D01*
X106893485Y-132099712D02*
X106798247Y-132147331D01*
X106798247Y-132147331D02*
X106607771Y-132147331D01*
X106607771Y-132147331D02*
X106512533Y-132099712D01*
X106512533Y-132099712D02*
X106464914Y-132004473D01*
X106464914Y-132004473D02*
X106464914Y-131623521D01*
X106464914Y-131623521D02*
X106512533Y-131528283D01*
X106512533Y-131528283D02*
X106607771Y-131480664D01*
X106607771Y-131480664D02*
X106798247Y-131480664D01*
X106798247Y-131480664D02*
X106893485Y-131528283D01*
X106893485Y-131528283D02*
X106941104Y-131623521D01*
X106941104Y-131623521D02*
X106941104Y-131718759D01*
X106941104Y-131718759D02*
X106464914Y-131813997D01*
X107369676Y-132147331D02*
X107369676Y-131480664D01*
X107369676Y-131147331D02*
X107322057Y-131194950D01*
X107322057Y-131194950D02*
X107369676Y-131242569D01*
X107369676Y-131242569D02*
X107417295Y-131194950D01*
X107417295Y-131194950D02*
X107369676Y-131147331D01*
X107369676Y-131147331D02*
X107369676Y-131242569D01*
X107845866Y-131480664D02*
X107845866Y-132147331D01*
X107845866Y-131575902D02*
X107893485Y-131528283D01*
X107893485Y-131528283D02*
X107988723Y-131480664D01*
X107988723Y-131480664D02*
X108131580Y-131480664D01*
X108131580Y-131480664D02*
X108226818Y-131528283D01*
X108226818Y-131528283D02*
X108274437Y-131623521D01*
X108274437Y-131623521D02*
X108274437Y-132147331D01*
X109179199Y-131480664D02*
X109179199Y-132290188D01*
X109179199Y-132290188D02*
X109131580Y-132385426D01*
X109131580Y-132385426D02*
X109083961Y-132433045D01*
X109083961Y-132433045D02*
X108988723Y-132480664D01*
X108988723Y-132480664D02*
X108845866Y-132480664D01*
X108845866Y-132480664D02*
X108750628Y-132433045D01*
X109179199Y-132099712D02*
X109083961Y-132147331D01*
X109083961Y-132147331D02*
X108893485Y-132147331D01*
X108893485Y-132147331D02*
X108798247Y-132099712D01*
X108798247Y-132099712D02*
X108750628Y-132052092D01*
X108750628Y-132052092D02*
X108703009Y-131956854D01*
X108703009Y-131956854D02*
X108703009Y-131671140D01*
X108703009Y-131671140D02*
X108750628Y-131575902D01*
X108750628Y-131575902D02*
X108798247Y-131528283D01*
X108798247Y-131528283D02*
X108893485Y-131480664D01*
X108893485Y-131480664D02*
X109083961Y-131480664D01*
X109083961Y-131480664D02*
X109179199Y-131528283D01*
X110845866Y-132147331D02*
X110845866Y-131623521D01*
X110845866Y-131623521D02*
X110798247Y-131528283D01*
X110798247Y-131528283D02*
X110703009Y-131480664D01*
X110703009Y-131480664D02*
X110512533Y-131480664D01*
X110512533Y-131480664D02*
X110417295Y-131528283D01*
X110845866Y-132099712D02*
X110750628Y-132147331D01*
X110750628Y-132147331D02*
X110512533Y-132147331D01*
X110512533Y-132147331D02*
X110417295Y-132099712D01*
X110417295Y-132099712D02*
X110369676Y-132004473D01*
X110369676Y-132004473D02*
X110369676Y-131909235D01*
X110369676Y-131909235D02*
X110417295Y-131813997D01*
X110417295Y-131813997D02*
X110512533Y-131766378D01*
X110512533Y-131766378D02*
X110750628Y-131766378D01*
X110750628Y-131766378D02*
X110845866Y-131718759D01*
X111322057Y-132147331D02*
X111322057Y-131147331D01*
X111322057Y-131528283D02*
X111417295Y-131480664D01*
X111417295Y-131480664D02*
X111607771Y-131480664D01*
X111607771Y-131480664D02*
X111703009Y-131528283D01*
X111703009Y-131528283D02*
X111750628Y-131575902D01*
X111750628Y-131575902D02*
X111798247Y-131671140D01*
X111798247Y-131671140D02*
X111798247Y-131956854D01*
X111798247Y-131956854D02*
X111750628Y-132052092D01*
X111750628Y-132052092D02*
X111703009Y-132099712D01*
X111703009Y-132099712D02*
X111607771Y-132147331D01*
X111607771Y-132147331D02*
X111417295Y-132147331D01*
X111417295Y-132147331D02*
X111322057Y-132099712D01*
X112369676Y-132147331D02*
X112274438Y-132099712D01*
X112274438Y-132099712D02*
X112226819Y-132004473D01*
X112226819Y-132004473D02*
X112226819Y-131147331D01*
X113131581Y-132099712D02*
X113036343Y-132147331D01*
X113036343Y-132147331D02*
X112845867Y-132147331D01*
X112845867Y-132147331D02*
X112750629Y-132099712D01*
X112750629Y-132099712D02*
X112703010Y-132004473D01*
X112703010Y-132004473D02*
X112703010Y-131623521D01*
X112703010Y-131623521D02*
X112750629Y-131528283D01*
X112750629Y-131528283D02*
X112845867Y-131480664D01*
X112845867Y-131480664D02*
X113036343Y-131480664D01*
X113036343Y-131480664D02*
X113131581Y-131528283D01*
X113131581Y-131528283D02*
X113179200Y-131623521D01*
X113179200Y-131623521D02*
X113179200Y-131718759D01*
X113179200Y-131718759D02*
X112703010Y-131813997D01*
X114226820Y-131480664D02*
X114607772Y-131480664D01*
X114369677Y-131147331D02*
X114369677Y-132004473D01*
X114369677Y-132004473D02*
X114417296Y-132099712D01*
X114417296Y-132099712D02*
X114512534Y-132147331D01*
X114512534Y-132147331D02*
X114607772Y-132147331D01*
X115083963Y-132147331D02*
X114988725Y-132099712D01*
X114988725Y-132099712D02*
X114941106Y-132052092D01*
X114941106Y-132052092D02*
X114893487Y-131956854D01*
X114893487Y-131956854D02*
X114893487Y-131671140D01*
X114893487Y-131671140D02*
X114941106Y-131575902D01*
X114941106Y-131575902D02*
X114988725Y-131528283D01*
X114988725Y-131528283D02*
X115083963Y-131480664D01*
X115083963Y-131480664D02*
X115226820Y-131480664D01*
X115226820Y-131480664D02*
X115322058Y-131528283D01*
X115322058Y-131528283D02*
X115369677Y-131575902D01*
X115369677Y-131575902D02*
X115417296Y-131671140D01*
X115417296Y-131671140D02*
X115417296Y-131956854D01*
X115417296Y-131956854D02*
X115369677Y-132052092D01*
X115369677Y-132052092D02*
X115322058Y-132099712D01*
X115322058Y-132099712D02*
X115226820Y-132147331D01*
X115226820Y-132147331D02*
X115083963Y-132147331D01*
X117036344Y-132099712D02*
X116941106Y-132147331D01*
X116941106Y-132147331D02*
X116750630Y-132147331D01*
X116750630Y-132147331D02*
X116655392Y-132099712D01*
X116655392Y-132099712D02*
X116607773Y-132052092D01*
X116607773Y-132052092D02*
X116560154Y-131956854D01*
X116560154Y-131956854D02*
X116560154Y-131671140D01*
X116560154Y-131671140D02*
X116607773Y-131575902D01*
X116607773Y-131575902D02*
X116655392Y-131528283D01*
X116655392Y-131528283D02*
X116750630Y-131480664D01*
X116750630Y-131480664D02*
X116941106Y-131480664D01*
X116941106Y-131480664D02*
X117036344Y-131528283D01*
X117607773Y-132147331D02*
X117512535Y-132099712D01*
X117512535Y-132099712D02*
X117464916Y-132052092D01*
X117464916Y-132052092D02*
X117417297Y-131956854D01*
X117417297Y-131956854D02*
X117417297Y-131671140D01*
X117417297Y-131671140D02*
X117464916Y-131575902D01*
X117464916Y-131575902D02*
X117512535Y-131528283D01*
X117512535Y-131528283D02*
X117607773Y-131480664D01*
X117607773Y-131480664D02*
X117750630Y-131480664D01*
X117750630Y-131480664D02*
X117845868Y-131528283D01*
X117845868Y-131528283D02*
X117893487Y-131575902D01*
X117893487Y-131575902D02*
X117941106Y-131671140D01*
X117941106Y-131671140D02*
X117941106Y-131956854D01*
X117941106Y-131956854D02*
X117893487Y-132052092D01*
X117893487Y-132052092D02*
X117845868Y-132099712D01*
X117845868Y-132099712D02*
X117750630Y-132147331D01*
X117750630Y-132147331D02*
X117607773Y-132147331D01*
X118369678Y-131480664D02*
X118369678Y-132147331D01*
X118369678Y-131575902D02*
X118417297Y-131528283D01*
X118417297Y-131528283D02*
X118512535Y-131480664D01*
X118512535Y-131480664D02*
X118655392Y-131480664D01*
X118655392Y-131480664D02*
X118750630Y-131528283D01*
X118750630Y-131528283D02*
X118798249Y-131623521D01*
X118798249Y-131623521D02*
X118798249Y-132147331D01*
X119131583Y-131480664D02*
X119512535Y-131480664D01*
X119274440Y-131147331D02*
X119274440Y-132004473D01*
X119274440Y-132004473D02*
X119322059Y-132099712D01*
X119322059Y-132099712D02*
X119417297Y-132147331D01*
X119417297Y-132147331D02*
X119512535Y-132147331D01*
X119845869Y-132147331D02*
X119845869Y-131480664D01*
X119845869Y-131671140D02*
X119893488Y-131575902D01*
X119893488Y-131575902D02*
X119941107Y-131528283D01*
X119941107Y-131528283D02*
X120036345Y-131480664D01*
X120036345Y-131480664D02*
X120131583Y-131480664D01*
X120607774Y-132147331D02*
X120512536Y-132099712D01*
X120512536Y-132099712D02*
X120464917Y-132052092D01*
X120464917Y-132052092D02*
X120417298Y-131956854D01*
X120417298Y-131956854D02*
X120417298Y-131671140D01*
X120417298Y-131671140D02*
X120464917Y-131575902D01*
X120464917Y-131575902D02*
X120512536Y-131528283D01*
X120512536Y-131528283D02*
X120607774Y-131480664D01*
X120607774Y-131480664D02*
X120750631Y-131480664D01*
X120750631Y-131480664D02*
X120845869Y-131528283D01*
X120845869Y-131528283D02*
X120893488Y-131575902D01*
X120893488Y-131575902D02*
X120941107Y-131671140D01*
X120941107Y-131671140D02*
X120941107Y-131956854D01*
X120941107Y-131956854D02*
X120893488Y-132052092D01*
X120893488Y-132052092D02*
X120845869Y-132099712D01*
X120845869Y-132099712D02*
X120750631Y-132147331D01*
X120750631Y-132147331D02*
X120607774Y-132147331D01*
X121512536Y-132147331D02*
X121417298Y-132099712D01*
X121417298Y-132099712D02*
X121369679Y-132004473D01*
X121369679Y-132004473D02*
X121369679Y-131147331D01*
X122512537Y-131480664D02*
X122893489Y-131480664D01*
X122655394Y-131147331D02*
X122655394Y-132004473D01*
X122655394Y-132004473D02*
X122703013Y-132099712D01*
X122703013Y-132099712D02*
X122798251Y-132147331D01*
X122798251Y-132147331D02*
X122893489Y-132147331D01*
X123226823Y-132147331D02*
X123226823Y-131147331D01*
X123655394Y-132147331D02*
X123655394Y-131623521D01*
X123655394Y-131623521D02*
X123607775Y-131528283D01*
X123607775Y-131528283D02*
X123512537Y-131480664D01*
X123512537Y-131480664D02*
X123369680Y-131480664D01*
X123369680Y-131480664D02*
X123274442Y-131528283D01*
X123274442Y-131528283D02*
X123226823Y-131575902D01*
X124512537Y-132099712D02*
X124417299Y-132147331D01*
X124417299Y-132147331D02*
X124226823Y-132147331D01*
X124226823Y-132147331D02*
X124131585Y-132099712D01*
X124131585Y-132099712D02*
X124083966Y-132004473D01*
X124083966Y-132004473D02*
X124083966Y-131623521D01*
X124083966Y-131623521D02*
X124131585Y-131528283D01*
X124131585Y-131528283D02*
X124226823Y-131480664D01*
X124226823Y-131480664D02*
X124417299Y-131480664D01*
X124417299Y-131480664D02*
X124512537Y-131528283D01*
X124512537Y-131528283D02*
X124560156Y-131623521D01*
X124560156Y-131623521D02*
X124560156Y-131718759D01*
X124560156Y-131718759D02*
X124083966Y-131813997D01*
X126179204Y-132099712D02*
X126083966Y-132147331D01*
X126083966Y-132147331D02*
X125893490Y-132147331D01*
X125893490Y-132147331D02*
X125798252Y-132099712D01*
X125798252Y-132099712D02*
X125750633Y-132052092D01*
X125750633Y-132052092D02*
X125703014Y-131956854D01*
X125703014Y-131956854D02*
X125703014Y-131671140D01*
X125703014Y-131671140D02*
X125750633Y-131575902D01*
X125750633Y-131575902D02*
X125798252Y-131528283D01*
X125798252Y-131528283D02*
X125893490Y-131480664D01*
X125893490Y-131480664D02*
X126083966Y-131480664D01*
X126083966Y-131480664D02*
X126179204Y-131528283D01*
X126607776Y-132147331D02*
X126607776Y-131480664D01*
X126607776Y-131147331D02*
X126560157Y-131194950D01*
X126560157Y-131194950D02*
X126607776Y-131242569D01*
X126607776Y-131242569D02*
X126655395Y-131194950D01*
X126655395Y-131194950D02*
X126607776Y-131147331D01*
X126607776Y-131147331D02*
X126607776Y-131242569D01*
X127083966Y-132147331D02*
X127083966Y-131480664D01*
X127083966Y-131671140D02*
X127131585Y-131575902D01*
X127131585Y-131575902D02*
X127179204Y-131528283D01*
X127179204Y-131528283D02*
X127274442Y-131480664D01*
X127274442Y-131480664D02*
X127369680Y-131480664D01*
X128131585Y-132099712D02*
X128036347Y-132147331D01*
X128036347Y-132147331D02*
X127845871Y-132147331D01*
X127845871Y-132147331D02*
X127750633Y-132099712D01*
X127750633Y-132099712D02*
X127703014Y-132052092D01*
X127703014Y-132052092D02*
X127655395Y-131956854D01*
X127655395Y-131956854D02*
X127655395Y-131671140D01*
X127655395Y-131671140D02*
X127703014Y-131575902D01*
X127703014Y-131575902D02*
X127750633Y-131528283D01*
X127750633Y-131528283D02*
X127845871Y-131480664D01*
X127845871Y-131480664D02*
X128036347Y-131480664D01*
X128036347Y-131480664D02*
X128131585Y-131528283D01*
X128988728Y-131480664D02*
X128988728Y-132147331D01*
X128560157Y-131480664D02*
X128560157Y-132004473D01*
X128560157Y-132004473D02*
X128607776Y-132099712D01*
X128607776Y-132099712D02*
X128703014Y-132147331D01*
X128703014Y-132147331D02*
X128845871Y-132147331D01*
X128845871Y-132147331D02*
X128941109Y-132099712D01*
X128941109Y-132099712D02*
X128988728Y-132052092D01*
X129464919Y-132147331D02*
X129464919Y-131480664D01*
X129464919Y-131147331D02*
X129417300Y-131194950D01*
X129417300Y-131194950D02*
X129464919Y-131242569D01*
X129464919Y-131242569D02*
X129512538Y-131194950D01*
X129512538Y-131194950D02*
X129464919Y-131147331D01*
X129464919Y-131147331D02*
X129464919Y-131242569D01*
X129798252Y-131480664D02*
X130179204Y-131480664D01*
X129941109Y-131147331D02*
X129941109Y-132004473D01*
X129941109Y-132004473D02*
X129988728Y-132099712D01*
X129988728Y-132099712D02*
X130083966Y-132147331D01*
X130083966Y-132147331D02*
X130179204Y-132147331D01*
X130512538Y-132147331D02*
X130512538Y-131480664D01*
X130512538Y-131671140D02*
X130560157Y-131575902D01*
X130560157Y-131575902D02*
X130607776Y-131528283D01*
X130607776Y-131528283D02*
X130703014Y-131480664D01*
X130703014Y-131480664D02*
X130798252Y-131480664D01*
X131036348Y-131480664D02*
X131274443Y-132147331D01*
X131512538Y-131480664D02*
X131274443Y-132147331D01*
X131274443Y-132147331D02*
X131179205Y-132385426D01*
X131179205Y-132385426D02*
X131131586Y-132433045D01*
X131131586Y-132433045D02*
X131036348Y-132480664D01*
X98226816Y-133090608D02*
X98607768Y-133090608D01*
X98369673Y-132757275D02*
X98369673Y-133614417D01*
X98369673Y-133614417D02*
X98417292Y-133709656D01*
X98417292Y-133709656D02*
X98512530Y-133757275D01*
X98512530Y-133757275D02*
X98607768Y-133757275D01*
X98941102Y-133757275D02*
X98941102Y-132757275D01*
X99369673Y-133757275D02*
X99369673Y-133233465D01*
X99369673Y-133233465D02*
X99322054Y-133138227D01*
X99322054Y-133138227D02*
X99226816Y-133090608D01*
X99226816Y-133090608D02*
X99083959Y-133090608D01*
X99083959Y-133090608D02*
X98988721Y-133138227D01*
X98988721Y-133138227D02*
X98941102Y-133185846D01*
X100274435Y-133757275D02*
X100274435Y-133233465D01*
X100274435Y-133233465D02*
X100226816Y-133138227D01*
X100226816Y-133138227D02*
X100131578Y-133090608D01*
X100131578Y-133090608D02*
X99941102Y-133090608D01*
X99941102Y-133090608D02*
X99845864Y-133138227D01*
X100274435Y-133709656D02*
X100179197Y-133757275D01*
X100179197Y-133757275D02*
X99941102Y-133757275D01*
X99941102Y-133757275D02*
X99845864Y-133709656D01*
X99845864Y-133709656D02*
X99798245Y-133614417D01*
X99798245Y-133614417D02*
X99798245Y-133519179D01*
X99798245Y-133519179D02*
X99845864Y-133423941D01*
X99845864Y-133423941D02*
X99941102Y-133376322D01*
X99941102Y-133376322D02*
X100179197Y-133376322D01*
X100179197Y-133376322D02*
X100274435Y-133328703D01*
X100607769Y-133090608D02*
X100988721Y-133090608D01*
X100750626Y-132757275D02*
X100750626Y-133614417D01*
X100750626Y-133614417D02*
X100798245Y-133709656D01*
X100798245Y-133709656D02*
X100893483Y-133757275D01*
X100893483Y-133757275D02*
X100988721Y-133757275D01*
X102083960Y-133757275D02*
X102083960Y-132757275D01*
X103322055Y-133757275D02*
X103322055Y-132757275D01*
X103750626Y-133757275D02*
X103750626Y-133233465D01*
X103750626Y-133233465D02*
X103703007Y-133138227D01*
X103703007Y-133138227D02*
X103607769Y-133090608D01*
X103607769Y-133090608D02*
X103464912Y-133090608D01*
X103464912Y-133090608D02*
X103369674Y-133138227D01*
X103369674Y-133138227D02*
X103322055Y-133185846D01*
X104655388Y-133757275D02*
X104655388Y-133233465D01*
X104655388Y-133233465D02*
X104607769Y-133138227D01*
X104607769Y-133138227D02*
X104512531Y-133090608D01*
X104512531Y-133090608D02*
X104322055Y-133090608D01*
X104322055Y-133090608D02*
X104226817Y-133138227D01*
X104655388Y-133709656D02*
X104560150Y-133757275D01*
X104560150Y-133757275D02*
X104322055Y-133757275D01*
X104322055Y-133757275D02*
X104226817Y-133709656D01*
X104226817Y-133709656D02*
X104179198Y-133614417D01*
X104179198Y-133614417D02*
X104179198Y-133519179D01*
X104179198Y-133519179D02*
X104226817Y-133423941D01*
X104226817Y-133423941D02*
X104322055Y-133376322D01*
X104322055Y-133376322D02*
X104560150Y-133376322D01*
X104560150Y-133376322D02*
X104655388Y-133328703D01*
X105036341Y-133090608D02*
X105274436Y-133757275D01*
X105274436Y-133757275D02*
X105512531Y-133090608D01*
X106274436Y-133709656D02*
X106179198Y-133757275D01*
X106179198Y-133757275D02*
X105988722Y-133757275D01*
X105988722Y-133757275D02*
X105893484Y-133709656D01*
X105893484Y-133709656D02*
X105845865Y-133614417D01*
X105845865Y-133614417D02*
X105845865Y-133233465D01*
X105845865Y-133233465D02*
X105893484Y-133138227D01*
X105893484Y-133138227D02*
X105988722Y-133090608D01*
X105988722Y-133090608D02*
X106179198Y-133090608D01*
X106179198Y-133090608D02*
X106274436Y-133138227D01*
X106274436Y-133138227D02*
X106322055Y-133233465D01*
X106322055Y-133233465D02*
X106322055Y-133328703D01*
X106322055Y-133328703D02*
X105845865Y-133423941D01*
X107941103Y-133757275D02*
X107941103Y-132757275D01*
X107941103Y-133709656D02*
X107845865Y-133757275D01*
X107845865Y-133757275D02*
X107655389Y-133757275D01*
X107655389Y-133757275D02*
X107560151Y-133709656D01*
X107560151Y-133709656D02*
X107512532Y-133662036D01*
X107512532Y-133662036D02*
X107464913Y-133566798D01*
X107464913Y-133566798D02*
X107464913Y-133281084D01*
X107464913Y-133281084D02*
X107512532Y-133185846D01*
X107512532Y-133185846D02*
X107560151Y-133138227D01*
X107560151Y-133138227D02*
X107655389Y-133090608D01*
X107655389Y-133090608D02*
X107845865Y-133090608D01*
X107845865Y-133090608D02*
X107941103Y-133138227D01*
X108798246Y-133709656D02*
X108703008Y-133757275D01*
X108703008Y-133757275D02*
X108512532Y-133757275D01*
X108512532Y-133757275D02*
X108417294Y-133709656D01*
X108417294Y-133709656D02*
X108369675Y-133614417D01*
X108369675Y-133614417D02*
X108369675Y-133233465D01*
X108369675Y-133233465D02*
X108417294Y-133138227D01*
X108417294Y-133138227D02*
X108512532Y-133090608D01*
X108512532Y-133090608D02*
X108703008Y-133090608D01*
X108703008Y-133090608D02*
X108798246Y-133138227D01*
X108798246Y-133138227D02*
X108845865Y-133233465D01*
X108845865Y-133233465D02*
X108845865Y-133328703D01*
X108845865Y-133328703D02*
X108369675Y-133423941D01*
X109226818Y-133709656D02*
X109322056Y-133757275D01*
X109322056Y-133757275D02*
X109512532Y-133757275D01*
X109512532Y-133757275D02*
X109607770Y-133709656D01*
X109607770Y-133709656D02*
X109655389Y-133614417D01*
X109655389Y-133614417D02*
X109655389Y-133566798D01*
X109655389Y-133566798D02*
X109607770Y-133471560D01*
X109607770Y-133471560D02*
X109512532Y-133423941D01*
X109512532Y-133423941D02*
X109369675Y-133423941D01*
X109369675Y-133423941D02*
X109274437Y-133376322D01*
X109274437Y-133376322D02*
X109226818Y-133281084D01*
X109226818Y-133281084D02*
X109226818Y-133233465D01*
X109226818Y-133233465D02*
X109274437Y-133138227D01*
X109274437Y-133138227D02*
X109369675Y-133090608D01*
X109369675Y-133090608D02*
X109512532Y-133090608D01*
X109512532Y-133090608D02*
X109607770Y-133138227D01*
X110083961Y-133757275D02*
X110083961Y-133090608D01*
X110083961Y-132757275D02*
X110036342Y-132804894D01*
X110036342Y-132804894D02*
X110083961Y-132852513D01*
X110083961Y-132852513D02*
X110131580Y-132804894D01*
X110131580Y-132804894D02*
X110083961Y-132757275D01*
X110083961Y-132757275D02*
X110083961Y-132852513D01*
X110988722Y-133090608D02*
X110988722Y-133900132D01*
X110988722Y-133900132D02*
X110941103Y-133995370D01*
X110941103Y-133995370D02*
X110893484Y-134042989D01*
X110893484Y-134042989D02*
X110798246Y-134090608D01*
X110798246Y-134090608D02*
X110655389Y-134090608D01*
X110655389Y-134090608D02*
X110560151Y-134042989D01*
X110988722Y-133709656D02*
X110893484Y-133757275D01*
X110893484Y-133757275D02*
X110703008Y-133757275D01*
X110703008Y-133757275D02*
X110607770Y-133709656D01*
X110607770Y-133709656D02*
X110560151Y-133662036D01*
X110560151Y-133662036D02*
X110512532Y-133566798D01*
X110512532Y-133566798D02*
X110512532Y-133281084D01*
X110512532Y-133281084D02*
X110560151Y-133185846D01*
X110560151Y-133185846D02*
X110607770Y-133138227D01*
X110607770Y-133138227D02*
X110703008Y-133090608D01*
X110703008Y-133090608D02*
X110893484Y-133090608D01*
X110893484Y-133090608D02*
X110988722Y-133138227D01*
X111464913Y-133090608D02*
X111464913Y-133757275D01*
X111464913Y-133185846D02*
X111512532Y-133138227D01*
X111512532Y-133138227D02*
X111607770Y-133090608D01*
X111607770Y-133090608D02*
X111750627Y-133090608D01*
X111750627Y-133090608D02*
X111845865Y-133138227D01*
X111845865Y-133138227D02*
X111893484Y-133233465D01*
X111893484Y-133233465D02*
X111893484Y-133757275D01*
X112750627Y-133709656D02*
X112655389Y-133757275D01*
X112655389Y-133757275D02*
X112464913Y-133757275D01*
X112464913Y-133757275D02*
X112369675Y-133709656D01*
X112369675Y-133709656D02*
X112322056Y-133614417D01*
X112322056Y-133614417D02*
X112322056Y-133233465D01*
X112322056Y-133233465D02*
X112369675Y-133138227D01*
X112369675Y-133138227D02*
X112464913Y-133090608D01*
X112464913Y-133090608D02*
X112655389Y-133090608D01*
X112655389Y-133090608D02*
X112750627Y-133138227D01*
X112750627Y-133138227D02*
X112798246Y-133233465D01*
X112798246Y-133233465D02*
X112798246Y-133328703D01*
X112798246Y-133328703D02*
X112322056Y-133423941D01*
X113655389Y-133757275D02*
X113655389Y-132757275D01*
X113655389Y-133709656D02*
X113560151Y-133757275D01*
X113560151Y-133757275D02*
X113369675Y-133757275D01*
X113369675Y-133757275D02*
X113274437Y-133709656D01*
X113274437Y-133709656D02*
X113226818Y-133662036D01*
X113226818Y-133662036D02*
X113179199Y-133566798D01*
X113179199Y-133566798D02*
X113179199Y-133281084D01*
X113179199Y-133281084D02*
X113226818Y-133185846D01*
X113226818Y-133185846D02*
X113274437Y-133138227D01*
X113274437Y-133138227D02*
X113369675Y-133090608D01*
X113369675Y-133090608D02*
X113560151Y-133090608D01*
X113560151Y-133090608D02*
X113655389Y-133138227D01*
X114131580Y-133662036D02*
X114179199Y-133709656D01*
X114179199Y-133709656D02*
X114131580Y-133757275D01*
X114131580Y-133757275D02*
X114083961Y-133709656D01*
X114083961Y-133709656D02*
X114131580Y-133662036D01*
X114131580Y-133662036D02*
X114131580Y-133757275D01*
X98369673Y-135367219D02*
X98369673Y-134367219D01*
X98369673Y-134367219D02*
X98703006Y-135081504D01*
X98703006Y-135081504D02*
X99036339Y-134367219D01*
X99036339Y-134367219D02*
X99036339Y-135367219D01*
X99941101Y-135367219D02*
X99941101Y-134843409D01*
X99941101Y-134843409D02*
X99893482Y-134748171D01*
X99893482Y-134748171D02*
X99798244Y-134700552D01*
X99798244Y-134700552D02*
X99607768Y-134700552D01*
X99607768Y-134700552D02*
X99512530Y-134748171D01*
X99941101Y-135319600D02*
X99845863Y-135367219D01*
X99845863Y-135367219D02*
X99607768Y-135367219D01*
X99607768Y-135367219D02*
X99512530Y-135319600D01*
X99512530Y-135319600D02*
X99464911Y-135224361D01*
X99464911Y-135224361D02*
X99464911Y-135129123D01*
X99464911Y-135129123D02*
X99512530Y-135033885D01*
X99512530Y-135033885D02*
X99607768Y-134986266D01*
X99607768Y-134986266D02*
X99845863Y-134986266D01*
X99845863Y-134986266D02*
X99941101Y-134938647D01*
X100417292Y-134700552D02*
X100417292Y-135367219D01*
X100417292Y-134795790D02*
X100464911Y-134748171D01*
X100464911Y-134748171D02*
X100560149Y-134700552D01*
X100560149Y-134700552D02*
X100703006Y-134700552D01*
X100703006Y-134700552D02*
X100798244Y-134748171D01*
X100798244Y-134748171D02*
X100845863Y-134843409D01*
X100845863Y-134843409D02*
X100845863Y-135367219D01*
X101226816Y-134700552D02*
X101464911Y-135367219D01*
X101703006Y-134700552D02*
X101464911Y-135367219D01*
X101464911Y-135367219D02*
X101369673Y-135605314D01*
X101369673Y-135605314D02*
X101322054Y-135652933D01*
X101322054Y-135652933D02*
X101226816Y-135700552D01*
X102845864Y-135367219D02*
X102845864Y-134367219D01*
X102845864Y-134367219D02*
X103226816Y-134367219D01*
X103226816Y-134367219D02*
X103322054Y-134414838D01*
X103322054Y-134414838D02*
X103369673Y-134462457D01*
X103369673Y-134462457D02*
X103417292Y-134557695D01*
X103417292Y-134557695D02*
X103417292Y-134700552D01*
X103417292Y-134700552D02*
X103369673Y-134795790D01*
X103369673Y-134795790D02*
X103322054Y-134843409D01*
X103322054Y-134843409D02*
X103226816Y-134891028D01*
X103226816Y-134891028D02*
X102845864Y-134891028D01*
X104417292Y-135271980D02*
X104369673Y-135319600D01*
X104369673Y-135319600D02*
X104226816Y-135367219D01*
X104226816Y-135367219D02*
X104131578Y-135367219D01*
X104131578Y-135367219D02*
X103988721Y-135319600D01*
X103988721Y-135319600D02*
X103893483Y-135224361D01*
X103893483Y-135224361D02*
X103845864Y-135129123D01*
X103845864Y-135129123D02*
X103798245Y-134938647D01*
X103798245Y-134938647D02*
X103798245Y-134795790D01*
X103798245Y-134795790D02*
X103845864Y-134605314D01*
X103845864Y-134605314D02*
X103893483Y-134510076D01*
X103893483Y-134510076D02*
X103988721Y-134414838D01*
X103988721Y-134414838D02*
X104131578Y-134367219D01*
X104131578Y-134367219D02*
X104226816Y-134367219D01*
X104226816Y-134367219D02*
X104369673Y-134414838D01*
X104369673Y-134414838D02*
X104417292Y-134462457D01*
X105179197Y-134843409D02*
X105322054Y-134891028D01*
X105322054Y-134891028D02*
X105369673Y-134938647D01*
X105369673Y-134938647D02*
X105417292Y-135033885D01*
X105417292Y-135033885D02*
X105417292Y-135176742D01*
X105417292Y-135176742D02*
X105369673Y-135271980D01*
X105369673Y-135271980D02*
X105322054Y-135319600D01*
X105322054Y-135319600D02*
X105226816Y-135367219D01*
X105226816Y-135367219D02*
X104845864Y-135367219D01*
X104845864Y-135367219D02*
X104845864Y-134367219D01*
X104845864Y-134367219D02*
X105179197Y-134367219D01*
X105179197Y-134367219D02*
X105274435Y-134414838D01*
X105274435Y-134414838D02*
X105322054Y-134462457D01*
X105322054Y-134462457D02*
X105369673Y-134557695D01*
X105369673Y-134557695D02*
X105369673Y-134652933D01*
X105369673Y-134652933D02*
X105322054Y-134748171D01*
X105322054Y-134748171D02*
X105274435Y-134795790D01*
X105274435Y-134795790D02*
X105179197Y-134843409D01*
X105179197Y-134843409D02*
X104845864Y-134843409D01*
X105798245Y-135319600D02*
X105893483Y-135367219D01*
X105893483Y-135367219D02*
X106083959Y-135367219D01*
X106083959Y-135367219D02*
X106179197Y-135319600D01*
X106179197Y-135319600D02*
X106226816Y-135224361D01*
X106226816Y-135224361D02*
X106226816Y-135176742D01*
X106226816Y-135176742D02*
X106179197Y-135081504D01*
X106179197Y-135081504D02*
X106083959Y-135033885D01*
X106083959Y-135033885D02*
X105941102Y-135033885D01*
X105941102Y-135033885D02*
X105845864Y-134986266D01*
X105845864Y-134986266D02*
X105798245Y-134891028D01*
X105798245Y-134891028D02*
X105798245Y-134843409D01*
X105798245Y-134843409D02*
X105845864Y-134748171D01*
X105845864Y-134748171D02*
X105941102Y-134700552D01*
X105941102Y-134700552D02*
X106083959Y-134700552D01*
X106083959Y-134700552D02*
X106179197Y-134748171D01*
X107845864Y-135367219D02*
X107845864Y-134843409D01*
X107845864Y-134843409D02*
X107798245Y-134748171D01*
X107798245Y-134748171D02*
X107703007Y-134700552D01*
X107703007Y-134700552D02*
X107512531Y-134700552D01*
X107512531Y-134700552D02*
X107417293Y-134748171D01*
X107845864Y-135319600D02*
X107750626Y-135367219D01*
X107750626Y-135367219D02*
X107512531Y-135367219D01*
X107512531Y-135367219D02*
X107417293Y-135319600D01*
X107417293Y-135319600D02*
X107369674Y-135224361D01*
X107369674Y-135224361D02*
X107369674Y-135129123D01*
X107369674Y-135129123D02*
X107417293Y-135033885D01*
X107417293Y-135033885D02*
X107512531Y-134986266D01*
X107512531Y-134986266D02*
X107750626Y-134986266D01*
X107750626Y-134986266D02*
X107845864Y-134938647D01*
X108322055Y-135367219D02*
X108322055Y-134367219D01*
X108750626Y-135367219D02*
X108750626Y-134843409D01*
X108750626Y-134843409D02*
X108703007Y-134748171D01*
X108703007Y-134748171D02*
X108607769Y-134700552D01*
X108607769Y-134700552D02*
X108464912Y-134700552D01*
X108464912Y-134700552D02*
X108369674Y-134748171D01*
X108369674Y-134748171D02*
X108322055Y-134795790D01*
X109607769Y-135319600D02*
X109512531Y-135367219D01*
X109512531Y-135367219D02*
X109322055Y-135367219D01*
X109322055Y-135367219D02*
X109226817Y-135319600D01*
X109226817Y-135319600D02*
X109179198Y-135224361D01*
X109179198Y-135224361D02*
X109179198Y-134843409D01*
X109179198Y-134843409D02*
X109226817Y-134748171D01*
X109226817Y-134748171D02*
X109322055Y-134700552D01*
X109322055Y-134700552D02*
X109512531Y-134700552D01*
X109512531Y-134700552D02*
X109607769Y-134748171D01*
X109607769Y-134748171D02*
X109655388Y-134843409D01*
X109655388Y-134843409D02*
X109655388Y-134938647D01*
X109655388Y-134938647D02*
X109179198Y-135033885D01*
X110512531Y-135367219D02*
X110512531Y-134843409D01*
X110512531Y-134843409D02*
X110464912Y-134748171D01*
X110464912Y-134748171D02*
X110369674Y-134700552D01*
X110369674Y-134700552D02*
X110179198Y-134700552D01*
X110179198Y-134700552D02*
X110083960Y-134748171D01*
X110512531Y-135319600D02*
X110417293Y-135367219D01*
X110417293Y-135367219D02*
X110179198Y-135367219D01*
X110179198Y-135367219D02*
X110083960Y-135319600D01*
X110083960Y-135319600D02*
X110036341Y-135224361D01*
X110036341Y-135224361D02*
X110036341Y-135129123D01*
X110036341Y-135129123D02*
X110083960Y-135033885D01*
X110083960Y-135033885D02*
X110179198Y-134986266D01*
X110179198Y-134986266D02*
X110417293Y-134986266D01*
X110417293Y-134986266D02*
X110512531Y-134938647D01*
X111417293Y-135367219D02*
X111417293Y-134367219D01*
X111417293Y-135319600D02*
X111322055Y-135367219D01*
X111322055Y-135367219D02*
X111131579Y-135367219D01*
X111131579Y-135367219D02*
X111036341Y-135319600D01*
X111036341Y-135319600D02*
X110988722Y-135271980D01*
X110988722Y-135271980D02*
X110941103Y-135176742D01*
X110941103Y-135176742D02*
X110941103Y-134891028D01*
X110941103Y-134891028D02*
X110988722Y-134795790D01*
X110988722Y-134795790D02*
X111036341Y-134748171D01*
X111036341Y-134748171D02*
X111131579Y-134700552D01*
X111131579Y-134700552D02*
X111322055Y-134700552D01*
X111322055Y-134700552D02*
X111417293Y-134748171D01*
X112798246Y-135367219D02*
X112703008Y-135319600D01*
X112703008Y-135319600D02*
X112655389Y-135271980D01*
X112655389Y-135271980D02*
X112607770Y-135176742D01*
X112607770Y-135176742D02*
X112607770Y-134891028D01*
X112607770Y-134891028D02*
X112655389Y-134795790D01*
X112655389Y-134795790D02*
X112703008Y-134748171D01*
X112703008Y-134748171D02*
X112798246Y-134700552D01*
X112798246Y-134700552D02*
X112941103Y-134700552D01*
X112941103Y-134700552D02*
X113036341Y-134748171D01*
X113036341Y-134748171D02*
X113083960Y-134795790D01*
X113083960Y-134795790D02*
X113131579Y-134891028D01*
X113131579Y-134891028D02*
X113131579Y-135176742D01*
X113131579Y-135176742D02*
X113083960Y-135271980D01*
X113083960Y-135271980D02*
X113036341Y-135319600D01*
X113036341Y-135319600D02*
X112941103Y-135367219D01*
X112941103Y-135367219D02*
X112798246Y-135367219D01*
X113417294Y-134700552D02*
X113798246Y-134700552D01*
X113560151Y-135367219D02*
X113560151Y-134510076D01*
X113560151Y-134510076D02*
X113607770Y-134414838D01*
X113607770Y-134414838D02*
X113703008Y-134367219D01*
X113703008Y-134367219D02*
X113798246Y-134367219D01*
X115322056Y-134700552D02*
X115322056Y-135367219D01*
X114893485Y-134700552D02*
X114893485Y-135224361D01*
X114893485Y-135224361D02*
X114941104Y-135319600D01*
X114941104Y-135319600D02*
X115036342Y-135367219D01*
X115036342Y-135367219D02*
X115179199Y-135367219D01*
X115179199Y-135367219D02*
X115274437Y-135319600D01*
X115274437Y-135319600D02*
X115322056Y-135271980D01*
X115750628Y-135319600D02*
X115845866Y-135367219D01*
X115845866Y-135367219D02*
X116036342Y-135367219D01*
X116036342Y-135367219D02*
X116131580Y-135319600D01*
X116131580Y-135319600D02*
X116179199Y-135224361D01*
X116179199Y-135224361D02*
X116179199Y-135176742D01*
X116179199Y-135176742D02*
X116131580Y-135081504D01*
X116131580Y-135081504D02*
X116036342Y-135033885D01*
X116036342Y-135033885D02*
X115893485Y-135033885D01*
X115893485Y-135033885D02*
X115798247Y-134986266D01*
X115798247Y-134986266D02*
X115750628Y-134891028D01*
X115750628Y-134891028D02*
X115750628Y-134843409D01*
X115750628Y-134843409D02*
X115798247Y-134748171D01*
X115798247Y-134748171D02*
X115893485Y-134700552D01*
X115893485Y-134700552D02*
X116036342Y-134700552D01*
X116036342Y-134700552D02*
X116131580Y-134748171D01*
X117369676Y-135367219D02*
X117369676Y-134367219D01*
X117369676Y-134367219D02*
X117703009Y-135081504D01*
X117703009Y-135081504D02*
X118036342Y-134367219D01*
X118036342Y-134367219D02*
X118036342Y-135367219D01*
X118941104Y-135367219D02*
X118941104Y-134843409D01*
X118941104Y-134843409D02*
X118893485Y-134748171D01*
X118893485Y-134748171D02*
X118798247Y-134700552D01*
X118798247Y-134700552D02*
X118607771Y-134700552D01*
X118607771Y-134700552D02*
X118512533Y-134748171D01*
X118941104Y-135319600D02*
X118845866Y-135367219D01*
X118845866Y-135367219D02*
X118607771Y-135367219D01*
X118607771Y-135367219D02*
X118512533Y-135319600D01*
X118512533Y-135319600D02*
X118464914Y-135224361D01*
X118464914Y-135224361D02*
X118464914Y-135129123D01*
X118464914Y-135129123D02*
X118512533Y-135033885D01*
X118512533Y-135033885D02*
X118607771Y-134986266D01*
X118607771Y-134986266D02*
X118845866Y-134986266D01*
X118845866Y-134986266D02*
X118941104Y-134938647D01*
X119274438Y-134700552D02*
X119655390Y-134700552D01*
X119417295Y-134367219D02*
X119417295Y-135224361D01*
X119417295Y-135224361D02*
X119464914Y-135319600D01*
X119464914Y-135319600D02*
X119560152Y-135367219D01*
X119560152Y-135367219D02*
X119655390Y-135367219D01*
X120369676Y-135319600D02*
X120274438Y-135367219D01*
X120274438Y-135367219D02*
X120083962Y-135367219D01*
X120083962Y-135367219D02*
X119988724Y-135319600D01*
X119988724Y-135319600D02*
X119941105Y-135224361D01*
X119941105Y-135224361D02*
X119941105Y-134843409D01*
X119941105Y-134843409D02*
X119988724Y-134748171D01*
X119988724Y-134748171D02*
X120083962Y-134700552D01*
X120083962Y-134700552D02*
X120274438Y-134700552D01*
X120274438Y-134700552D02*
X120369676Y-134748171D01*
X120369676Y-134748171D02*
X120417295Y-134843409D01*
X120417295Y-134843409D02*
X120417295Y-134938647D01*
X120417295Y-134938647D02*
X119941105Y-135033885D01*
X120845867Y-135271980D02*
X120893486Y-135319600D01*
X120893486Y-135319600D02*
X120845867Y-135367219D01*
X120845867Y-135367219D02*
X120798248Y-135319600D01*
X120798248Y-135319600D02*
X120845867Y-135271980D01*
X120845867Y-135271980D02*
X120845867Y-135367219D01*
D12*
X151127319Y-123817857D02*
X150651128Y-124151190D01*
X151127319Y-124389285D02*
X150127319Y-124389285D01*
X150127319Y-124389285D02*
X150127319Y-124008333D01*
X150127319Y-124008333D02*
X150174938Y-123913095D01*
X150174938Y-123913095D02*
X150222557Y-123865476D01*
X150222557Y-123865476D02*
X150317795Y-123817857D01*
X150317795Y-123817857D02*
X150460652Y-123817857D01*
X150460652Y-123817857D02*
X150555890Y-123865476D01*
X150555890Y-123865476D02*
X150603509Y-123913095D01*
X150603509Y-123913095D02*
X150651128Y-124008333D01*
X150651128Y-124008333D02*
X150651128Y-124389285D01*
X151127319Y-122865476D02*
X151127319Y-123436904D01*
X151127319Y-123151190D02*
X150127319Y-123151190D01*
X150127319Y-123151190D02*
X150270176Y-123246428D01*
X150270176Y-123246428D02*
X150365414Y-123341666D01*
X150365414Y-123341666D02*
X150413033Y-123436904D01*
X150555890Y-122294047D02*
X150508271Y-122389285D01*
X150508271Y-122389285D02*
X150460652Y-122436904D01*
X150460652Y-122436904D02*
X150365414Y-122484523D01*
X150365414Y-122484523D02*
X150317795Y-122484523D01*
X150317795Y-122484523D02*
X150222557Y-122436904D01*
X150222557Y-122436904D02*
X150174938Y-122389285D01*
X150174938Y-122389285D02*
X150127319Y-122294047D01*
X150127319Y-122294047D02*
X150127319Y-122103571D01*
X150127319Y-122103571D02*
X150174938Y-122008333D01*
X150174938Y-122008333D02*
X150222557Y-121960714D01*
X150222557Y-121960714D02*
X150317795Y-121913095D01*
X150317795Y-121913095D02*
X150365414Y-121913095D01*
X150365414Y-121913095D02*
X150460652Y-121960714D01*
X150460652Y-121960714D02*
X150508271Y-122008333D01*
X150508271Y-122008333D02*
X150555890Y-122103571D01*
X150555890Y-122103571D02*
X150555890Y-122294047D01*
X150555890Y-122294047D02*
X150603509Y-122389285D01*
X150603509Y-122389285D02*
X150651128Y-122436904D01*
X150651128Y-122436904D02*
X150746366Y-122484523D01*
X150746366Y-122484523D02*
X150936842Y-122484523D01*
X150936842Y-122484523D02*
X151032080Y-122436904D01*
X151032080Y-122436904D02*
X151079700Y-122389285D01*
X151079700Y-122389285D02*
X151127319Y-122294047D01*
X151127319Y-122294047D02*
X151127319Y-122103571D01*
X151127319Y-122103571D02*
X151079700Y-122008333D01*
X151079700Y-122008333D02*
X151032080Y-121960714D01*
X151032080Y-121960714D02*
X150936842Y-121913095D01*
X150936842Y-121913095D02*
X150746366Y-121913095D01*
X150746366Y-121913095D02*
X150651128Y-121960714D01*
X150651128Y-121960714D02*
X150603509Y-122008333D01*
X150603509Y-122008333D02*
X150555890Y-122103571D01*
X203739405Y-62684069D02*
X203739405Y-63493592D01*
X203739405Y-63493592D02*
X203787024Y-63588830D01*
X203787024Y-63588830D02*
X203834643Y-63636450D01*
X203834643Y-63636450D02*
X203929881Y-63684069D01*
X203929881Y-63684069D02*
X204120357Y-63684069D01*
X204120357Y-63684069D02*
X204215595Y-63636450D01*
X204215595Y-63636450D02*
X204263214Y-63588830D01*
X204263214Y-63588830D02*
X204310833Y-63493592D01*
X204310833Y-63493592D02*
X204310833Y-62684069D01*
X204739405Y-63636450D02*
X204882262Y-63684069D01*
X204882262Y-63684069D02*
X205120357Y-63684069D01*
X205120357Y-63684069D02*
X205215595Y-63636450D01*
X205215595Y-63636450D02*
X205263214Y-63588830D01*
X205263214Y-63588830D02*
X205310833Y-63493592D01*
X205310833Y-63493592D02*
X205310833Y-63398354D01*
X205310833Y-63398354D02*
X205263214Y-63303116D01*
X205263214Y-63303116D02*
X205215595Y-63255497D01*
X205215595Y-63255497D02*
X205120357Y-63207878D01*
X205120357Y-63207878D02*
X204929881Y-63160259D01*
X204929881Y-63160259D02*
X204834643Y-63112640D01*
X204834643Y-63112640D02*
X204787024Y-63065021D01*
X204787024Y-63065021D02*
X204739405Y-62969783D01*
X204739405Y-62969783D02*
X204739405Y-62874545D01*
X204739405Y-62874545D02*
X204787024Y-62779307D01*
X204787024Y-62779307D02*
X204834643Y-62731688D01*
X204834643Y-62731688D02*
X204929881Y-62684069D01*
X204929881Y-62684069D02*
X205167976Y-62684069D01*
X205167976Y-62684069D02*
X205310833Y-62731688D01*
X206072738Y-63160259D02*
X206215595Y-63207878D01*
X206215595Y-63207878D02*
X206263214Y-63255497D01*
X206263214Y-63255497D02*
X206310833Y-63350735D01*
X206310833Y-63350735D02*
X206310833Y-63493592D01*
X206310833Y-63493592D02*
X206263214Y-63588830D01*
X206263214Y-63588830D02*
X206215595Y-63636450D01*
X206215595Y-63636450D02*
X206120357Y-63684069D01*
X206120357Y-63684069D02*
X205739405Y-63684069D01*
X205739405Y-63684069D02*
X205739405Y-62684069D01*
X205739405Y-62684069D02*
X206072738Y-62684069D01*
X206072738Y-62684069D02*
X206167976Y-62731688D01*
X206167976Y-62731688D02*
X206215595Y-62779307D01*
X206215595Y-62779307D02*
X206263214Y-62874545D01*
X206263214Y-62874545D02*
X206263214Y-62969783D01*
X206263214Y-62969783D02*
X206215595Y-63065021D01*
X206215595Y-63065021D02*
X206167976Y-63112640D01*
X206167976Y-63112640D02*
X206072738Y-63160259D01*
X206072738Y-63160259D02*
X205739405Y-63160259D01*
X207263214Y-63684069D02*
X206691786Y-63684069D01*
X206977500Y-63684069D02*
X206977500Y-62684069D01*
X206977500Y-62684069D02*
X206882262Y-62826926D01*
X206882262Y-62826926D02*
X206787024Y-62922164D01*
X206787024Y-62922164D02*
X206691786Y-62969783D01*
X194627319Y-74642857D02*
X194151128Y-74976190D01*
X194627319Y-75214285D02*
X193627319Y-75214285D01*
X193627319Y-75214285D02*
X193627319Y-74833333D01*
X193627319Y-74833333D02*
X193674938Y-74738095D01*
X193674938Y-74738095D02*
X193722557Y-74690476D01*
X193722557Y-74690476D02*
X193817795Y-74642857D01*
X193817795Y-74642857D02*
X193960652Y-74642857D01*
X193960652Y-74642857D02*
X194055890Y-74690476D01*
X194055890Y-74690476D02*
X194103509Y-74738095D01*
X194103509Y-74738095D02*
X194151128Y-74833333D01*
X194151128Y-74833333D02*
X194151128Y-75214285D01*
X194627319Y-73690476D02*
X194627319Y-74261904D01*
X194627319Y-73976190D02*
X193627319Y-73976190D01*
X193627319Y-73976190D02*
X193770176Y-74071428D01*
X193770176Y-74071428D02*
X193865414Y-74166666D01*
X193865414Y-74166666D02*
X193913033Y-74261904D01*
X193627319Y-73071428D02*
X193627319Y-72976190D01*
X193627319Y-72976190D02*
X193674938Y-72880952D01*
X193674938Y-72880952D02*
X193722557Y-72833333D01*
X193722557Y-72833333D02*
X193817795Y-72785714D01*
X193817795Y-72785714D02*
X194008271Y-72738095D01*
X194008271Y-72738095D02*
X194246366Y-72738095D01*
X194246366Y-72738095D02*
X194436842Y-72785714D01*
X194436842Y-72785714D02*
X194532080Y-72833333D01*
X194532080Y-72833333D02*
X194579700Y-72880952D01*
X194579700Y-72880952D02*
X194627319Y-72976190D01*
X194627319Y-72976190D02*
X194627319Y-73071428D01*
X194627319Y-73071428D02*
X194579700Y-73166666D01*
X194579700Y-73166666D02*
X194532080Y-73214285D01*
X194532080Y-73214285D02*
X194436842Y-73261904D01*
X194436842Y-73261904D02*
X194246366Y-73309523D01*
X194246366Y-73309523D02*
X194008271Y-73309523D01*
X194008271Y-73309523D02*
X193817795Y-73261904D01*
X193817795Y-73261904D02*
X193722557Y-73214285D01*
X193722557Y-73214285D02*
X193674938Y-73166666D01*
X193674938Y-73166666D02*
X193627319Y-73071428D01*
X167092800Y-127666667D02*
X167045180Y-127809524D01*
X167045180Y-127809524D02*
X167045180Y-128047619D01*
X167045180Y-128047619D02*
X167092800Y-128142857D01*
X167092800Y-128142857D02*
X167140419Y-128190476D01*
X167140419Y-128190476D02*
X167235657Y-128238095D01*
X167235657Y-128238095D02*
X167330895Y-128238095D01*
X167330895Y-128238095D02*
X167426133Y-128190476D01*
X167426133Y-128190476D02*
X167473752Y-128142857D01*
X167473752Y-128142857D02*
X167521371Y-128047619D01*
X167521371Y-128047619D02*
X167568990Y-127857143D01*
X167568990Y-127857143D02*
X167616609Y-127761905D01*
X167616609Y-127761905D02*
X167664228Y-127714286D01*
X167664228Y-127714286D02*
X167759466Y-127666667D01*
X167759466Y-127666667D02*
X167854704Y-127666667D01*
X167854704Y-127666667D02*
X167949942Y-127714286D01*
X167949942Y-127714286D02*
X167997561Y-127761905D01*
X167997561Y-127761905D02*
X168045180Y-127857143D01*
X168045180Y-127857143D02*
X168045180Y-128095238D01*
X168045180Y-128095238D02*
X167997561Y-128238095D01*
X168045180Y-128571429D02*
X167045180Y-128809524D01*
X167045180Y-128809524D02*
X167759466Y-129000000D01*
X167759466Y-129000000D02*
X167045180Y-129190476D01*
X167045180Y-129190476D02*
X168045180Y-129428572D01*
X167949942Y-129761905D02*
X167997561Y-129809524D01*
X167997561Y-129809524D02*
X168045180Y-129904762D01*
X168045180Y-129904762D02*
X168045180Y-130142857D01*
X168045180Y-130142857D02*
X167997561Y-130238095D01*
X167997561Y-130238095D02*
X167949942Y-130285714D01*
X167949942Y-130285714D02*
X167854704Y-130333333D01*
X167854704Y-130333333D02*
X167759466Y-130333333D01*
X167759466Y-130333333D02*
X167616609Y-130285714D01*
X167616609Y-130285714D02*
X167045180Y-129714286D01*
X167045180Y-129714286D02*
X167045180Y-130333333D01*
X118158333Y-104524819D02*
X117825000Y-104048628D01*
X117586905Y-104524819D02*
X117586905Y-103524819D01*
X117586905Y-103524819D02*
X117967857Y-103524819D01*
X117967857Y-103524819D02*
X118063095Y-103572438D01*
X118063095Y-103572438D02*
X118110714Y-103620057D01*
X118110714Y-103620057D02*
X118158333Y-103715295D01*
X118158333Y-103715295D02*
X118158333Y-103858152D01*
X118158333Y-103858152D02*
X118110714Y-103953390D01*
X118110714Y-103953390D02*
X118063095Y-104001009D01*
X118063095Y-104001009D02*
X117967857Y-104048628D01*
X117967857Y-104048628D02*
X117586905Y-104048628D01*
X119015476Y-103524819D02*
X118825000Y-103524819D01*
X118825000Y-103524819D02*
X118729762Y-103572438D01*
X118729762Y-103572438D02*
X118682143Y-103620057D01*
X118682143Y-103620057D02*
X118586905Y-103762914D01*
X118586905Y-103762914D02*
X118539286Y-103953390D01*
X118539286Y-103953390D02*
X118539286Y-104334342D01*
X118539286Y-104334342D02*
X118586905Y-104429580D01*
X118586905Y-104429580D02*
X118634524Y-104477200D01*
X118634524Y-104477200D02*
X118729762Y-104524819D01*
X118729762Y-104524819D02*
X118920238Y-104524819D01*
X118920238Y-104524819D02*
X119015476Y-104477200D01*
X119015476Y-104477200D02*
X119063095Y-104429580D01*
X119063095Y-104429580D02*
X119110714Y-104334342D01*
X119110714Y-104334342D02*
X119110714Y-104096247D01*
X119110714Y-104096247D02*
X119063095Y-104001009D01*
X119063095Y-104001009D02*
X119015476Y-103953390D01*
X119015476Y-103953390D02*
X118920238Y-103905771D01*
X118920238Y-103905771D02*
X118729762Y-103905771D01*
X118729762Y-103905771D02*
X118634524Y-103953390D01*
X118634524Y-103953390D02*
X118586905Y-104001009D01*
X118586905Y-104001009D02*
X118539286Y-104096247D01*
X193215833Y-80174819D02*
X192882500Y-79698628D01*
X192644405Y-80174819D02*
X192644405Y-79174819D01*
X192644405Y-79174819D02*
X193025357Y-79174819D01*
X193025357Y-79174819D02*
X193120595Y-79222438D01*
X193120595Y-79222438D02*
X193168214Y-79270057D01*
X193168214Y-79270057D02*
X193215833Y-79365295D01*
X193215833Y-79365295D02*
X193215833Y-79508152D01*
X193215833Y-79508152D02*
X193168214Y-79603390D01*
X193168214Y-79603390D02*
X193120595Y-79651009D01*
X193120595Y-79651009D02*
X193025357Y-79698628D01*
X193025357Y-79698628D02*
X192644405Y-79698628D01*
X193692024Y-80174819D02*
X193882500Y-80174819D01*
X193882500Y-80174819D02*
X193977738Y-80127200D01*
X193977738Y-80127200D02*
X194025357Y-80079580D01*
X194025357Y-80079580D02*
X194120595Y-79936723D01*
X194120595Y-79936723D02*
X194168214Y-79746247D01*
X194168214Y-79746247D02*
X194168214Y-79365295D01*
X194168214Y-79365295D02*
X194120595Y-79270057D01*
X194120595Y-79270057D02*
X194072976Y-79222438D01*
X194072976Y-79222438D02*
X193977738Y-79174819D01*
X193977738Y-79174819D02*
X193787262Y-79174819D01*
X193787262Y-79174819D02*
X193692024Y-79222438D01*
X193692024Y-79222438D02*
X193644405Y-79270057D01*
X193644405Y-79270057D02*
X193596786Y-79365295D01*
X193596786Y-79365295D02*
X193596786Y-79603390D01*
X193596786Y-79603390D02*
X193644405Y-79698628D01*
X193644405Y-79698628D02*
X193692024Y-79746247D01*
X193692024Y-79746247D02*
X193787262Y-79793866D01*
X193787262Y-79793866D02*
X193977738Y-79793866D01*
X193977738Y-79793866D02*
X194072976Y-79746247D01*
X194072976Y-79746247D02*
X194120595Y-79698628D01*
X194120595Y-79698628D02*
X194168214Y-79603390D01*
D13*
X104542580Y-100238095D02*
X103733057Y-100238095D01*
X103733057Y-100238095D02*
X103637819Y-100285714D01*
X103637819Y-100285714D02*
X103590200Y-100333333D01*
X103590200Y-100333333D02*
X103542580Y-100428571D01*
X103542580Y-100428571D02*
X103542580Y-100619047D01*
X103542580Y-100619047D02*
X103590200Y-100714285D01*
X103590200Y-100714285D02*
X103637819Y-100761904D01*
X103637819Y-100761904D02*
X103733057Y-100809523D01*
X103733057Y-100809523D02*
X104542580Y-100809523D01*
X104114009Y-101428571D02*
X104161628Y-101333333D01*
X104161628Y-101333333D02*
X104209247Y-101285714D01*
X104209247Y-101285714D02*
X104304485Y-101238095D01*
X104304485Y-101238095D02*
X104352104Y-101238095D01*
X104352104Y-101238095D02*
X104447342Y-101285714D01*
X104447342Y-101285714D02*
X104494961Y-101333333D01*
X104494961Y-101333333D02*
X104542580Y-101428571D01*
X104542580Y-101428571D02*
X104542580Y-101619047D01*
X104542580Y-101619047D02*
X104494961Y-101714285D01*
X104494961Y-101714285D02*
X104447342Y-101761904D01*
X104447342Y-101761904D02*
X104352104Y-101809523D01*
X104352104Y-101809523D02*
X104304485Y-101809523D01*
X104304485Y-101809523D02*
X104209247Y-101761904D01*
X104209247Y-101761904D02*
X104161628Y-101714285D01*
X104161628Y-101714285D02*
X104114009Y-101619047D01*
X104114009Y-101619047D02*
X104114009Y-101428571D01*
X104114009Y-101428571D02*
X104066390Y-101333333D01*
X104066390Y-101333333D02*
X104018771Y-101285714D01*
X104018771Y-101285714D02*
X103923533Y-101238095D01*
X103923533Y-101238095D02*
X103733057Y-101238095D01*
X103733057Y-101238095D02*
X103637819Y-101285714D01*
X103637819Y-101285714D02*
X103590200Y-101333333D01*
X103590200Y-101333333D02*
X103542580Y-101428571D01*
X103542580Y-101428571D02*
X103542580Y-101619047D01*
X103542580Y-101619047D02*
X103590200Y-101714285D01*
X103590200Y-101714285D02*
X103637819Y-101761904D01*
X103637819Y-101761904D02*
X103733057Y-101809523D01*
X103733057Y-101809523D02*
X103923533Y-101809523D01*
X103923533Y-101809523D02*
X104018771Y-101761904D01*
X104018771Y-101761904D02*
X104066390Y-101714285D01*
X104066390Y-101714285D02*
X104114009Y-101619047D01*
D12*
X188435833Y-112359580D02*
X188388214Y-112407200D01*
X188388214Y-112407200D02*
X188245357Y-112454819D01*
X188245357Y-112454819D02*
X188150119Y-112454819D01*
X188150119Y-112454819D02*
X188007262Y-112407200D01*
X188007262Y-112407200D02*
X187912024Y-112311961D01*
X187912024Y-112311961D02*
X187864405Y-112216723D01*
X187864405Y-112216723D02*
X187816786Y-112026247D01*
X187816786Y-112026247D02*
X187816786Y-111883390D01*
X187816786Y-111883390D02*
X187864405Y-111692914D01*
X187864405Y-111692914D02*
X187912024Y-111597676D01*
X187912024Y-111597676D02*
X188007262Y-111502438D01*
X188007262Y-111502438D02*
X188150119Y-111454819D01*
X188150119Y-111454819D02*
X188245357Y-111454819D01*
X188245357Y-111454819D02*
X188388214Y-111502438D01*
X188388214Y-111502438D02*
X188435833Y-111550057D01*
X188816786Y-111550057D02*
X188864405Y-111502438D01*
X188864405Y-111502438D02*
X188959643Y-111454819D01*
X188959643Y-111454819D02*
X189197738Y-111454819D01*
X189197738Y-111454819D02*
X189292976Y-111502438D01*
X189292976Y-111502438D02*
X189340595Y-111550057D01*
X189340595Y-111550057D02*
X189388214Y-111645295D01*
X189388214Y-111645295D02*
X189388214Y-111740533D01*
X189388214Y-111740533D02*
X189340595Y-111883390D01*
X189340595Y-111883390D02*
X188769167Y-112454819D01*
X188769167Y-112454819D02*
X189388214Y-112454819D01*
X157487319Y-105166666D02*
X157011128Y-105499999D01*
X157487319Y-105738094D02*
X156487319Y-105738094D01*
X156487319Y-105738094D02*
X156487319Y-105357142D01*
X156487319Y-105357142D02*
X156534938Y-105261904D01*
X156534938Y-105261904D02*
X156582557Y-105214285D01*
X156582557Y-105214285D02*
X156677795Y-105166666D01*
X156677795Y-105166666D02*
X156820652Y-105166666D01*
X156820652Y-105166666D02*
X156915890Y-105214285D01*
X156915890Y-105214285D02*
X156963509Y-105261904D01*
X156963509Y-105261904D02*
X157011128Y-105357142D01*
X157011128Y-105357142D02*
X157011128Y-105738094D01*
X156487319Y-104833332D02*
X156487319Y-104214285D01*
X156487319Y-104214285D02*
X156868271Y-104547618D01*
X156868271Y-104547618D02*
X156868271Y-104404761D01*
X156868271Y-104404761D02*
X156915890Y-104309523D01*
X156915890Y-104309523D02*
X156963509Y-104261904D01*
X156963509Y-104261904D02*
X157058747Y-104214285D01*
X157058747Y-104214285D02*
X157296842Y-104214285D01*
X157296842Y-104214285D02*
X157392080Y-104261904D01*
X157392080Y-104261904D02*
X157439700Y-104309523D01*
X157439700Y-104309523D02*
X157487319Y-104404761D01*
X157487319Y-104404761D02*
X157487319Y-104690475D01*
X157487319Y-104690475D02*
X157439700Y-104785713D01*
X157439700Y-104785713D02*
X157392080Y-104833332D01*
X118333333Y-100024819D02*
X118000000Y-99548628D01*
X117761905Y-100024819D02*
X117761905Y-99024819D01*
X117761905Y-99024819D02*
X118142857Y-99024819D01*
X118142857Y-99024819D02*
X118238095Y-99072438D01*
X118238095Y-99072438D02*
X118285714Y-99120057D01*
X118285714Y-99120057D02*
X118333333Y-99215295D01*
X118333333Y-99215295D02*
X118333333Y-99358152D01*
X118333333Y-99358152D02*
X118285714Y-99453390D01*
X118285714Y-99453390D02*
X118238095Y-99501009D01*
X118238095Y-99501009D02*
X118142857Y-99548628D01*
X118142857Y-99548628D02*
X117761905Y-99548628D01*
X119238095Y-99024819D02*
X118761905Y-99024819D01*
X118761905Y-99024819D02*
X118714286Y-99501009D01*
X118714286Y-99501009D02*
X118761905Y-99453390D01*
X118761905Y-99453390D02*
X118857143Y-99405771D01*
X118857143Y-99405771D02*
X119095238Y-99405771D01*
X119095238Y-99405771D02*
X119190476Y-99453390D01*
X119190476Y-99453390D02*
X119238095Y-99501009D01*
X119238095Y-99501009D02*
X119285714Y-99596247D01*
X119285714Y-99596247D02*
X119285714Y-99834342D01*
X119285714Y-99834342D02*
X119238095Y-99929580D01*
X119238095Y-99929580D02*
X119190476Y-99977200D01*
X119190476Y-99977200D02*
X119095238Y-100024819D01*
X119095238Y-100024819D02*
X118857143Y-100024819D01*
X118857143Y-100024819D02*
X118761905Y-99977200D01*
X118761905Y-99977200D02*
X118714286Y-99929580D01*
X173935833Y-108359580D02*
X173888214Y-108407200D01*
X173888214Y-108407200D02*
X173745357Y-108454819D01*
X173745357Y-108454819D02*
X173650119Y-108454819D01*
X173650119Y-108454819D02*
X173507262Y-108407200D01*
X173507262Y-108407200D02*
X173412024Y-108311961D01*
X173412024Y-108311961D02*
X173364405Y-108216723D01*
X173364405Y-108216723D02*
X173316786Y-108026247D01*
X173316786Y-108026247D02*
X173316786Y-107883390D01*
X173316786Y-107883390D02*
X173364405Y-107692914D01*
X173364405Y-107692914D02*
X173412024Y-107597676D01*
X173412024Y-107597676D02*
X173507262Y-107502438D01*
X173507262Y-107502438D02*
X173650119Y-107454819D01*
X173650119Y-107454819D02*
X173745357Y-107454819D01*
X173745357Y-107454819D02*
X173888214Y-107502438D01*
X173888214Y-107502438D02*
X173935833Y-107550057D01*
X174840595Y-107454819D02*
X174364405Y-107454819D01*
X174364405Y-107454819D02*
X174316786Y-107931009D01*
X174316786Y-107931009D02*
X174364405Y-107883390D01*
X174364405Y-107883390D02*
X174459643Y-107835771D01*
X174459643Y-107835771D02*
X174697738Y-107835771D01*
X174697738Y-107835771D02*
X174792976Y-107883390D01*
X174792976Y-107883390D02*
X174840595Y-107931009D01*
X174840595Y-107931009D02*
X174888214Y-108026247D01*
X174888214Y-108026247D02*
X174888214Y-108264342D01*
X174888214Y-108264342D02*
X174840595Y-108359580D01*
X174840595Y-108359580D02*
X174792976Y-108407200D01*
X174792976Y-108407200D02*
X174697738Y-108454819D01*
X174697738Y-108454819D02*
X174459643Y-108454819D01*
X174459643Y-108454819D02*
X174364405Y-108407200D01*
X174364405Y-108407200D02*
X174316786Y-108359580D01*
X187459642Y-63024819D02*
X187126309Y-62548628D01*
X186888214Y-63024819D02*
X186888214Y-62024819D01*
X186888214Y-62024819D02*
X187269166Y-62024819D01*
X187269166Y-62024819D02*
X187364404Y-62072438D01*
X187364404Y-62072438D02*
X187412023Y-62120057D01*
X187412023Y-62120057D02*
X187459642Y-62215295D01*
X187459642Y-62215295D02*
X187459642Y-62358152D01*
X187459642Y-62358152D02*
X187412023Y-62453390D01*
X187412023Y-62453390D02*
X187364404Y-62501009D01*
X187364404Y-62501009D02*
X187269166Y-62548628D01*
X187269166Y-62548628D02*
X186888214Y-62548628D01*
X188412023Y-63024819D02*
X187840595Y-63024819D01*
X188126309Y-63024819D02*
X188126309Y-62024819D01*
X188126309Y-62024819D02*
X188031071Y-62167676D01*
X188031071Y-62167676D02*
X187935833Y-62262914D01*
X187935833Y-62262914D02*
X187840595Y-62310533D01*
X189364404Y-63024819D02*
X188792976Y-63024819D01*
X189078690Y-63024819D02*
X189078690Y-62024819D01*
X189078690Y-62024819D02*
X188983452Y-62167676D01*
X188983452Y-62167676D02*
X188888214Y-62262914D01*
X188888214Y-62262914D02*
X188792976Y-62310533D01*
X167269167Y-96907200D02*
X167412024Y-96954819D01*
X167412024Y-96954819D02*
X167650119Y-96954819D01*
X167650119Y-96954819D02*
X167745357Y-96907200D01*
X167745357Y-96907200D02*
X167792976Y-96859580D01*
X167792976Y-96859580D02*
X167840595Y-96764342D01*
X167840595Y-96764342D02*
X167840595Y-96669104D01*
X167840595Y-96669104D02*
X167792976Y-96573866D01*
X167792976Y-96573866D02*
X167745357Y-96526247D01*
X167745357Y-96526247D02*
X167650119Y-96478628D01*
X167650119Y-96478628D02*
X167459643Y-96431009D01*
X167459643Y-96431009D02*
X167364405Y-96383390D01*
X167364405Y-96383390D02*
X167316786Y-96335771D01*
X167316786Y-96335771D02*
X167269167Y-96240533D01*
X167269167Y-96240533D02*
X167269167Y-96145295D01*
X167269167Y-96145295D02*
X167316786Y-96050057D01*
X167316786Y-96050057D02*
X167364405Y-96002438D01*
X167364405Y-96002438D02*
X167459643Y-95954819D01*
X167459643Y-95954819D02*
X167697738Y-95954819D01*
X167697738Y-95954819D02*
X167840595Y-96002438D01*
X168173929Y-95954819D02*
X168412024Y-96954819D01*
X168412024Y-96954819D02*
X168602500Y-96240533D01*
X168602500Y-96240533D02*
X168792976Y-96954819D01*
X168792976Y-96954819D02*
X169031072Y-95954819D01*
X169888214Y-95954819D02*
X169412024Y-95954819D01*
X169412024Y-95954819D02*
X169364405Y-96431009D01*
X169364405Y-96431009D02*
X169412024Y-96383390D01*
X169412024Y-96383390D02*
X169507262Y-96335771D01*
X169507262Y-96335771D02*
X169745357Y-96335771D01*
X169745357Y-96335771D02*
X169840595Y-96383390D01*
X169840595Y-96383390D02*
X169888214Y-96431009D01*
X169888214Y-96431009D02*
X169935833Y-96526247D01*
X169935833Y-96526247D02*
X169935833Y-96764342D01*
X169935833Y-96764342D02*
X169888214Y-96859580D01*
X169888214Y-96859580D02*
X169840595Y-96907200D01*
X169840595Y-96907200D02*
X169745357Y-96954819D01*
X169745357Y-96954819D02*
X169507262Y-96954819D01*
X169507262Y-96954819D02*
X169412024Y-96907200D01*
X169412024Y-96907200D02*
X169364405Y-96859580D01*
X196415595Y-79754819D02*
X196415595Y-80564342D01*
X196415595Y-80564342D02*
X196463214Y-80659580D01*
X196463214Y-80659580D02*
X196510833Y-80707200D01*
X196510833Y-80707200D02*
X196606071Y-80754819D01*
X196606071Y-80754819D02*
X196796547Y-80754819D01*
X196796547Y-80754819D02*
X196891785Y-80707200D01*
X196891785Y-80707200D02*
X196939404Y-80659580D01*
X196939404Y-80659580D02*
X196987023Y-80564342D01*
X196987023Y-80564342D02*
X196987023Y-79754819D01*
X197367976Y-79754819D02*
X198034642Y-79754819D01*
X198034642Y-79754819D02*
X197606071Y-80754819D01*
X187555595Y-67914819D02*
X187555595Y-68724342D01*
X187555595Y-68724342D02*
X187603214Y-68819580D01*
X187603214Y-68819580D02*
X187650833Y-68867200D01*
X187650833Y-68867200D02*
X187746071Y-68914819D01*
X187746071Y-68914819D02*
X187936547Y-68914819D01*
X187936547Y-68914819D02*
X188031785Y-68867200D01*
X188031785Y-68867200D02*
X188079404Y-68819580D01*
X188079404Y-68819580D02*
X188127023Y-68724342D01*
X188127023Y-68724342D02*
X188127023Y-67914819D01*
X189079404Y-67914819D02*
X188603214Y-67914819D01*
X188603214Y-67914819D02*
X188555595Y-68391009D01*
X188555595Y-68391009D02*
X188603214Y-68343390D01*
X188603214Y-68343390D02*
X188698452Y-68295771D01*
X188698452Y-68295771D02*
X188936547Y-68295771D01*
X188936547Y-68295771D02*
X189031785Y-68343390D01*
X189031785Y-68343390D02*
X189079404Y-68391009D01*
X189079404Y-68391009D02*
X189127023Y-68486247D01*
X189127023Y-68486247D02*
X189127023Y-68724342D01*
X189127023Y-68724342D02*
X189079404Y-68819580D01*
X189079404Y-68819580D02*
X189031785Y-68867200D01*
X189031785Y-68867200D02*
X188936547Y-68914819D01*
X188936547Y-68914819D02*
X188698452Y-68914819D01*
X188698452Y-68914819D02*
X188603214Y-68867200D01*
X188603214Y-68867200D02*
X188555595Y-68819580D01*
X196076905Y-71884819D02*
X196076905Y-70884819D01*
X196076905Y-70884819D02*
X196315000Y-70884819D01*
X196315000Y-70884819D02*
X196457857Y-70932438D01*
X196457857Y-70932438D02*
X196553095Y-71027676D01*
X196553095Y-71027676D02*
X196600714Y-71122914D01*
X196600714Y-71122914D02*
X196648333Y-71313390D01*
X196648333Y-71313390D02*
X196648333Y-71456247D01*
X196648333Y-71456247D02*
X196600714Y-71646723D01*
X196600714Y-71646723D02*
X196553095Y-71741961D01*
X196553095Y-71741961D02*
X196457857Y-71837200D01*
X196457857Y-71837200D02*
X196315000Y-71884819D01*
X196315000Y-71884819D02*
X196076905Y-71884819D01*
X196981667Y-70884819D02*
X197600714Y-70884819D01*
X197600714Y-70884819D02*
X197267381Y-71265771D01*
X197267381Y-71265771D02*
X197410238Y-71265771D01*
X197410238Y-71265771D02*
X197505476Y-71313390D01*
X197505476Y-71313390D02*
X197553095Y-71361009D01*
X197553095Y-71361009D02*
X197600714Y-71456247D01*
X197600714Y-71456247D02*
X197600714Y-71694342D01*
X197600714Y-71694342D02*
X197553095Y-71789580D01*
X197553095Y-71789580D02*
X197505476Y-71837200D01*
X197505476Y-71837200D02*
X197410238Y-71884819D01*
X197410238Y-71884819D02*
X197124524Y-71884819D01*
X197124524Y-71884819D02*
X197029286Y-71837200D01*
X197029286Y-71837200D02*
X196981667Y-71789580D01*
X154627319Y-109025594D02*
X153627319Y-109025594D01*
X153627319Y-109025594D02*
X153627319Y-108787499D01*
X153627319Y-108787499D02*
X153674938Y-108644642D01*
X153674938Y-108644642D02*
X153770176Y-108549404D01*
X153770176Y-108549404D02*
X153865414Y-108501785D01*
X153865414Y-108501785D02*
X154055890Y-108454166D01*
X154055890Y-108454166D02*
X154198747Y-108454166D01*
X154198747Y-108454166D02*
X154389223Y-108501785D01*
X154389223Y-108501785D02*
X154484461Y-108549404D01*
X154484461Y-108549404D02*
X154579700Y-108644642D01*
X154579700Y-108644642D02*
X154627319Y-108787499D01*
X154627319Y-108787499D02*
X154627319Y-109025594D01*
X153722557Y-108073213D02*
X153674938Y-108025594D01*
X153674938Y-108025594D02*
X153627319Y-107930356D01*
X153627319Y-107930356D02*
X153627319Y-107692261D01*
X153627319Y-107692261D02*
X153674938Y-107597023D01*
X153674938Y-107597023D02*
X153722557Y-107549404D01*
X153722557Y-107549404D02*
X153817795Y-107501785D01*
X153817795Y-107501785D02*
X153913033Y-107501785D01*
X153913033Y-107501785D02*
X154055890Y-107549404D01*
X154055890Y-107549404D02*
X154627319Y-108120832D01*
X154627319Y-108120832D02*
X154627319Y-107501785D01*
X202057319Y-70666666D02*
X201581128Y-70999999D01*
X202057319Y-71238094D02*
X201057319Y-71238094D01*
X201057319Y-71238094D02*
X201057319Y-70857142D01*
X201057319Y-70857142D02*
X201104938Y-70761904D01*
X201104938Y-70761904D02*
X201152557Y-70714285D01*
X201152557Y-70714285D02*
X201247795Y-70666666D01*
X201247795Y-70666666D02*
X201390652Y-70666666D01*
X201390652Y-70666666D02*
X201485890Y-70714285D01*
X201485890Y-70714285D02*
X201533509Y-70761904D01*
X201533509Y-70761904D02*
X201581128Y-70857142D01*
X201581128Y-70857142D02*
X201581128Y-71238094D01*
X201057319Y-70333332D02*
X201057319Y-69666666D01*
X201057319Y-69666666D02*
X202057319Y-70095237D01*
X190695300Y-97166667D02*
X190647680Y-97309524D01*
X190647680Y-97309524D02*
X190647680Y-97547619D01*
X190647680Y-97547619D02*
X190695300Y-97642857D01*
X190695300Y-97642857D02*
X190742919Y-97690476D01*
X190742919Y-97690476D02*
X190838157Y-97738095D01*
X190838157Y-97738095D02*
X190933395Y-97738095D01*
X190933395Y-97738095D02*
X191028633Y-97690476D01*
X191028633Y-97690476D02*
X191076252Y-97642857D01*
X191076252Y-97642857D02*
X191123871Y-97547619D01*
X191123871Y-97547619D02*
X191171490Y-97357143D01*
X191171490Y-97357143D02*
X191219109Y-97261905D01*
X191219109Y-97261905D02*
X191266728Y-97214286D01*
X191266728Y-97214286D02*
X191361966Y-97166667D01*
X191361966Y-97166667D02*
X191457204Y-97166667D01*
X191457204Y-97166667D02*
X191552442Y-97214286D01*
X191552442Y-97214286D02*
X191600061Y-97261905D01*
X191600061Y-97261905D02*
X191647680Y-97357143D01*
X191647680Y-97357143D02*
X191647680Y-97595238D01*
X191647680Y-97595238D02*
X191600061Y-97738095D01*
X191647680Y-98071429D02*
X190647680Y-98309524D01*
X190647680Y-98309524D02*
X191361966Y-98500000D01*
X191361966Y-98500000D02*
X190647680Y-98690476D01*
X190647680Y-98690476D02*
X191647680Y-98928572D01*
X191314347Y-99738095D02*
X190647680Y-99738095D01*
X191695300Y-99500000D02*
X190981014Y-99261905D01*
X190981014Y-99261905D02*
X190981014Y-99880952D01*
X109065595Y-83189819D02*
X109065595Y-83999342D01*
X109065595Y-83999342D02*
X109113214Y-84094580D01*
X109113214Y-84094580D02*
X109160833Y-84142200D01*
X109160833Y-84142200D02*
X109256071Y-84189819D01*
X109256071Y-84189819D02*
X109446547Y-84189819D01*
X109446547Y-84189819D02*
X109541785Y-84142200D01*
X109541785Y-84142200D02*
X109589404Y-84094580D01*
X109589404Y-84094580D02*
X109637023Y-83999342D01*
X109637023Y-83999342D02*
X109637023Y-83189819D01*
X110637023Y-84189819D02*
X110065595Y-84189819D01*
X110351309Y-84189819D02*
X110351309Y-83189819D01*
X110351309Y-83189819D02*
X110256071Y-83332676D01*
X110256071Y-83332676D02*
X110160833Y-83427914D01*
X110160833Y-83427914D02*
X110065595Y-83475533D01*
X193057319Y-72166666D02*
X192581128Y-72499999D01*
X193057319Y-72738094D02*
X192057319Y-72738094D01*
X192057319Y-72738094D02*
X192057319Y-72357142D01*
X192057319Y-72357142D02*
X192104938Y-72261904D01*
X192104938Y-72261904D02*
X192152557Y-72214285D01*
X192152557Y-72214285D02*
X192247795Y-72166666D01*
X192247795Y-72166666D02*
X192390652Y-72166666D01*
X192390652Y-72166666D02*
X192485890Y-72214285D01*
X192485890Y-72214285D02*
X192533509Y-72261904D01*
X192533509Y-72261904D02*
X192581128Y-72357142D01*
X192581128Y-72357142D02*
X192581128Y-72738094D01*
X192390652Y-71309523D02*
X193057319Y-71309523D01*
X192009700Y-71547618D02*
X192723985Y-71785713D01*
X192723985Y-71785713D02*
X192723985Y-71166666D01*
X183962080Y-87666666D02*
X184009700Y-87714285D01*
X184009700Y-87714285D02*
X184057319Y-87857142D01*
X184057319Y-87857142D02*
X184057319Y-87952380D01*
X184057319Y-87952380D02*
X184009700Y-88095237D01*
X184009700Y-88095237D02*
X183914461Y-88190475D01*
X183914461Y-88190475D02*
X183819223Y-88238094D01*
X183819223Y-88238094D02*
X183628747Y-88285713D01*
X183628747Y-88285713D02*
X183485890Y-88285713D01*
X183485890Y-88285713D02*
X183295414Y-88238094D01*
X183295414Y-88238094D02*
X183200176Y-88190475D01*
X183200176Y-88190475D02*
X183104938Y-88095237D01*
X183104938Y-88095237D02*
X183057319Y-87952380D01*
X183057319Y-87952380D02*
X183057319Y-87857142D01*
X183057319Y-87857142D02*
X183104938Y-87714285D01*
X183104938Y-87714285D02*
X183152557Y-87666666D01*
X183390652Y-86809523D02*
X184057319Y-86809523D01*
X183009700Y-87047618D02*
X183723985Y-87285713D01*
X183723985Y-87285713D02*
X183723985Y-86666666D01*
X166384819Y-123142857D02*
X165908628Y-123476190D01*
X166384819Y-123714285D02*
X165384819Y-123714285D01*
X165384819Y-123714285D02*
X165384819Y-123333333D01*
X165384819Y-123333333D02*
X165432438Y-123238095D01*
X165432438Y-123238095D02*
X165480057Y-123190476D01*
X165480057Y-123190476D02*
X165575295Y-123142857D01*
X165575295Y-123142857D02*
X165718152Y-123142857D01*
X165718152Y-123142857D02*
X165813390Y-123190476D01*
X165813390Y-123190476D02*
X165861009Y-123238095D01*
X165861009Y-123238095D02*
X165908628Y-123333333D01*
X165908628Y-123333333D02*
X165908628Y-123714285D01*
X166384819Y-122190476D02*
X166384819Y-122761904D01*
X166384819Y-122476190D02*
X165384819Y-122476190D01*
X165384819Y-122476190D02*
X165527676Y-122571428D01*
X165527676Y-122571428D02*
X165622914Y-122666666D01*
X165622914Y-122666666D02*
X165670533Y-122761904D01*
X165384819Y-121333333D02*
X165384819Y-121523809D01*
X165384819Y-121523809D02*
X165432438Y-121619047D01*
X165432438Y-121619047D02*
X165480057Y-121666666D01*
X165480057Y-121666666D02*
X165622914Y-121761904D01*
X165622914Y-121761904D02*
X165813390Y-121809523D01*
X165813390Y-121809523D02*
X166194342Y-121809523D01*
X166194342Y-121809523D02*
X166289580Y-121761904D01*
X166289580Y-121761904D02*
X166337200Y-121714285D01*
X166337200Y-121714285D02*
X166384819Y-121619047D01*
X166384819Y-121619047D02*
X166384819Y-121428571D01*
X166384819Y-121428571D02*
X166337200Y-121333333D01*
X166337200Y-121333333D02*
X166289580Y-121285714D01*
X166289580Y-121285714D02*
X166194342Y-121238095D01*
X166194342Y-121238095D02*
X165956247Y-121238095D01*
X165956247Y-121238095D02*
X165861009Y-121285714D01*
X165861009Y-121285714D02*
X165813390Y-121333333D01*
X165813390Y-121333333D02*
X165765771Y-121428571D01*
X165765771Y-121428571D02*
X165765771Y-121619047D01*
X165765771Y-121619047D02*
X165813390Y-121714285D01*
X165813390Y-121714285D02*
X165861009Y-121761904D01*
X165861009Y-121761904D02*
X165956247Y-121809523D01*
X208987319Y-70666666D02*
X208511128Y-70999999D01*
X208987319Y-71238094D02*
X207987319Y-71238094D01*
X207987319Y-71238094D02*
X207987319Y-70857142D01*
X207987319Y-70857142D02*
X208034938Y-70761904D01*
X208034938Y-70761904D02*
X208082557Y-70714285D01*
X208082557Y-70714285D02*
X208177795Y-70666666D01*
X208177795Y-70666666D02*
X208320652Y-70666666D01*
X208320652Y-70666666D02*
X208415890Y-70714285D01*
X208415890Y-70714285D02*
X208463509Y-70761904D01*
X208463509Y-70761904D02*
X208511128Y-70857142D01*
X208511128Y-70857142D02*
X208511128Y-71238094D01*
X208415890Y-70095237D02*
X208368271Y-70190475D01*
X208368271Y-70190475D02*
X208320652Y-70238094D01*
X208320652Y-70238094D02*
X208225414Y-70285713D01*
X208225414Y-70285713D02*
X208177795Y-70285713D01*
X208177795Y-70285713D02*
X208082557Y-70238094D01*
X208082557Y-70238094D02*
X208034938Y-70190475D01*
X208034938Y-70190475D02*
X207987319Y-70095237D01*
X207987319Y-70095237D02*
X207987319Y-69904761D01*
X207987319Y-69904761D02*
X208034938Y-69809523D01*
X208034938Y-69809523D02*
X208082557Y-69761904D01*
X208082557Y-69761904D02*
X208177795Y-69714285D01*
X208177795Y-69714285D02*
X208225414Y-69714285D01*
X208225414Y-69714285D02*
X208320652Y-69761904D01*
X208320652Y-69761904D02*
X208368271Y-69809523D01*
X208368271Y-69809523D02*
X208415890Y-69904761D01*
X208415890Y-69904761D02*
X208415890Y-70095237D01*
X208415890Y-70095237D02*
X208463509Y-70190475D01*
X208463509Y-70190475D02*
X208511128Y-70238094D01*
X208511128Y-70238094D02*
X208606366Y-70285713D01*
X208606366Y-70285713D02*
X208796842Y-70285713D01*
X208796842Y-70285713D02*
X208892080Y-70238094D01*
X208892080Y-70238094D02*
X208939700Y-70190475D01*
X208939700Y-70190475D02*
X208987319Y-70095237D01*
X208987319Y-70095237D02*
X208987319Y-69904761D01*
X208987319Y-69904761D02*
X208939700Y-69809523D01*
X208939700Y-69809523D02*
X208892080Y-69761904D01*
X208892080Y-69761904D02*
X208796842Y-69714285D01*
X208796842Y-69714285D02*
X208606366Y-69714285D01*
X208606366Y-69714285D02*
X208511128Y-69761904D01*
X208511128Y-69761904D02*
X208463509Y-69809523D01*
X208463509Y-69809523D02*
X208415890Y-69904761D01*
X192462080Y-87666666D02*
X192509700Y-87714285D01*
X192509700Y-87714285D02*
X192557319Y-87857142D01*
X192557319Y-87857142D02*
X192557319Y-87952380D01*
X192557319Y-87952380D02*
X192509700Y-88095237D01*
X192509700Y-88095237D02*
X192414461Y-88190475D01*
X192414461Y-88190475D02*
X192319223Y-88238094D01*
X192319223Y-88238094D02*
X192128747Y-88285713D01*
X192128747Y-88285713D02*
X191985890Y-88285713D01*
X191985890Y-88285713D02*
X191795414Y-88238094D01*
X191795414Y-88238094D02*
X191700176Y-88190475D01*
X191700176Y-88190475D02*
X191604938Y-88095237D01*
X191604938Y-88095237D02*
X191557319Y-87952380D01*
X191557319Y-87952380D02*
X191557319Y-87857142D01*
X191557319Y-87857142D02*
X191604938Y-87714285D01*
X191604938Y-87714285D02*
X191652557Y-87666666D01*
X191557319Y-87333332D02*
X191557319Y-86714285D01*
X191557319Y-86714285D02*
X191938271Y-87047618D01*
X191938271Y-87047618D02*
X191938271Y-86904761D01*
X191938271Y-86904761D02*
X191985890Y-86809523D01*
X191985890Y-86809523D02*
X192033509Y-86761904D01*
X192033509Y-86761904D02*
X192128747Y-86714285D01*
X192128747Y-86714285D02*
X192366842Y-86714285D01*
X192366842Y-86714285D02*
X192462080Y-86761904D01*
X192462080Y-86761904D02*
X192509700Y-86809523D01*
X192509700Y-86809523D02*
X192557319Y-86904761D01*
X192557319Y-86904761D02*
X192557319Y-87190475D01*
X192557319Y-87190475D02*
X192509700Y-87285713D01*
X192509700Y-87285713D02*
X192462080Y-87333332D01*
X91333333Y-117859580D02*
X91285714Y-117907200D01*
X91285714Y-117907200D02*
X91142857Y-117954819D01*
X91142857Y-117954819D02*
X91047619Y-117954819D01*
X91047619Y-117954819D02*
X90904762Y-117907200D01*
X90904762Y-117907200D02*
X90809524Y-117811961D01*
X90809524Y-117811961D02*
X90761905Y-117716723D01*
X90761905Y-117716723D02*
X90714286Y-117526247D01*
X90714286Y-117526247D02*
X90714286Y-117383390D01*
X90714286Y-117383390D02*
X90761905Y-117192914D01*
X90761905Y-117192914D02*
X90809524Y-117097676D01*
X90809524Y-117097676D02*
X90904762Y-117002438D01*
X90904762Y-117002438D02*
X91047619Y-116954819D01*
X91047619Y-116954819D02*
X91142857Y-116954819D01*
X91142857Y-116954819D02*
X91285714Y-117002438D01*
X91285714Y-117002438D02*
X91333333Y-117050057D01*
X92285714Y-117954819D02*
X91714286Y-117954819D01*
X92000000Y-117954819D02*
X92000000Y-116954819D01*
X92000000Y-116954819D02*
X91904762Y-117097676D01*
X91904762Y-117097676D02*
X91809524Y-117192914D01*
X91809524Y-117192914D02*
X91714286Y-117240533D01*
X74399700Y-116333332D02*
X74447319Y-116190475D01*
X74447319Y-116190475D02*
X74447319Y-115952380D01*
X74447319Y-115952380D02*
X74399700Y-115857142D01*
X74399700Y-115857142D02*
X74352080Y-115809523D01*
X74352080Y-115809523D02*
X74256842Y-115761904D01*
X74256842Y-115761904D02*
X74161604Y-115761904D01*
X74161604Y-115761904D02*
X74066366Y-115809523D01*
X74066366Y-115809523D02*
X74018747Y-115857142D01*
X74018747Y-115857142D02*
X73971128Y-115952380D01*
X73971128Y-115952380D02*
X73923509Y-116142856D01*
X73923509Y-116142856D02*
X73875890Y-116238094D01*
X73875890Y-116238094D02*
X73828271Y-116285713D01*
X73828271Y-116285713D02*
X73733033Y-116333332D01*
X73733033Y-116333332D02*
X73637795Y-116333332D01*
X73637795Y-116333332D02*
X73542557Y-116285713D01*
X73542557Y-116285713D02*
X73494938Y-116238094D01*
X73494938Y-116238094D02*
X73447319Y-116142856D01*
X73447319Y-116142856D02*
X73447319Y-115904761D01*
X73447319Y-115904761D02*
X73494938Y-115761904D01*
X73447319Y-115428570D02*
X74447319Y-115190475D01*
X74447319Y-115190475D02*
X73733033Y-114999999D01*
X73733033Y-114999999D02*
X74447319Y-114809523D01*
X74447319Y-114809523D02*
X73447319Y-114571428D01*
X73447319Y-113761904D02*
X73447319Y-113952380D01*
X73447319Y-113952380D02*
X73494938Y-114047618D01*
X73494938Y-114047618D02*
X73542557Y-114095237D01*
X73542557Y-114095237D02*
X73685414Y-114190475D01*
X73685414Y-114190475D02*
X73875890Y-114238094D01*
X73875890Y-114238094D02*
X74256842Y-114238094D01*
X74256842Y-114238094D02*
X74352080Y-114190475D01*
X74352080Y-114190475D02*
X74399700Y-114142856D01*
X74399700Y-114142856D02*
X74447319Y-114047618D01*
X74447319Y-114047618D02*
X74447319Y-113857142D01*
X74447319Y-113857142D02*
X74399700Y-113761904D01*
X74399700Y-113761904D02*
X74352080Y-113714285D01*
X74352080Y-113714285D02*
X74256842Y-113666666D01*
X74256842Y-113666666D02*
X74018747Y-113666666D01*
X74018747Y-113666666D02*
X73923509Y-113714285D01*
X73923509Y-113714285D02*
X73875890Y-113761904D01*
X73875890Y-113761904D02*
X73828271Y-113857142D01*
X73828271Y-113857142D02*
X73828271Y-114047618D01*
X73828271Y-114047618D02*
X73875890Y-114142856D01*
X73875890Y-114142856D02*
X73923509Y-114190475D01*
X73923509Y-114190475D02*
X74018747Y-114238094D01*
X161260833Y-101384819D02*
X160927500Y-100908628D01*
X160689405Y-101384819D02*
X160689405Y-100384819D01*
X160689405Y-100384819D02*
X161070357Y-100384819D01*
X161070357Y-100384819D02*
X161165595Y-100432438D01*
X161165595Y-100432438D02*
X161213214Y-100480057D01*
X161213214Y-100480057D02*
X161260833Y-100575295D01*
X161260833Y-100575295D02*
X161260833Y-100718152D01*
X161260833Y-100718152D02*
X161213214Y-100813390D01*
X161213214Y-100813390D02*
X161165595Y-100861009D01*
X161165595Y-100861009D02*
X161070357Y-100908628D01*
X161070357Y-100908628D02*
X160689405Y-100908628D01*
X161641786Y-100480057D02*
X161689405Y-100432438D01*
X161689405Y-100432438D02*
X161784643Y-100384819D01*
X161784643Y-100384819D02*
X162022738Y-100384819D01*
X162022738Y-100384819D02*
X162117976Y-100432438D01*
X162117976Y-100432438D02*
X162165595Y-100480057D01*
X162165595Y-100480057D02*
X162213214Y-100575295D01*
X162213214Y-100575295D02*
X162213214Y-100670533D01*
X162213214Y-100670533D02*
X162165595Y-100813390D01*
X162165595Y-100813390D02*
X161594167Y-101384819D01*
X161594167Y-101384819D02*
X162213214Y-101384819D01*
X195127319Y-99238094D02*
X194127319Y-99238094D01*
X194127319Y-99238094D02*
X194127319Y-98999999D01*
X194127319Y-98999999D02*
X194174938Y-98857142D01*
X194174938Y-98857142D02*
X194270176Y-98761904D01*
X194270176Y-98761904D02*
X194365414Y-98714285D01*
X194365414Y-98714285D02*
X194555890Y-98666666D01*
X194555890Y-98666666D02*
X194698747Y-98666666D01*
X194698747Y-98666666D02*
X194889223Y-98714285D01*
X194889223Y-98714285D02*
X194984461Y-98761904D01*
X194984461Y-98761904D02*
X195079700Y-98857142D01*
X195079700Y-98857142D02*
X195127319Y-98999999D01*
X195127319Y-98999999D02*
X195127319Y-99238094D01*
X195127319Y-97714285D02*
X195127319Y-98285713D01*
X195127319Y-97999999D02*
X194127319Y-97999999D01*
X194127319Y-97999999D02*
X194270176Y-98095237D01*
X194270176Y-98095237D02*
X194365414Y-98190475D01*
X194365414Y-98190475D02*
X194413033Y-98285713D01*
X140592800Y-128166667D02*
X140545180Y-128309524D01*
X140545180Y-128309524D02*
X140545180Y-128547619D01*
X140545180Y-128547619D02*
X140592800Y-128642857D01*
X140592800Y-128642857D02*
X140640419Y-128690476D01*
X140640419Y-128690476D02*
X140735657Y-128738095D01*
X140735657Y-128738095D02*
X140830895Y-128738095D01*
X140830895Y-128738095D02*
X140926133Y-128690476D01*
X140926133Y-128690476D02*
X140973752Y-128642857D01*
X140973752Y-128642857D02*
X141021371Y-128547619D01*
X141021371Y-128547619D02*
X141068990Y-128357143D01*
X141068990Y-128357143D02*
X141116609Y-128261905D01*
X141116609Y-128261905D02*
X141164228Y-128214286D01*
X141164228Y-128214286D02*
X141259466Y-128166667D01*
X141259466Y-128166667D02*
X141354704Y-128166667D01*
X141354704Y-128166667D02*
X141449942Y-128214286D01*
X141449942Y-128214286D02*
X141497561Y-128261905D01*
X141497561Y-128261905D02*
X141545180Y-128357143D01*
X141545180Y-128357143D02*
X141545180Y-128595238D01*
X141545180Y-128595238D02*
X141497561Y-128738095D01*
X141545180Y-129071429D02*
X140545180Y-129309524D01*
X140545180Y-129309524D02*
X141259466Y-129500000D01*
X141259466Y-129500000D02*
X140545180Y-129690476D01*
X140545180Y-129690476D02*
X141545180Y-129928572D01*
X141545180Y-130214286D02*
X141545180Y-130833333D01*
X141545180Y-130833333D02*
X141164228Y-130500000D01*
X141164228Y-130500000D02*
X141164228Y-130642857D01*
X141164228Y-130642857D02*
X141116609Y-130738095D01*
X141116609Y-130738095D02*
X141068990Y-130785714D01*
X141068990Y-130785714D02*
X140973752Y-130833333D01*
X140973752Y-130833333D02*
X140735657Y-130833333D01*
X140735657Y-130833333D02*
X140640419Y-130785714D01*
X140640419Y-130785714D02*
X140592800Y-130738095D01*
X140592800Y-130738095D02*
X140545180Y-130642857D01*
X140545180Y-130642857D02*
X140545180Y-130357143D01*
X140545180Y-130357143D02*
X140592800Y-130261905D01*
X140592800Y-130261905D02*
X140640419Y-130214286D01*
D13*
X82145080Y-71238095D02*
X81335557Y-71238095D01*
X81335557Y-71238095D02*
X81240319Y-71285714D01*
X81240319Y-71285714D02*
X81192700Y-71333333D01*
X81192700Y-71333333D02*
X81145080Y-71428571D01*
X81145080Y-71428571D02*
X81145080Y-71619047D01*
X81145080Y-71619047D02*
X81192700Y-71714285D01*
X81192700Y-71714285D02*
X81240319Y-71761904D01*
X81240319Y-71761904D02*
X81335557Y-71809523D01*
X81335557Y-71809523D02*
X82145080Y-71809523D01*
X81811747Y-72714285D02*
X81145080Y-72714285D01*
X82192700Y-72476190D02*
X81478414Y-72238095D01*
X81478414Y-72238095D02*
X81478414Y-72857142D01*
D12*
X78840595Y-98454819D02*
X78840595Y-99264342D01*
X78840595Y-99264342D02*
X78888214Y-99359580D01*
X78888214Y-99359580D02*
X78935833Y-99407200D01*
X78935833Y-99407200D02*
X79031071Y-99454819D01*
X79031071Y-99454819D02*
X79221547Y-99454819D01*
X79221547Y-99454819D02*
X79316785Y-99407200D01*
X79316785Y-99407200D02*
X79364404Y-99359580D01*
X79364404Y-99359580D02*
X79412023Y-99264342D01*
X79412023Y-99264342D02*
X79412023Y-98454819D01*
X80316785Y-98454819D02*
X80126309Y-98454819D01*
X80126309Y-98454819D02*
X80031071Y-98502438D01*
X80031071Y-98502438D02*
X79983452Y-98550057D01*
X79983452Y-98550057D02*
X79888214Y-98692914D01*
X79888214Y-98692914D02*
X79840595Y-98883390D01*
X79840595Y-98883390D02*
X79840595Y-99264342D01*
X79840595Y-99264342D02*
X79888214Y-99359580D01*
X79888214Y-99359580D02*
X79935833Y-99407200D01*
X79935833Y-99407200D02*
X80031071Y-99454819D01*
X80031071Y-99454819D02*
X80221547Y-99454819D01*
X80221547Y-99454819D02*
X80316785Y-99407200D01*
X80316785Y-99407200D02*
X80364404Y-99359580D01*
X80364404Y-99359580D02*
X80412023Y-99264342D01*
X80412023Y-99264342D02*
X80412023Y-99026247D01*
X80412023Y-99026247D02*
X80364404Y-98931009D01*
X80364404Y-98931009D02*
X80316785Y-98883390D01*
X80316785Y-98883390D02*
X80221547Y-98835771D01*
X80221547Y-98835771D02*
X80031071Y-98835771D01*
X80031071Y-98835771D02*
X79935833Y-98883390D01*
X79935833Y-98883390D02*
X79888214Y-98931009D01*
X79888214Y-98931009D02*
X79840595Y-99026247D01*
X138652319Y-100126904D02*
X139461842Y-100126904D01*
X139461842Y-100126904D02*
X139557080Y-100079285D01*
X139557080Y-100079285D02*
X139604700Y-100031666D01*
X139604700Y-100031666D02*
X139652319Y-99936428D01*
X139652319Y-99936428D02*
X139652319Y-99745952D01*
X139652319Y-99745952D02*
X139604700Y-99650714D01*
X139604700Y-99650714D02*
X139557080Y-99603095D01*
X139557080Y-99603095D02*
X139461842Y-99555476D01*
X139461842Y-99555476D02*
X138652319Y-99555476D01*
X138747557Y-99126904D02*
X138699938Y-99079285D01*
X138699938Y-99079285D02*
X138652319Y-98984047D01*
X138652319Y-98984047D02*
X138652319Y-98745952D01*
X138652319Y-98745952D02*
X138699938Y-98650714D01*
X138699938Y-98650714D02*
X138747557Y-98603095D01*
X138747557Y-98603095D02*
X138842795Y-98555476D01*
X138842795Y-98555476D02*
X138938033Y-98555476D01*
X138938033Y-98555476D02*
X139080890Y-98603095D01*
X139080890Y-98603095D02*
X139652319Y-99174523D01*
X139652319Y-99174523D02*
X139652319Y-98555476D01*
X139884819Y-123642857D02*
X139408628Y-123976190D01*
X139884819Y-124214285D02*
X138884819Y-124214285D01*
X138884819Y-124214285D02*
X138884819Y-123833333D01*
X138884819Y-123833333D02*
X138932438Y-123738095D01*
X138932438Y-123738095D02*
X138980057Y-123690476D01*
X138980057Y-123690476D02*
X139075295Y-123642857D01*
X139075295Y-123642857D02*
X139218152Y-123642857D01*
X139218152Y-123642857D02*
X139313390Y-123690476D01*
X139313390Y-123690476D02*
X139361009Y-123738095D01*
X139361009Y-123738095D02*
X139408628Y-123833333D01*
X139408628Y-123833333D02*
X139408628Y-124214285D01*
X139884819Y-122690476D02*
X139884819Y-123261904D01*
X139884819Y-122976190D02*
X138884819Y-122976190D01*
X138884819Y-122976190D02*
X139027676Y-123071428D01*
X139027676Y-123071428D02*
X139122914Y-123166666D01*
X139122914Y-123166666D02*
X139170533Y-123261904D01*
X138884819Y-122357142D02*
X138884819Y-121690476D01*
X138884819Y-121690476D02*
X139884819Y-122119047D01*
X183435833Y-93024819D02*
X183102500Y-92548628D01*
X182864405Y-93024819D02*
X182864405Y-92024819D01*
X182864405Y-92024819D02*
X183245357Y-92024819D01*
X183245357Y-92024819D02*
X183340595Y-92072438D01*
X183340595Y-92072438D02*
X183388214Y-92120057D01*
X183388214Y-92120057D02*
X183435833Y-92215295D01*
X183435833Y-92215295D02*
X183435833Y-92358152D01*
X183435833Y-92358152D02*
X183388214Y-92453390D01*
X183388214Y-92453390D02*
X183340595Y-92501009D01*
X183340595Y-92501009D02*
X183245357Y-92548628D01*
X183245357Y-92548628D02*
X182864405Y-92548628D01*
X184388214Y-93024819D02*
X183816786Y-93024819D01*
X184102500Y-93024819D02*
X184102500Y-92024819D01*
X184102500Y-92024819D02*
X184007262Y-92167676D01*
X184007262Y-92167676D02*
X183912024Y-92262914D01*
X183912024Y-92262914D02*
X183816786Y-92310533D01*
X216033509Y-79333333D02*
X216033509Y-79666666D01*
X216557319Y-79666666D02*
X215557319Y-79666666D01*
X215557319Y-79666666D02*
X215557319Y-79190476D01*
X216557319Y-78285714D02*
X216557319Y-78857142D01*
X216557319Y-78571428D02*
X215557319Y-78571428D01*
X215557319Y-78571428D02*
X215700176Y-78666666D01*
X215700176Y-78666666D02*
X215795414Y-78761904D01*
X215795414Y-78761904D02*
X215843033Y-78857142D01*
X195134642Y-91524819D02*
X194801309Y-91048628D01*
X194563214Y-91524819D02*
X194563214Y-90524819D01*
X194563214Y-90524819D02*
X194944166Y-90524819D01*
X194944166Y-90524819D02*
X195039404Y-90572438D01*
X195039404Y-90572438D02*
X195087023Y-90620057D01*
X195087023Y-90620057D02*
X195134642Y-90715295D01*
X195134642Y-90715295D02*
X195134642Y-90858152D01*
X195134642Y-90858152D02*
X195087023Y-90953390D01*
X195087023Y-90953390D02*
X195039404Y-91001009D01*
X195039404Y-91001009D02*
X194944166Y-91048628D01*
X194944166Y-91048628D02*
X194563214Y-91048628D01*
X196087023Y-91524819D02*
X195515595Y-91524819D01*
X195801309Y-91524819D02*
X195801309Y-90524819D01*
X195801309Y-90524819D02*
X195706071Y-90667676D01*
X195706071Y-90667676D02*
X195610833Y-90762914D01*
X195610833Y-90762914D02*
X195515595Y-90810533D01*
X196467976Y-90620057D02*
X196515595Y-90572438D01*
X196515595Y-90572438D02*
X196610833Y-90524819D01*
X196610833Y-90524819D02*
X196848928Y-90524819D01*
X196848928Y-90524819D02*
X196944166Y-90572438D01*
X196944166Y-90572438D02*
X196991785Y-90620057D01*
X196991785Y-90620057D02*
X197039404Y-90715295D01*
X197039404Y-90715295D02*
X197039404Y-90810533D01*
X197039404Y-90810533D02*
X196991785Y-90953390D01*
X196991785Y-90953390D02*
X196420357Y-91524819D01*
X196420357Y-91524819D02*
X197039404Y-91524819D01*
X154695300Y-128166667D02*
X154647680Y-128309524D01*
X154647680Y-128309524D02*
X154647680Y-128547619D01*
X154647680Y-128547619D02*
X154695300Y-128642857D01*
X154695300Y-128642857D02*
X154742919Y-128690476D01*
X154742919Y-128690476D02*
X154838157Y-128738095D01*
X154838157Y-128738095D02*
X154933395Y-128738095D01*
X154933395Y-128738095D02*
X155028633Y-128690476D01*
X155028633Y-128690476D02*
X155076252Y-128642857D01*
X155076252Y-128642857D02*
X155123871Y-128547619D01*
X155123871Y-128547619D02*
X155171490Y-128357143D01*
X155171490Y-128357143D02*
X155219109Y-128261905D01*
X155219109Y-128261905D02*
X155266728Y-128214286D01*
X155266728Y-128214286D02*
X155361966Y-128166667D01*
X155361966Y-128166667D02*
X155457204Y-128166667D01*
X155457204Y-128166667D02*
X155552442Y-128214286D01*
X155552442Y-128214286D02*
X155600061Y-128261905D01*
X155600061Y-128261905D02*
X155647680Y-128357143D01*
X155647680Y-128357143D02*
X155647680Y-128595238D01*
X155647680Y-128595238D02*
X155600061Y-128738095D01*
X155647680Y-129071429D02*
X154647680Y-129309524D01*
X154647680Y-129309524D02*
X155361966Y-129500000D01*
X155361966Y-129500000D02*
X154647680Y-129690476D01*
X154647680Y-129690476D02*
X155647680Y-129928572D01*
X154647680Y-130833333D02*
X154647680Y-130261905D01*
X154647680Y-130547619D02*
X155647680Y-130547619D01*
X155647680Y-130547619D02*
X155504823Y-130452381D01*
X155504823Y-130452381D02*
X155409585Y-130357143D01*
X155409585Y-130357143D02*
X155361966Y-130261905D01*
X162959642Y-93024819D02*
X162626309Y-92548628D01*
X162388214Y-93024819D02*
X162388214Y-92024819D01*
X162388214Y-92024819D02*
X162769166Y-92024819D01*
X162769166Y-92024819D02*
X162864404Y-92072438D01*
X162864404Y-92072438D02*
X162912023Y-92120057D01*
X162912023Y-92120057D02*
X162959642Y-92215295D01*
X162959642Y-92215295D02*
X162959642Y-92358152D01*
X162959642Y-92358152D02*
X162912023Y-92453390D01*
X162912023Y-92453390D02*
X162864404Y-92501009D01*
X162864404Y-92501009D02*
X162769166Y-92548628D01*
X162769166Y-92548628D02*
X162388214Y-92548628D01*
X163912023Y-93024819D02*
X163340595Y-93024819D01*
X163626309Y-93024819D02*
X163626309Y-92024819D01*
X163626309Y-92024819D02*
X163531071Y-92167676D01*
X163531071Y-92167676D02*
X163435833Y-92262914D01*
X163435833Y-92262914D02*
X163340595Y-92310533D01*
X164245357Y-92024819D02*
X164864404Y-92024819D01*
X164864404Y-92024819D02*
X164531071Y-92405771D01*
X164531071Y-92405771D02*
X164673928Y-92405771D01*
X164673928Y-92405771D02*
X164769166Y-92453390D01*
X164769166Y-92453390D02*
X164816785Y-92501009D01*
X164816785Y-92501009D02*
X164864404Y-92596247D01*
X164864404Y-92596247D02*
X164864404Y-92834342D01*
X164864404Y-92834342D02*
X164816785Y-92929580D01*
X164816785Y-92929580D02*
X164769166Y-92977200D01*
X164769166Y-92977200D02*
X164673928Y-93024819D01*
X164673928Y-93024819D02*
X164388214Y-93024819D01*
X164388214Y-93024819D02*
X164292976Y-92977200D01*
X164292976Y-92977200D02*
X164245357Y-92929580D01*
D14*
%TO.C,R18*%
X151580000Y-123412258D02*
X151580000Y-122937742D01*
X152625000Y-123412258D02*
X152625000Y-122937742D01*
D15*
%TO.C,USB1*%
X201352500Y-59994250D02*
X209802500Y-59994250D01*
X201352500Y-66794250D02*
X201352500Y-59994250D01*
X209802500Y-59994250D02*
X209802500Y-66794250D01*
D14*
%TO.C,R10*%
X195080000Y-74237258D02*
X195080000Y-73762742D01*
X196125000Y-74237258D02*
X196125000Y-73762742D01*
%TO.C,SW2*%
X162500000Y-125800000D02*
X162500000Y-132200000D01*
X162500000Y-132200000D02*
X163700000Y-132200000D01*
X163700000Y-125800000D02*
X162500000Y-125800000D01*
X165300000Y-132200000D02*
X166500000Y-132200000D01*
X166500000Y-125800000D02*
X165300000Y-125800000D01*
X166500000Y-132200000D02*
X166500000Y-125800000D01*
%TO.C,R6*%
X118087742Y-104977500D02*
X118562258Y-104977500D01*
X118087742Y-106022500D02*
X118562258Y-106022500D01*
%TO.C,R9*%
X193040242Y-80477500D02*
X193514758Y-80477500D01*
X193040242Y-81522500D02*
X193514758Y-81522500D01*
%TO.C,U8*%
D13*
X110880000Y-87100000D02*
X91600000Y-87100000D01*
X91600000Y-114900000D01*
X110880000Y-114900000D01*
X110880000Y-87100000D01*
D12*
X114900000Y-87100000D02*
X87100000Y-87100000D01*
X87100000Y-114900000D01*
X114900000Y-114900000D01*
X114900000Y-87100000D01*
D13*
X91366051Y-89570000D02*
G75*
G02*
X87773949Y-89570000I-1796051J0D01*
G01*
X87773949Y-89570000D02*
G75*
G02*
X91366051Y-89570000I1796051J0D01*
G01*
X91366051Y-112430000D02*
G75*
G02*
X87773949Y-112430000I-1796051J0D01*
G01*
X87773949Y-112430000D02*
G75*
G02*
X91366051Y-112430000I1796051J0D01*
G01*
X114696051Y-89570000D02*
G75*
G02*
X111103949Y-89570000I-1796051J0D01*
G01*
X111103949Y-89570000D02*
G75*
G02*
X114696051Y-89570000I1796051J0D01*
G01*
X114696051Y-112430000D02*
G75*
G02*
X111103949Y-112430000I-1796051J0D01*
G01*
X111103949Y-112430000D02*
G75*
G02*
X114696051Y-112430000I1796051J0D01*
G01*
D14*
%TO.C,C2*%
X184232500Y-112840000D02*
X184232500Y-119160000D01*
X184232500Y-119160000D02*
X192252500Y-119160000D01*
X192252500Y-112840000D02*
X184232500Y-112840000D01*
%TO.C,R3*%
X155080000Y-104762742D02*
X155080000Y-105237258D01*
X156125000Y-104762742D02*
X156125000Y-105237258D01*
%TO.C,R5*%
X118262742Y-100477500D02*
X118737258Y-100477500D01*
X118262742Y-101522500D02*
X118737258Y-101522500D01*
%TO.C,U3*%
X75732500Y-124420000D02*
X75732500Y-130960000D01*
X75732500Y-130960000D02*
X76062500Y-130960000D01*
X76062500Y-124420000D02*
X75732500Y-124420000D01*
X78142500Y-124420000D02*
X78472500Y-124420000D01*
X78472500Y-124420000D02*
X78472500Y-130960000D01*
X78472500Y-130960000D02*
X78142500Y-130960000D01*
%TO.C,C5*%
X169732500Y-108840000D02*
X169732500Y-115160000D01*
X169732500Y-115160000D02*
X177752500Y-115160000D01*
X177752500Y-108840000D02*
X169732500Y-108840000D01*
%TO.C,R11*%
X187865242Y-63477500D02*
X188339758Y-63477500D01*
X187865242Y-64522500D02*
X188339758Y-64522500D01*
%TO.C,SW5*%
X165402500Y-97500000D02*
X165402500Y-98700000D01*
X165402500Y-100300000D02*
X165402500Y-101500000D01*
X165402500Y-101500000D02*
X171802500Y-101500000D01*
X171802500Y-97500000D02*
X165402500Y-97500000D01*
X171802500Y-98700000D02*
X171802500Y-97500000D01*
X171802500Y-101500000D02*
X171802500Y-100300000D01*
%TO.C,U7*%
X198677500Y-77215000D02*
X195677500Y-77215000D01*
X198677500Y-79485000D02*
X195677500Y-79485000D01*
X199197500Y-79680000D02*
X199197500Y-79400000D01*
X199477500Y-79400000D01*
X199197500Y-79680000D01*
G36*
X199197500Y-79680000D02*
G01*
X199197500Y-79400000D01*
X199477500Y-79400000D01*
X199197500Y-79680000D01*
G37*
%TO.C,U5*%
X185342500Y-66540000D02*
X185342500Y-67015000D01*
X185342500Y-70760000D02*
X185342500Y-70285000D01*
X185817500Y-66540000D02*
X185342500Y-66540000D01*
X185817500Y-70760000D02*
X185342500Y-70760000D01*
X189087500Y-66540000D02*
X189562500Y-66540000D01*
X189087500Y-70760000D02*
X189262500Y-70760000D01*
X189562500Y-66540000D02*
X189562500Y-67015000D01*
X189562500Y-70285000D02*
X189562500Y-70520000D01*
X189802500Y-71090000D02*
X189322500Y-71090000D01*
X189562500Y-70760000D01*
X189802500Y-71090000D01*
G36*
X189802500Y-71090000D02*
G01*
X189322500Y-71090000D01*
X189562500Y-70760000D01*
X189802500Y-71090000D01*
G37*
%TO.C,D3*%
X196015000Y-70735000D02*
X198300000Y-70735000D01*
X198300000Y-69265000D02*
X196015000Y-69265000D01*
X198300000Y-70735000D02*
X198300000Y-69265000D01*
%TO.C,D2*%
X154867500Y-107487500D02*
X154867500Y-109772500D01*
X154867500Y-109772500D02*
X156337500Y-109772500D01*
X156337500Y-109772500D02*
X156337500Y-107487500D01*
%TO.C,R7*%
X203080000Y-70262742D02*
X203080000Y-70737258D01*
X204125000Y-70262742D02*
X204125000Y-70737258D01*
%TO.C,SW4*%
X186102500Y-95300000D02*
X186102500Y-101700000D01*
X186102500Y-101700000D02*
X187302500Y-101700000D01*
X187302500Y-95300000D02*
X186102500Y-95300000D01*
X188902500Y-101700000D02*
X190102500Y-101700000D01*
X190102500Y-95300000D02*
X188902500Y-95300000D01*
X190102500Y-101700000D02*
X190102500Y-95300000D01*
D15*
%TO.C,U1*%
X92442500Y-62340000D02*
X112762500Y-62340000D01*
X92442500Y-82660000D02*
X92442500Y-62340000D01*
X112762500Y-62340000D02*
X112762500Y-82660000D01*
X112762500Y-82660000D02*
X92442500Y-82660000D01*
D11*
X113502500Y-81390000D02*
G75*
G02*
X113302500Y-81390000I-100000J0D01*
G01*
X113302500Y-81390000D02*
G75*
G02*
X113502500Y-81390000I100000J0D01*
G01*
D14*
%TO.C,R4*%
X193580000Y-70437742D02*
X193580000Y-70912258D01*
X194625000Y-70437742D02*
X194625000Y-70912258D01*
%TO.C,C4*%
X176442500Y-83130000D02*
X176442500Y-91150000D01*
X182762500Y-83130000D02*
X176442500Y-83130000D01*
X182762500Y-91150000D02*
X182762500Y-83130000D01*
%TO.C,R16*%
X163977500Y-122262742D02*
X163977500Y-122737258D01*
X165022500Y-122262742D02*
X165022500Y-122737258D01*
%TO.C,R8*%
X206580000Y-70262742D02*
X206580000Y-70737258D01*
X207625000Y-70262742D02*
X207625000Y-70737258D01*
%TO.C,C3*%
X184942500Y-83130000D02*
X184942500Y-91150000D01*
X191262500Y-83130000D02*
X184942500Y-83130000D01*
X191262500Y-91150000D02*
X191262500Y-83130000D01*
%TO.C,C1*%
X87130000Y-118340000D02*
X87130000Y-124660000D01*
X87130000Y-124660000D02*
X95150000Y-124660000D01*
X95150000Y-118340000D02*
X87130000Y-118340000D01*
%TO.C,SW6*%
X74752500Y-118650000D02*
X74752500Y-117267000D01*
X74752500Y-118650000D02*
X76135500Y-118650000D01*
X74992500Y-111590000D02*
X76302500Y-111590000D01*
X74992500Y-118410000D02*
X74992500Y-111590000D01*
X74992500Y-118410000D02*
X76302500Y-118410000D01*
X76467500Y-115603333D02*
X77737500Y-115603333D01*
X77902500Y-111590000D02*
X79212500Y-111590000D01*
X77902500Y-118410000D02*
X79212500Y-118410000D01*
X79212500Y-118410000D02*
X79212500Y-111590000D01*
X76467500Y-116810000D02*
X77737500Y-116810000D01*
X77737500Y-113190000D01*
X76467500Y-113190000D01*
X76467500Y-116810000D01*
X76467500Y-116810000D02*
X77737500Y-116810000D01*
X77737500Y-115603333D01*
X76467500Y-115603333D01*
X76467500Y-116810000D01*
G36*
X76467500Y-116810000D02*
G01*
X77737500Y-116810000D01*
X77737500Y-115603333D01*
X76467500Y-115603333D01*
X76467500Y-116810000D01*
G37*
%TO.C,R2*%
X161664758Y-98977500D02*
X161190242Y-98977500D01*
X161664758Y-100022500D02*
X161190242Y-100022500D01*
%TO.C,D1*%
X195367500Y-97700000D02*
X195367500Y-99985000D01*
X195367500Y-99985000D02*
X196837500Y-99985000D01*
X196837500Y-99985000D02*
X196837500Y-97700000D01*
%TO.C,SW3*%
X136000000Y-126300000D02*
X136000000Y-132700000D01*
X136000000Y-132700000D02*
X137200000Y-132700000D01*
X137200000Y-126300000D02*
X136000000Y-126300000D01*
X138800000Y-132700000D02*
X140000000Y-132700000D01*
X140000000Y-126300000D02*
X138800000Y-126300000D01*
X140000000Y-132700000D02*
X140000000Y-126300000D01*
%TO.C,U4*%
D13*
X88602500Y-63000000D02*
X74602500Y-63000000D01*
X74602500Y-81000000D01*
X88602500Y-81000000D01*
X88602500Y-63000000D01*
D14*
%TO.C,U6*%
X77752500Y-100090000D02*
X81512500Y-100090000D01*
X77752500Y-106910000D02*
X81512500Y-106910000D01*
X81512500Y-100090000D02*
X81512500Y-101350000D01*
X81512500Y-106910000D02*
X81512500Y-105650000D01*
X76472500Y-100190000D02*
X76232500Y-99860000D01*
X76712500Y-99860000D01*
X76472500Y-100190000D01*
G36*
X76472500Y-100190000D02*
G01*
X76232500Y-99860000D01*
X76712500Y-99860000D01*
X76472500Y-100190000D01*
G37*
%TO.C,U2*%
X140687500Y-75075000D02*
X140687500Y-81235000D01*
X140687500Y-75075000D02*
X158927500Y-75075000D01*
X140687500Y-100035000D02*
X140687500Y-100815000D01*
X140687500Y-100815000D02*
X141687500Y-100815000D01*
X158927500Y-75075000D02*
X158927500Y-81490000D01*
X158927500Y-100035000D02*
X158927500Y-100815000D01*
X158927500Y-100815000D02*
X157927500Y-100815000D01*
X140682500Y-81960000D02*
X140182500Y-81960000D01*
X140682500Y-81460000D01*
X140682500Y-81960000D01*
G36*
X140682500Y-81960000D02*
G01*
X140182500Y-81960000D01*
X140682500Y-81460000D01*
X140682500Y-81960000D01*
G37*
%TO.C,R17*%
X137477500Y-122762742D02*
X137477500Y-123237258D01*
X138522500Y-122762742D02*
X138522500Y-123237258D01*
%TO.C,R1*%
X183365242Y-93477500D02*
X183839758Y-93477500D01*
X183365242Y-94522500D02*
X183839758Y-94522500D01*
%TO.C,F1*%
X208772500Y-75400000D02*
X208772500Y-83600000D01*
X208772500Y-75400000D02*
X209552500Y-75400000D01*
X208772500Y-83600000D02*
X209552500Y-83600000D01*
X214432500Y-75400000D02*
X213652500Y-75400000D01*
X214432500Y-75400000D02*
X214432500Y-83600000D01*
X214432500Y-83600000D02*
X213652500Y-83600000D01*
%TO.C,R12*%
X195540242Y-91977500D02*
X196014758Y-91977500D01*
X195540242Y-93022500D02*
X196014758Y-93022500D01*
%TO.C,SW1*%
X150102500Y-126300000D02*
X150102500Y-132700000D01*
X150102500Y-132700000D02*
X151302500Y-132700000D01*
X151302500Y-126300000D02*
X150102500Y-126300000D01*
X152902500Y-132700000D02*
X154102500Y-132700000D01*
X154102500Y-126300000D02*
X152902500Y-126300000D01*
X154102500Y-132700000D02*
X154102500Y-126300000D01*
D16*
%TO.C,G\u002A\u002A\u002A*%
G36*
X210421636Y-112812124D02*
G01*
X210594730Y-112825797D01*
X210741887Y-112841375D01*
X211081934Y-112879629D01*
X211356255Y-112905829D01*
X211576282Y-112920365D01*
X211753445Y-112923630D01*
X211899176Y-112916015D01*
X212024904Y-112897912D01*
X212075364Y-112887071D01*
X212243997Y-112859512D01*
X212377487Y-112861193D01*
X212461959Y-112890545D01*
X212484922Y-112933392D01*
X212495857Y-113002987D01*
X212501365Y-113022574D01*
X212502932Y-113104562D01*
X212495304Y-113131876D01*
X212418480Y-113229956D01*
X212280604Y-113312324D01*
X212098236Y-113372440D01*
X211887938Y-113403766D01*
X211799153Y-113406770D01*
X211697839Y-113419843D01*
X211668447Y-113454777D01*
X211713466Y-113505144D01*
X211752230Y-113527841D01*
X211876502Y-113602754D01*
X212021266Y-113705395D01*
X212167517Y-113820419D01*
X212296247Y-113932482D01*
X212388449Y-114026238D01*
X212416538Y-114064157D01*
X212478612Y-114233499D01*
X212470590Y-114398049D01*
X212393499Y-114541458D01*
X212385979Y-114549813D01*
X212283860Y-114645660D01*
X212169264Y-114720268D01*
X212031454Y-114776026D01*
X211859693Y-114815321D01*
X211643245Y-114840544D01*
X211371371Y-114854083D01*
X211033334Y-114858326D01*
X210999274Y-114858334D01*
X210680370Y-114855222D01*
X210431943Y-114845304D01*
X210246496Y-114827091D01*
X210116532Y-114799094D01*
X210034556Y-114759824D01*
X209993072Y-114707793D01*
X209983999Y-114656657D01*
X209997263Y-114554101D01*
X210042547Y-114475696D01*
X210128085Y-114418573D01*
X210262114Y-114379867D01*
X210452868Y-114356709D01*
X210708584Y-114346231D01*
X210879567Y-114344834D01*
X211144914Y-114339930D01*
X211393611Y-114326412D01*
X211612575Y-114305733D01*
X211788721Y-114279348D01*
X211908965Y-114248711D01*
X211952839Y-114225542D01*
X211939075Y-114191485D01*
X211869508Y-114129611D01*
X211757392Y-114048696D01*
X211615981Y-113957517D01*
X211458530Y-113864850D01*
X211298293Y-113779474D01*
X211227192Y-113745017D01*
X211099074Y-113690407D01*
X210921415Y-113621557D01*
X210719163Y-113547869D01*
X210544996Y-113487935D01*
X210363580Y-113423382D01*
X210207185Y-113360158D01*
X210092219Y-113305411D01*
X210035093Y-113266293D01*
X210034495Y-113265506D01*
X209985981Y-113142084D01*
X209997422Y-113010790D01*
X210059851Y-112895787D01*
X210164302Y-112821236D01*
X210203454Y-112810186D01*
X210284255Y-112806518D01*
X210421636Y-112812124D01*
G37*
G36*
X211493481Y-104872396D02*
G01*
X211526300Y-104923179D01*
X211572288Y-105021964D01*
X211656734Y-105163082D01*
X211767737Y-105329101D01*
X211893394Y-105502589D01*
X212021802Y-105666116D01*
X212082490Y-105737748D01*
X212152210Y-105817330D01*
X212212557Y-105880717D01*
X212273795Y-105931958D01*
X212346185Y-105975101D01*
X212439991Y-106014194D01*
X212565475Y-106053287D01*
X212732900Y-106096427D01*
X212952528Y-106147662D01*
X213234622Y-106211043D01*
X213344615Y-106235636D01*
X213906713Y-106373098D01*
X214414567Y-106521299D01*
X214862909Y-106678296D01*
X215246471Y-106842149D01*
X215559986Y-107010916D01*
X215696930Y-107102409D01*
X215870098Y-107255322D01*
X215984557Y-107414163D01*
X216036758Y-107569486D01*
X216023153Y-107711845D01*
X215962684Y-107809858D01*
X215874232Y-107875412D01*
X215753582Y-107932116D01*
X215724468Y-107941768D01*
X215542199Y-107964807D01*
X215478678Y-107959450D01*
X215306864Y-107944961D01*
X215028211Y-107885844D01*
X214715989Y-107791068D01*
X214379950Y-107664248D01*
X214029843Y-107508995D01*
X213675416Y-107328924D01*
X213326421Y-107127648D01*
X213056667Y-106953091D01*
X212825576Y-106795228D01*
X212734758Y-106734073D01*
X213461845Y-106734073D01*
X213493602Y-106767821D01*
X213579403Y-106830754D01*
X213705043Y-106913977D01*
X213856317Y-107008595D01*
X214019020Y-107105712D01*
X214178948Y-107196433D01*
X214315684Y-107268750D01*
X214547452Y-107373841D01*
X214797805Y-107468144D01*
X215045894Y-107545304D01*
X215270871Y-107598963D01*
X215451888Y-107622763D01*
X215478678Y-107623385D01*
X215598143Y-107614378D01*
X215643137Y-107584677D01*
X215615547Y-107530268D01*
X215549743Y-107471921D01*
X215465017Y-107420170D01*
X215327652Y-107353636D01*
X215148598Y-107276189D01*
X214938806Y-107191700D01*
X214709227Y-107104039D01*
X214470814Y-107017075D01*
X214234516Y-106934679D01*
X214011285Y-106860721D01*
X213812073Y-106799071D01*
X213647831Y-106753600D01*
X213529510Y-106728176D01*
X213468060Y-106726671D01*
X213461845Y-106734073D01*
X212734758Y-106734073D01*
X212646459Y-106674614D01*
X212506114Y-106585366D01*
X212391339Y-106521603D01*
X212288935Y-106477441D01*
X212185700Y-106446999D01*
X212068432Y-106424394D01*
X211923930Y-106403744D01*
X211781538Y-106384904D01*
X211604016Y-106363443D01*
X211421193Y-106346630D01*
X211221036Y-106334005D01*
X210991510Y-106325109D01*
X210720583Y-106319481D01*
X210396220Y-106316662D01*
X210006387Y-106316192D01*
X209983999Y-106316223D01*
X209536256Y-106318942D01*
X209154915Y-106326523D01*
X208828303Y-106340298D01*
X208544748Y-106361599D01*
X208292578Y-106391758D01*
X208060120Y-106432106D01*
X207835702Y-106483974D01*
X207607652Y-106548696D01*
X207420590Y-106608675D01*
X207168571Y-106700842D01*
X206979945Y-106790553D01*
X206840658Y-106885867D01*
X206736659Y-106994840D01*
X206728667Y-107005435D01*
X206678054Y-107090961D01*
X206677807Y-107166187D01*
X206697451Y-107220358D01*
X206812117Y-107405584D01*
X206991233Y-107585690D01*
X207221304Y-107749821D01*
X207488836Y-107887123D01*
X207564227Y-107917608D01*
X207737425Y-107993557D01*
X207845307Y-108068487D01*
X207899760Y-108153546D01*
X207912922Y-108244672D01*
X207878454Y-108331989D01*
X207778354Y-108383844D01*
X207617581Y-108398321D01*
X207530716Y-108392543D01*
X207255653Y-108327346D01*
X206988011Y-108195850D01*
X206743337Y-108009487D01*
X206537177Y-107779687D01*
X206407749Y-107566814D01*
X206346390Y-107426151D01*
X206317827Y-107305488D01*
X206314243Y-107164047D01*
X206317743Y-107097321D01*
X206336078Y-106933329D01*
X206373885Y-106810977D01*
X206442977Y-106694129D01*
X206455072Y-106677183D01*
X206636207Y-106481220D01*
X206878112Y-106311348D01*
X207182815Y-106167024D01*
X207552343Y-106047707D01*
X207988723Y-105952855D01*
X208493983Y-105881925D01*
X209070150Y-105834376D01*
X209698756Y-105810079D01*
X210003543Y-105807705D01*
X210324476Y-105812118D01*
X210647054Y-105822519D01*
X210956772Y-105838107D01*
X211239130Y-105858085D01*
X211479625Y-105881653D01*
X211663754Y-105908012D01*
X211730297Y-105922024D01*
X211804656Y-105927477D01*
X211833992Y-105913914D01*
X211821968Y-105870406D01*
X211774477Y-105778768D01*
X211700338Y-105655264D01*
X211659155Y-105591385D01*
X211555874Y-105419713D01*
X211469038Y-105247494D01*
X211405099Y-105090766D01*
X211370511Y-104965569D01*
X211371728Y-104887941D01*
X211374210Y-104883179D01*
X211429931Y-104849185D01*
X211493481Y-104872396D01*
G37*
G36*
X208815994Y-108831936D02*
G01*
X208820896Y-108833768D01*
X209164443Y-109001487D01*
X209505456Y-109243333D01*
X209840334Y-109555288D01*
X210165474Y-109933331D01*
X210477275Y-110373443D01*
X210772134Y-110871606D01*
X210940506Y-111198924D01*
X211188356Y-111706924D01*
X211336147Y-111702855D01*
X211483938Y-111698785D01*
X211858832Y-110958443D01*
X212047194Y-110595620D01*
X212225533Y-110269960D01*
X212390404Y-109986851D01*
X212538364Y-109751678D01*
X212665968Y-109569829D01*
X212769774Y-109446691D01*
X212846338Y-109387650D01*
X212865922Y-109383128D01*
X212927114Y-109399049D01*
X212956981Y-109458172D01*
X212960359Y-109574114D01*
X212955709Y-109635847D01*
X212925010Y-109750686D01*
X212848237Y-109928262D01*
X212725536Y-110168287D01*
X212557055Y-110470479D01*
X212342940Y-110834551D01*
X212310270Y-110888886D01*
X212185775Y-111097420D01*
X212076406Y-111284397D01*
X211988234Y-111439127D01*
X211927327Y-111550919D01*
X211899757Y-111609082D01*
X211898768Y-111613639D01*
X211916745Y-111629554D01*
X211973278Y-111634561D01*
X212072273Y-111627959D01*
X212217633Y-111609044D01*
X212413263Y-111577116D01*
X212663068Y-111531473D01*
X212970953Y-111471413D01*
X213340821Y-111396234D01*
X213776577Y-111305236D01*
X214282126Y-111197715D01*
X214634424Y-111121996D01*
X215046228Y-111034187D01*
X215388495Y-110963648D01*
X215667685Y-110909428D01*
X215890263Y-110870575D01*
X216062690Y-110846140D01*
X216191429Y-110835170D01*
X216282942Y-110836715D01*
X216343691Y-110849823D01*
X216372420Y-110866226D01*
X216429422Y-110948178D01*
X216413254Y-111026841D01*
X216328124Y-111087925D01*
X216304691Y-111096304D01*
X216211208Y-111120024D01*
X216064574Y-111150661D01*
X215888900Y-111183354D01*
X215786922Y-111200732D01*
X215573737Y-111237774D01*
X215323342Y-111284317D01*
X215074840Y-111332983D01*
X214952823Y-111358050D01*
X214806513Y-111386168D01*
X214595680Y-111423044D01*
X214333199Y-111466607D01*
X214031946Y-111514787D01*
X213704799Y-111565511D01*
X213364633Y-111616710D01*
X213137627Y-111649990D01*
X212818981Y-111696557D01*
X212524882Y-111740271D01*
X212264280Y-111779745D01*
X212046123Y-111813593D01*
X211879362Y-111840427D01*
X211772945Y-111858862D01*
X211736143Y-111867136D01*
X211702180Y-111907428D01*
X211640953Y-111996001D01*
X211565387Y-112114112D01*
X211561430Y-112120512D01*
X211479543Y-112246033D01*
X211418909Y-112315774D01*
X211364651Y-112343253D01*
X211315630Y-112343868D01*
X211239205Y-112314187D01*
X211168897Y-112234574D01*
X211117230Y-112144978D01*
X211019538Y-111957802D01*
X210531076Y-111982620D01*
X210347871Y-111985500D01*
X210110539Y-111989232D01*
X209737211Y-111964874D01*
X209419987Y-111910511D01*
X209192725Y-111837951D01*
X209071348Y-111781870D01*
X208907183Y-111699090D01*
X208724937Y-111602314D01*
X208601543Y-111534007D01*
X208418627Y-111427007D01*
X208286857Y-111338036D01*
X208186945Y-111251259D01*
X208099602Y-111150837D01*
X208044805Y-111076885D01*
X207880499Y-110827267D01*
X207767399Y-110603107D01*
X207696353Y-110380221D01*
X207658207Y-110134421D01*
X207650768Y-110035714D01*
X207645534Y-109810987D01*
X207652794Y-109656405D01*
X207917280Y-109656405D01*
X207921312Y-109895120D01*
X207947122Y-110149958D01*
X207993005Y-110401835D01*
X208057259Y-110631664D01*
X208112195Y-110769078D01*
X208262772Y-111001638D01*
X208483946Y-111214281D01*
X208769762Y-111402848D01*
X209114268Y-111563180D01*
X209378307Y-111653741D01*
X209525631Y-111687680D01*
X209710073Y-111714818D01*
X209917809Y-111734893D01*
X210135016Y-111747642D01*
X210347871Y-111752805D01*
X210542550Y-111750118D01*
X210705230Y-111739322D01*
X210822089Y-111720153D01*
X210879302Y-111692350D01*
X210882768Y-111682232D01*
X210866320Y-111634946D01*
X210821551Y-111532942D01*
X210755323Y-111391291D01*
X210675548Y-111227183D01*
X210411111Y-110733529D01*
X210134006Y-110294157D01*
X209847695Y-109912685D01*
X209555639Y-109592734D01*
X209261302Y-109337926D01*
X208968145Y-109151880D01*
X208679631Y-109038217D01*
X208557691Y-109012472D01*
X208378978Y-109020071D01*
X208202991Y-109086637D01*
X208056038Y-109198877D01*
X207981368Y-109303693D01*
X207936731Y-109452901D01*
X207917280Y-109656405D01*
X207652794Y-109656405D01*
X207655281Y-109603440D01*
X207675243Y-109460001D01*
X207764026Y-109203902D01*
X207904598Y-109002220D01*
X208088521Y-108859570D01*
X208307354Y-108780564D01*
X208552658Y-108769815D01*
X208815994Y-108831936D01*
G37*
G36*
X210814353Y-115164551D02*
G01*
X211289600Y-115165529D01*
X211748586Y-115167148D01*
X212184567Y-115169412D01*
X212590799Y-115172324D01*
X212960537Y-115175887D01*
X213287039Y-115180107D01*
X213563561Y-115184986D01*
X213783358Y-115190529D01*
X213939688Y-115196739D01*
X214025805Y-115203620D01*
X214028461Y-115204033D01*
X214355927Y-115295743D01*
X214663975Y-115455019D01*
X214941668Y-115671735D01*
X215178071Y-115935764D01*
X215362246Y-116236980D01*
X215478413Y-116546608D01*
X215490286Y-116606214D01*
X215500353Y-116692582D01*
X215508734Y-116811445D01*
X215515550Y-116968539D01*
X215520922Y-117169598D01*
X215524970Y-117420355D01*
X215527816Y-117726544D01*
X215529579Y-118093900D01*
X215530381Y-118528158D01*
X215530357Y-119014309D01*
X215529842Y-119497267D01*
X215528927Y-119908546D01*
X215527427Y-120254620D01*
X215525158Y-120541963D01*
X215521936Y-120777048D01*
X215517575Y-120966352D01*
X215511892Y-121116346D01*
X215504703Y-121233506D01*
X215495821Y-121324306D01*
X215485064Y-121395219D01*
X215472247Y-121452721D01*
X215459657Y-121495693D01*
X215318031Y-121813306D01*
X215109526Y-122106316D01*
X214844252Y-122363550D01*
X214532323Y-122573832D01*
X214441093Y-122621267D01*
X214145691Y-122765693D01*
X210480655Y-122765693D01*
X210179384Y-122765693D01*
X206213076Y-122765693D01*
X205987079Y-122680269D01*
X205658365Y-122517155D01*
X205366747Y-122294966D01*
X205123096Y-122024764D01*
X204938283Y-121717610D01*
X204866887Y-121540603D01*
X204850008Y-121488719D01*
X204835643Y-121436846D01*
X204823619Y-121378639D01*
X204813767Y-121307755D01*
X204805916Y-121217853D01*
X204799895Y-121102588D01*
X204795533Y-120955618D01*
X204792660Y-120770598D01*
X204791104Y-120541187D01*
X204790695Y-120261041D01*
X204791263Y-119923817D01*
X204792636Y-119523172D01*
X204794643Y-119052763D01*
X204795398Y-118885157D01*
X204799360Y-118009546D01*
X207416959Y-118009546D01*
X207438046Y-118311170D01*
X207538978Y-118831172D01*
X207708018Y-119314841D01*
X207942486Y-119758479D01*
X208239702Y-120158386D01*
X208596985Y-120510867D01*
X209011657Y-120812222D01*
X209403960Y-121023887D01*
X209752474Y-121162107D01*
X210103949Y-121249454D01*
X210480655Y-121289987D01*
X210862499Y-121289677D01*
X211183897Y-121267854D01*
X211454477Y-121227640D01*
X211700639Y-121162703D01*
X211948782Y-121066710D01*
X212113691Y-120989565D01*
X212498778Y-120759551D01*
X212833634Y-120476737D01*
X213114308Y-120149032D01*
X213336849Y-119784343D01*
X213497304Y-119390578D01*
X213591722Y-118975645D01*
X213616153Y-118547451D01*
X213566644Y-118113905D01*
X213561947Y-118091234D01*
X213443315Y-117715988D01*
X213255264Y-117366209D01*
X213005179Y-117052912D01*
X212700446Y-116787111D01*
X212675513Y-116769340D01*
X212369868Y-116580884D01*
X212084100Y-116460855D01*
X211808300Y-116405424D01*
X211721215Y-116400717D01*
X211564026Y-116411312D01*
X211424637Y-116444677D01*
X211322017Y-116493919D01*
X211275138Y-116552150D01*
X211274085Y-116563132D01*
X211299568Y-116601676D01*
X211367926Y-116683237D01*
X211467754Y-116794601D01*
X211551577Y-116884616D01*
X211849317Y-117218404D01*
X212090160Y-117531864D01*
X212286159Y-117841468D01*
X212378673Y-118015004D01*
X212457759Y-118178433D01*
X212506371Y-118300688D01*
X212531609Y-118409125D01*
X212540574Y-118531099D01*
X212540960Y-118640234D01*
X212527807Y-118859346D01*
X212488639Y-119036603D01*
X212451059Y-119134720D01*
X212319520Y-119352601D01*
X212126649Y-119563976D01*
X211889004Y-119755924D01*
X211623146Y-119915521D01*
X211345631Y-120029846D01*
X211279436Y-120049032D01*
X211116651Y-120076194D01*
X210903520Y-120089765D01*
X210666587Y-120090134D01*
X210432399Y-120077688D01*
X210227503Y-120052815D01*
X210130268Y-120032247D01*
X209777252Y-119902996D01*
X209428841Y-119708528D01*
X209102951Y-119460638D01*
X208817501Y-119171120D01*
X208811691Y-119164229D01*
X208661466Y-118963179D01*
X208554566Y-118762299D01*
X208489245Y-118549048D01*
X208463754Y-118310883D01*
X208476346Y-118035260D01*
X208525274Y-117709636D01*
X208575254Y-117467381D01*
X208630806Y-117204117D01*
X208664169Y-117003593D01*
X208674718Y-116853429D01*
X208661825Y-116741243D01*
X208624865Y-116654655D01*
X208563210Y-116581284D01*
X208528854Y-116550634D01*
X208432953Y-116483308D01*
X208339226Y-116460136D01*
X208232642Y-116465828D01*
X208033170Y-116526012D01*
X207855258Y-116653787D01*
X207702559Y-116840667D01*
X207578725Y-117078168D01*
X207487412Y-117357804D01*
X207432272Y-117671092D01*
X207416959Y-118009546D01*
X204799360Y-118009546D01*
X204806307Y-116474309D01*
X204932198Y-116208522D01*
X205115871Y-115909037D01*
X205359801Y-115647797D01*
X205651505Y-115434458D01*
X205978500Y-115278680D01*
X206224769Y-115208415D01*
X206297730Y-115201409D01*
X206442099Y-115194994D01*
X206651133Y-115189174D01*
X206918086Y-115183954D01*
X207236216Y-115179336D01*
X207598779Y-115175325D01*
X207999030Y-115171924D01*
X208430227Y-115169138D01*
X208885625Y-115166969D01*
X209358480Y-115165423D01*
X209842049Y-115164502D01*
X210329588Y-115164210D01*
X210814353Y-115164551D01*
G37*
G36*
X211771379Y-99679556D02*
G01*
X211855729Y-99752619D01*
X211959189Y-99855089D01*
X212066879Y-99971176D01*
X212163920Y-100085088D01*
X212235432Y-100181036D01*
X212260042Y-100223731D01*
X212305903Y-100287793D01*
X212376179Y-100292854D01*
X212402932Y-100286227D01*
X212620623Y-100255997D01*
X212803135Y-100291826D01*
X212943590Y-100388773D01*
X213035115Y-100541895D01*
X213070833Y-100746251D01*
X213071076Y-100766451D01*
X213060256Y-100897187D01*
X213016985Y-100992306D01*
X212951959Y-101066361D01*
X212864500Y-101142377D01*
X212784513Y-101170427D01*
X212743590Y-101168240D01*
X212671703Y-101164399D01*
X212668651Y-101164003D01*
X212556044Y-101137101D01*
X212460145Y-101078928D01*
X212352702Y-100972120D01*
X212348153Y-100967026D01*
X212191845Y-100791525D01*
X212039530Y-100920070D01*
X211887214Y-101048614D01*
X211980300Y-101273201D01*
X212038402Y-101394698D01*
X212095471Y-101483826D01*
X212132616Y-101517439D01*
X212309301Y-101586528D01*
X212470954Y-101668336D01*
X212596674Y-101751078D01*
X212660966Y-101815280D01*
X212704912Y-101924801D01*
X212725943Y-102064486D01*
X212722780Y-102202732D01*
X212694142Y-102307933D01*
X212681686Y-102326800D01*
X212602384Y-102370221D01*
X212470242Y-102387046D01*
X212463605Y-102387078D01*
X212409402Y-102375193D01*
X212292709Y-102349607D01*
X212144022Y-102238382D01*
X212019695Y-102055186D01*
X211991626Y-101995989D01*
X211945826Y-101903449D01*
X212260098Y-101903449D01*
X212261975Y-101968855D01*
X212269064Y-101993364D01*
X212318784Y-102057409D01*
X212409402Y-102074462D01*
X212499661Y-102063584D01*
X212515271Y-102030681D01*
X212456215Y-101975351D01*
X212404063Y-101942311D01*
X212305953Y-101895171D01*
X212260098Y-101903449D01*
X211945826Y-101903449D01*
X211944760Y-101901295D01*
X211895254Y-101855615D01*
X211814111Y-101841130D01*
X211737777Y-101840001D01*
X211612226Y-101848348D01*
X211531789Y-101881674D01*
X211471460Y-101943342D01*
X211419849Y-102016516D01*
X211413066Y-102071975D01*
X211449252Y-102148306D01*
X211460647Y-102168034D01*
X211533567Y-102255357D01*
X211647049Y-102352238D01*
X211736082Y-102412536D01*
X211900443Y-102497453D01*
X212097819Y-102572640D01*
X212335253Y-102639499D01*
X212619788Y-102699432D01*
X212958469Y-102753839D01*
X213358338Y-102804121D01*
X213826438Y-102851680D01*
X214038767Y-102870635D01*
X214271867Y-102893362D01*
X214470351Y-102917808D01*
X214621711Y-102942114D01*
X214713440Y-102964422D01*
X214732382Y-102973677D01*
X214786304Y-103054155D01*
X214762745Y-103136784D01*
X214730158Y-103170017D01*
X214696265Y-103184664D01*
X214629711Y-103195445D01*
X214523062Y-103202518D01*
X214368882Y-103206040D01*
X214159737Y-103206168D01*
X213888191Y-103203060D01*
X213546810Y-103196874D01*
X213504087Y-103196001D01*
X213210164Y-103190573D01*
X212942151Y-103186848D01*
X212709834Y-103184865D01*
X212523003Y-103184662D01*
X212391444Y-103186278D01*
X212324945Y-103189752D01*
X212318917Y-103191339D01*
X212322819Y-103234713D01*
X212355985Y-103319878D01*
X212372681Y-103354249D01*
X212421296Y-103483653D01*
X212445304Y-103614328D01*
X212445845Y-103631663D01*
X212463081Y-103736239D01*
X212523245Y-103842124D01*
X212599693Y-103932474D01*
X212734561Y-104121754D01*
X212808223Y-104320420D01*
X212823421Y-104516224D01*
X212782894Y-104696920D01*
X212689384Y-104850259D01*
X212545630Y-104963995D01*
X212355064Y-105025776D01*
X212237126Y-105026348D01*
X212104118Y-105026994D01*
X211849036Y-104964347D01*
X211611866Y-104847042D01*
X211574984Y-104816605D01*
X211414651Y-104684289D01*
X211350044Y-104605987D01*
X211291379Y-104511433D01*
X211892597Y-104511433D01*
X211909526Y-104545125D01*
X211971446Y-104584944D01*
X212045307Y-104612408D01*
X212237126Y-104647373D01*
X212397291Y-104641406D01*
X212515106Y-104598242D01*
X212579879Y-104521618D01*
X212583349Y-104424439D01*
X212537494Y-104322408D01*
X212465758Y-104227351D01*
X212373231Y-104133316D01*
X212170850Y-104315274D01*
X212065244Y-104406020D01*
X211980446Y-104471223D01*
X211934295Y-104497201D01*
X211933619Y-104497232D01*
X211892597Y-104511433D01*
X211291379Y-104511433D01*
X211277474Y-104489022D01*
X211243116Y-104375601D01*
X211234607Y-104227599D01*
X211248809Y-104112893D01*
X211477004Y-104112893D01*
X211496061Y-104175903D01*
X211574984Y-104206575D01*
X211701226Y-104201967D01*
X211782144Y-104184453D01*
X211892066Y-104143292D01*
X211927374Y-104103534D01*
X211891485Y-104070911D01*
X211787820Y-104051154D01*
X211700662Y-104047847D01*
X211571764Y-104053277D01*
X211503077Y-104072942D01*
X211477201Y-104111903D01*
X211477004Y-104112893D01*
X211248809Y-104112893D01*
X211261019Y-104014283D01*
X211335866Y-103842385D01*
X211453028Y-103725109D01*
X211472979Y-103713522D01*
X211571422Y-103688489D01*
X211734011Y-103680638D01*
X211866391Y-103685059D01*
X212055196Y-103689947D01*
X212172507Y-103675872D01*
X212223498Y-103639024D01*
X212213345Y-103575594D01*
X212147223Y-103481772D01*
X212145446Y-103479656D01*
X211974348Y-103335416D01*
X211742964Y-103234448D01*
X211507999Y-103185492D01*
X211336805Y-103157504D01*
X211230212Y-103121051D01*
X211174668Y-103067989D01*
X211156621Y-102990173D01*
X211156307Y-102974163D01*
X211167008Y-102888397D01*
X211209222Y-102833847D01*
X211298119Y-102800819D01*
X211448867Y-102779622D01*
X211462887Y-102778258D01*
X211671775Y-102758309D01*
X211499459Y-102637234D01*
X211327373Y-102474824D01*
X211226016Y-102279308D01*
X211195444Y-102068557D01*
X211228125Y-101858072D01*
X211319587Y-101685532D01*
X211460199Y-101561337D01*
X211640331Y-101495887D01*
X211732691Y-101488369D01*
X211820547Y-101482491D01*
X211852502Y-101454905D01*
X211832509Y-101390516D01*
X211781497Y-101301922D01*
X211721795Y-101219020D01*
X211665166Y-101192285D01*
X211596028Y-101202853D01*
X211401095Y-101227478D01*
X211248139Y-101186329D01*
X211137547Y-101079605D01*
X211076876Y-100936490D01*
X211059127Y-100791766D01*
X211075176Y-100644915D01*
X211118369Y-100516207D01*
X211182053Y-100425907D01*
X211254900Y-100394155D01*
X211297937Y-100425938D01*
X211311451Y-100501742D01*
X211292930Y-100592252D01*
X211274916Y-100627724D01*
X211266485Y-100701785D01*
X211301109Y-100754724D01*
X211381389Y-100813503D01*
X211477444Y-100821274D01*
X211598392Y-100775240D01*
X211718002Y-100696019D01*
X212531249Y-100696019D01*
X212575603Y-100768276D01*
X212657165Y-100819358D01*
X212743590Y-100833898D01*
X212786242Y-100817160D01*
X212833105Y-100753307D01*
X212803916Y-100696725D01*
X212761030Y-100669068D01*
X212657062Y-100631791D01*
X212573614Y-100633122D01*
X212531605Y-100670609D01*
X212531249Y-100696019D01*
X211718002Y-100696019D01*
X211753351Y-100672606D01*
X211869065Y-100580517D01*
X211952002Y-100511036D01*
X212003258Y-100455936D01*
X212020902Y-100400616D01*
X212003003Y-100330475D01*
X211947630Y-100230910D01*
X211852850Y-100087321D01*
X211791895Y-99997145D01*
X211694214Y-99839105D01*
X211650373Y-99732018D01*
X211659398Y-99671133D01*
X211720312Y-99651694D01*
X211721019Y-99651693D01*
X211771379Y-99679556D01*
G37*
D14*
%TO.C,R13*%
X163365242Y-93477500D02*
X163839758Y-93477500D01*
X163365242Y-94522500D02*
X163839758Y-94522500D01*
%TD*%
M02*
